SplineFontDB: 3.0
FontName: Rachana
FullName: Rachana
FamilyName: Rachana
Weight: Book
Copyright: Copyright (c) Rachana Akshara Vedi (Chitrajakumar R, Hussain KH, Rajeev Sebastian, Gangadharan N, Vijayakumaran Nair, Subash Kuraiakose ), 2005. All rights reserved.
Version: Rachana:04;Revision:0.200
ItalicAngle: 0
UnderlinePosition: -520
UnderlineWidth: 34
Ascent: 1638
Descent: 410
LayerCount: 2
Layer: 0 1 "Back"  1
Layer: 1 1 "Fore"  0
XUID: [1021 400 913805956 978101]
FSType: 0
OS2Version: 1
OS2_WeightWidthSlopeOnly: 0
OS2_UseTypoMetrics: 1
CreationTime: 1201144321
ModificationTime: 1204340866
PfmFamily: 17
TTFWeight: 400
TTFWidth: 5
LineGap: 0
VLineGap: 0
Panose: 2 0 6 3 0 0 0 0 0 0
OS2TypoAscent: 0
OS2TypoAOffset: 1
OS2TypoDescent: -690
OS2TypoDOffset: 1
OS2TypoLinegap: 0
OS2WinAscent: -122
OS2WinAOffset: 1
OS2WinDescent: -16
OS2WinDOffset: 1
HheadAscent: -122
HheadAOffset: 1
HheadDescent: 16
HheadDOffset: 1
OS2SubXSize: 1330
OS2SubYSize: 1228
OS2SubXOff: 0
OS2SubYOff: 152
OS2SupXSize: 1330
OS2SupYSize: 1430
OS2SupXOff: 0
OS2SupYOff: 980
OS2StrikeYSize: 102
OS2StrikeYPos: 512
OS2Vendor: 'PfEd'
OS2CodePages: 00000001.00000000
OS2UnicodeRanges: 80800001.00002000.00000000.00000000
Lookup: 4 0 0 "'akhn' Akhand in Malay+AQEA-lam lookup 0"  {"'akhn' Akhand in Malay+AQEA-lam lookup 0 subtable"  } ['akhn' ('mlym' <'dflt' > ) ]
Lookup: 4 0 0 "'half' Half Forms in Malay+AQEA-lam lookup 1"  {"'half' Half Forms in Malay+AQEA-lam lookup 1 subtable"  } ['half' ('mlym' <'dflt' > ) ]
Lookup: 4 0 0 "'blwf' Below Base Forms in Malay+AQEA-lam lookup 2"  {"'blwf' Below Base Forms in Malay+AQEA-lam lookup 2 subtable"  } ['blwf' ('mlym' <'dflt' > ) ]
Lookup: 4 0 0 "'blws' Below Base Substitutions in Malay+AQEA-lam lookup 3"  {"'blws' Below Base Substitutions in Malay+AQEA-lam lookup 3 subtable"  } ['blws' ('mlym' <'dflt' > ) ]

StartChar: .notdef
Encoding: 65536 -1 0
Width: 602
GlyphClass: 2
Flags: W
LayerCount: 2
Fore
SplineSet
46 0 m 1,0,-1
 46 932 l 1,1,-1
 512 932 l 1,2,-1
 512 0 l 1,3,-1
 46 0 l 1,0,-1
92 46 m 1,4,-1
 466 46 l 1,5,-1
 466 884 l 1,6,-1
 92 884 l 1,7,-1
 92 46 l 1,4,-1
EndSplineSet
EndChar

StartChar: exclam
Encoding: 33 33 5
Width: 680
GlyphClass: 2
Flags: W
LayerCount: 2
Fore
SplineSet
388 360 m 1,0,-1
 360 360 l 1,1,-1
 342 582 l 1,2,-1
 268 1174 l 1,3,4
 266 1206 266 1206 266 1226 c 0,5,6
 266 1358 266 1358 348 1380 c 0,7,8
 360 1384 360 1384 374 1384 c 0,9,10
 484 1384 484 1384 484 1220 c 0,11,12
 484 1194 484 1194 480 1144 c 1,13,-1
 388 360 l 1,0,-1
374 200 m 0,14,15
 444 200 444 200 476 136 c 1,16,17
 486 112 486 112 486 88 c 0,18,19
 486 14 486 14 416 -10 c 1,20,21
 396 -18 396 -18 372 -18 c 0,22,23
 296 -18 296 -18 272 50 c 0,24,25
 266 68 266 68 266 88 c 0,26,27
 266 164 266 164 332 192 c 0,28,29
 352 200 352 200 374 200 c 0,14,15
EndSplineSet
EndChar

StartChar: quotedbl
Encoding: 34 34 6
Width: 834
GlyphClass: 2
Flags: W
LayerCount: 2
Fore
SplineSet
612 882 m 1,0,-1
 570 882 l 1,1,2
 504 1228 504 1228 504 1300 c 0,3,4
 504 1358 504 1358 560 1378 c 0,5,6
 576 1384 576 1384 592 1384 c 0,7,8
 650 1384 650 1384 672 1334 c 0,9,10
 678 1318 678 1318 678 1302 c 0,11,12
 678 1208 678 1208 626 964 c 1,13,-1
 612 882 l 1,0,-1
266 882 m 1,14,-1
 224 882 l 1,15,16
 158 1228 158 1228 158 1300 c 0,17,18
 158 1358 158 1358 212 1378 c 0,19,20
 230 1384 230 1384 246 1384 c 0,21,22
 304 1384 304 1384 326 1334 c 0,23,24
 332 1318 332 1318 332 1302 c 0,25,26
 332 1208 332 1208 280 964 c 1,27,-1
 266 882 l 1,14,-1
EndSplineSet
EndChar

StartChar: numbersign
Encoding: 35 35 7
Width: 1024
GlyphClass: 2
Flags: W
LayerCount: 2
Fore
SplineSet
964 556 m 1,0,-1
 964 442 l 1,1,-1
 742 442 l 1,2,-1
 678 0 l 1,3,-1
 560 0 l 1,4,-1
 622 442 l 1,5,-1
 348 442 l 1,6,-1
 280 0 l 1,7,-1
 162 0 l 1,8,-1
 230 442 l 1,9,-1
 10 442 l 1,10,-1
 10 556 l 1,11,-1
 248 556 l 1,12,-1
 290 830 l 1,13,-1
 66 830 l 1,14,-1
 66 942 l 1,15,-1
 308 942 l 1,16,-1
 370 1356 l 1,17,-1
 490 1356 l 1,18,-1
 426 942 l 1,19,-1
 698 942 l 1,20,-1
 760 1356 l 1,21,-1
 878 1356 l 1,22,-1
 818 942 l 1,23,-1
 1016 942 l 1,24,-1
 1016 830 l 1,25,-1
 800 830 l 1,26,-1
 760 556 l 1,27,-1
 964 556 l 1,0,-1
682 830 m 1,28,-1
 410 830 l 1,29,-1
 366 556 l 1,30,-1
 642 556 l 1,31,-1
 682 830 l 1,28,-1
EndSplineSet
EndChar

StartChar: dollar
Encoding: 36 36 8
Width: 1024
GlyphClass: 2
Flags: W
LayerCount: 2
Fore
SplineSet
106 1048 m 0,0,1
 106 1282 106 1282 382 1346 c 1,2,3
 424 1354 424 1354 472 1360 c 1,4,-1
 472 1488 l 1,5,-1
 540 1488 l 1,6,-1
 540 1360 l 1,7,8
 768 1334 768 1334 870 1252 c 1,9,-1
 870 1024 l 1,10,-1
 840 1024 l 1,11,12
 796 1240 796 1240 616 1290 c 0,13,14
 582 1300 582 1300 540 1304 c 1,15,-1
 540 800 l 1,16,17
 740 684 740 684 770 664 c 1,18,19
 916 560 916 560 932 406 c 1,20,21
 936 378 936 378 936 348 c 0,22,23
 936 116 936 116 684 34 c 0,24,25
 622 14 622 14 540 0 c 1,26,-1
 540 -178 l 1,27,-1
 472 -178 l 1,28,-1
 472 0 l 1,29,30
 276 6 276 6 156 68 c 1,31,32
 124 82 124 82 90 104 c 1,33,-1
 90 370 l 1,34,-1
 120 370 l 1,35,36
 180 114 180 114 370 68 c 1,37,38
 416 58 416 58 472 58 c 1,39,-1
 472 634 l 1,40,41
 224 774 224 774 154 880 c 0,42,43
 106 954 106 954 106 1048 c 0,0,1
468 834 m 1,44,-1
 468 1304 l 1,45,46
 258 1262 258 1262 258 1094 c 0,47,48
 258 1008 258 1008 332 938 c 0,49,50
 374 898 374 898 468 834 c 1,44,-1
540 600 m 1,51,-1
 540 58 l 1,52,53
 756 98 756 98 772 266 c 0,54,55
 774 282 774 282 774 300 c 0,56,57
 774 410 774 410 706 478 c 1,58,59
 660 526 660 526 540 600 c 1,51,-1
EndSplineSet
EndChar

StartChar: percent
Encoding: 37 37 9
Width: 1704
GlyphClass: 2
Flags: W
LayerCount: 2
Fore
SplineSet
1370 760 m 0,0,1
 1536 760 1536 760 1572 616 c 1,2,3
 1582 582 1582 582 1582 540 c 0,4,5
 1582 322 1582 322 1444 150 c 1,6,7
 1426 124 1426 124 1404 104 c 1,8,9
 1300 0 1300 0 1166 0 c 0,10,11
 1010 0 1010 0 948 132 c 1,12,13
 920 188 920 188 920 264 c 0,14,15
 920 462 920 462 1068 616 c 1,16,17
 1202 760 1202 760 1370 760 c 0,0,1
1200 62 m 0,18,19
 1336 62 1336 62 1440 236 c 0,20,21
 1528 382 1528 382 1528 530 c 0,22,23
 1528 626 1528 626 1452 674 c 0,24,25
 1422 694 1422 694 1384 694 c 0,26,27
 1236 694 1236 694 1138 450 c 0,28,29
 1076 294 1076 294 1076 192 c 0,30,31
 1076 98 1076 98 1154 70 c 0,32,33
 1174 62 1174 62 1200 62 c 0,18,19
578 1356 m 0,34,35
 652 1356 652 1356 710 1308 c 1,36,37
 778 1256 778 1256 848 1248 c 0,38,39
 870 1246 870 1246 900 1246 c 0,40,41
 1046 1246 1046 1246 1160 1334 c 0,42,43
 1188 1356 1188 1356 1218 1384 c 1,44,-1
 1298 1384 l 1,45,-1
 510 -26 l 1,46,-1
 412 -26 l 1,47,-1
 1130 1256 l 1,48,49
 1014 1196 1014 1196 906 1194 c 1,50,51
 826 1194 826 1194 772 1214 c 1,52,53
 786 1164 786 1164 786 1124 c 0,54,55
 786 932 786 932 668 768 c 0,56,57
 542 592 542 592 366 592 c 0,58,59
 244 592 244 592 170 700 c 0,60,61
 124 768 124 768 124 852 c 0,62,63
 124 1054 124 1054 272 1210 c 0,64,65
 410 1356 410 1356 578 1356 c 0,34,35
578 1294 m 0,66,67
 484 1294 484 1294 386 1124 c 1,68,69
 282 948 282 948 280 786 c 1,70,71
 280 696 280 696 356 670 c 1,72,73
 376 662 376 662 402 662 c 0,74,75
 526 662 526 662 630 808 c 1,76,77
 736 954 736 954 736 1128 c 0,78,79
 736 1168 736 1168 716 1228 c 1,80,81
 646 1250 646 1250 598 1286 c 0,82,83
 588 1294 588 1294 578 1294 c 0,66,67
EndSplineSet
EndChar

StartChar: ampersand
Encoding: 38 38 10
Width: 1592
GlyphClass: 2
Flags: W
LayerCount: 2
Fore
SplineSet
1006 1136 m 0,0,1
 1006 988 1006 988 858 882 c 1,2,3
 792 836 792 836 688 786 c 1,4,5
 812 546 812 546 958 364 c 1,6,7
 1144 612 1144 612 1144 738 c 0,8,9
 1144 798 1144 798 1090 816 c 0,10,11
 1062 826 1062 826 1014 830 c 1,12,-1
 1014 872 l 1,13,-1
 1456 872 l 1,14,-1
 1456 830 l 1,15,16
 1348 818 1348 818 1300 762 c 0,17,18
 1282 742 1282 742 1264 708 c 1,19,-1
 1210 614 l 1,20,21
 1128 474 1128 474 1006 308 c 1,22,23
 1146 118 1146 118 1320 118 c 0,24,25
 1406 118 1406 118 1476 192 c 0,26,27
 1488 206 1488 206 1506 228 c 1,28,-1
 1536 204 l 1,29,30
 1462 28 1462 28 1308 -14 c 1,31,32
 1268 -26 1268 -26 1226 -26 c 0,33,34
 1074 -26 1074 -26 918 122 c 0,35,36
 900 140 900 140 878 160 c 1,37,38
 696 -2 696 -2 516 -22 c 0,39,40
 478 -26 478 -26 436 -26 c 0,41,42
 200 -26 200 -26 118 136 c 0,43,44
 86 200 86 200 86 284 c 0,45,46
 86 542 86 542 408 728 c 1,47,-1
 486 772 l 1,48,49
 414 970 414 970 414 1070 c 0,50,51
 414 1228 414 1228 538 1320 c 1,52,53
 622 1384 622 1384 730 1384 c 0,54,55
 892 1384 892 1384 968 1268 c 0,56,57
 1006 1210 1006 1210 1006 1136 c 0,0,1
658 852 m 1,58,59
 870 966 870 966 892 1102 c 1,60,61
 898 1122 898 1122 898 1144 c 0,62,63
 898 1256 898 1256 808 1300 c 1,64,65
 774 1318 774 1318 734 1318 c 0,66,67
 628 1318 628 1318 590 1226 c 0,68,69
 576 1192 576 1192 576 1150 c 0,70,71
 576 1024 576 1024 658 852 c 1,58,59
516 702 m 1,72,73
 330 582 330 582 290 468 c 0,74,75
 274 424 274 424 274 368 c 0,76,77
 274 224 274 224 386 136 c 1,78,79
 454 80 454 80 538 80 c 0,80,81
 660 80 660 80 828 212 c 1,82,83
 682 392 682 392 540 656 c 0,84,85
 528 678 528 678 516 702 c 1,72,73
EndSplineSet
EndChar

StartChar: quotesingle
Encoding: 39 39 11
Width: 368
GlyphClass: 2
Flags: W
LayerCount: 2
Fore
SplineSet
206 882 m 1,0,-1
 164 882 l 1,1,2
 98 1228 98 1228 98 1300 c 0,3,4
 98 1358 98 1358 154 1378 c 0,5,6
 170 1384 170 1384 186 1384 c 0,7,8
 244 1384 244 1384 266 1334 c 0,9,10
 272 1318 272 1318 272 1302 c 0,11,12
 272 1208 272 1208 222 964 c 1,13,-1
 206 882 l 1,0,-1
EndSplineSet
EndChar

StartChar: parenleft
Encoding: 40 40 12
Width: 680
GlyphClass: 2
Flags: W
LayerCount: 2
Fore
SplineSet
598 -362 m 1,0,1
 404 -244 404 -244 266 -38 c 1,2,3
 98 216 98 216 98 516 c 0,4,5
 98 1046 98 1046 572 1364 c 1,6,7
 586 1372 586 1372 604 1384 c 1,8,-1
 622 1352 l 1,9,10
 450 1212 450 1212 380 1084 c 1,11,12
 274 886 274 886 274 522 c 0,13,14
 274 86 274 86 422 -130 c 1,15,16
 488 -224 488 -224 622 -330 c 1,17,-1
 598 -362 l 1,0,1
EndSplineSet
EndChar

StartChar: parenright
Encoding: 41 41 13
Width: 680
GlyphClass: 2
Flags: W
LayerCount: 2
Fore
SplineSet
84 1384 m 1,0,1
 278 1266 278 1266 416 1060 c 1,2,3
 584 806 584 806 584 506 c 0,4,5
 584 -24 584 -24 110 -342 c 1,6,7
 96 -350 96 -350 78 -362 c 1,8,-1
 60 -330 l 1,9,10
 234 -188 234 -188 306 -54 c 1,11,12
 408 144 408 144 408 500 c 0,13,14
 408 932 408 932 266 1142 c 0,15,16
 198 1244 198 1244 60 1352 c 1,17,-1
 84 1384 l 1,0,1
EndSplineSet
EndChar

StartChar: asterisk
Encoding: 42 42 14
Width: 1024
GlyphClass: 2
Flags: W
LayerCount: 2
Fore
SplineSet
438 618 m 0,0,1
 438 644 438 644 474 750 c 1,2,3
 496 818 496 818 496 868 c 2,4,-1
 496 884 l 1,5,-1
 494 920 l 1,6,-1
 494 934 l 1,7,8
 370 856 370 856 300 762 c 1,9,10
 268 724 268 724 238 720 c 0,11,12
 228 718 228 718 216 718 c 1,13,14
 148 730 148 730 142 790 c 1,15,16
 142 844 142 844 198 862 c 1,17,-1
 356 908 l 1,18,19
 422 930 422 930 480 964 c 1,20,-1
 456 978 l 1,21,22
 412 1012 412 1012 274 1042 c 1,23,24
 166 1068 166 1068 148 1108 c 0,25,26
 142 1120 142 1120 142 1136 c 0,27,28
 142 1190 142 1190 188 1206 c 0,29,30
 200 1210 200 1210 210 1210 c 0,31,32
 256 1210 256 1210 294 1166 c 1,33,34
 360 1086 360 1086 412 1046 c 1,35,36
 448 1020 448 1020 494 996 c 1,37,-1
 494 1022 l 2,38,39
 494 1090 494 1090 454 1242 c 0,40,41
 442 1288 442 1288 442 1312 c 0,42,43
 442 1366 442 1366 492 1380 c 1,44,45
 502 1384 502 1384 514 1384 c 0,46,47
 566 1384 566 1384 584 1336 c 0,48,49
 588 1324 588 1324 588 1308 c 0,50,51
 588 1288 588 1288 556 1176 c 1,52,53
 532 1100 532 1100 532 1044 c 2,54,-1
 532 992 l 1,55,56
 600 1030 600 1030 706 1140 c 0,57,58
 776 1214 776 1214 808 1214 c 0,59,60
 866 1214 866 1214 880 1160 c 1,61,62
 882 1146 882 1146 882 1134 c 0,63,64
 882 1084 882 1084 830 1064 c 1,65,-1
 668 1018 l 1,66,67
 608 996 608 996 548 962 c 1,68,69
 632 910 632 910 782 878 c 1,70,71
 862 862 862 862 876 832 c 0,72,73
 884 816 884 816 884 792 c 0,74,75
 884 730 884 730 830 718 c 0,76,77
 822 716 822 716 814 716 c 0,78,79
 764 716 764 716 702 788 c 0,80,81
 626 878 626 878 582 910 c 1,82,83
 558 924 558 924 532 934 c 1,84,-1
 532 920 l 2,85,86
 532 812 532 812 578 678 c 0,87,88
 590 644 590 644 590 624 c 0,89,90
 590 572 590 572 540 548 c 0,91,92
 526 542 526 542 510 542 c 0,93,94
 462 542 462 542 444 590 c 0,95,96
 438 604 438 604 438 618 c 0,0,1
EndSplineSet
EndChar

StartChar: plus
Encoding: 43 43 15
Width: 1154
GlyphClass: 2
Flags: W
LayerCount: 2
Fore
SplineSet
510 586 m 1,0,-1
 510 1036 l 1,1,-1
 646 1036 l 1,2,-1
 646 586 l 1,3,-1
 1094 586 l 1,4,-1
 1094 450 l 1,5,-1
 646 450 l 1,6,-1
 646 0 l 1,7,-1
 510 0 l 1,8,-1
 510 450 l 1,9,-1
 62 450 l 1,10,-1
 62 586 l 1,11,-1
 510 586 l 1,0,-1
EndSplineSet
EndChar

StartChar: comma
Encoding: 44 44 16
Width: 512
GlyphClass: 2
Flags: W
LayerCount: 2
Fore
SplineSet
290 -4 m 1,0,-1
 240 -12 l 1,1,-1
 236 -12 l 2,2,3
 136 -12 136 -12 116 68 c 0,4,5
 114 80 114 80 114 92 c 0,6,7
 114 178 114 178 192 202 c 0,8,9
 212 208 212 208 236 208 c 0,10,11
 330 208 330 208 376 120 c 1,12,13
 400 78 400 78 400 26 c 0,14,15
 400 -116 400 -116 262 -230 c 0,16,17
 222 -264 222 -264 170 -288 c 1,18,-1
 152 -250 l 1,19,20
 320 -136 320 -136 320 -32 c 0,21,22
 320 -6 320 -6 290 -4 c 1,0,-1
EndSplineSet
EndChar

StartChar: hyphen
Encoding: 45 45 17
Width: 680
GlyphClass: 2
Flags: W
LayerCount: 2
Fore
SplineSet
80 526 m 1,0,-1
 584 526 l 1,1,-1
 584 398 l 1,2,-1
 80 398 l 1,3,-1
 80 526 l 1,0,-1
EndSplineSet
EndChar

StartChar: period
Encoding: 46 46 18
Width: 512
GlyphClass: 2
Flags: W
LayerCount: 2
Fore
SplineSet
256 204 m 0,0,1
 324 204 324 204 358 142 c 1,2,3
 370 116 370 116 370 88 c 0,4,5
 370 22 370 22 308 -10 c 1,6,7
 282 -22 282 -22 254 -22 c 0,8,9
 188 -22 188 -22 156 38 c 0,10,11
 144 62 144 62 144 88 c 0,12,13
 144 160 144 160 206 192 c 1,14,15
 232 204 232 204 256 204 c 0,0,1
EndSplineSet
EndChar

StartChar: slash
Encoding: 47 47 19
Width: 568
GlyphClass: 2
Flags: W
LayerCount: 2
Fore
SplineSet
588 1384 m 1,0,-1
 120 -28 l 1,1,-1
 -18 -28 l 1,2,-1
 450 1384 l 1,3,-1
 588 1384 l 1,0,-1
EndSplineSet
EndChar

StartChar: zero
Encoding: 48 48 20
Width: 1024
GlyphClass: 2
Flags: W
LayerCount: 2
Fore
SplineSet
512 -28 m 0,0,1
 226 -28 226 -28 108 312 c 1,2,3
 50 484 50 484 50 688 c 0,4,5
 50 976 50 976 170 1182 c 0,6,7
 204 1240 204 1240 246 1278 c 1,8,9
 358 1384 358 1384 520 1384 c 0,10,11
 736 1384 736 1384 862 1164 c 0,12,13
 974 968 974 968 974 676 c 0,14,15
 974 304 974 304 802 108 c 0,16,17
 682 -28 682 -28 512 -28 c 0,0,1
514 1332 m 0,18,19
 262 1332 262 1332 246 742 c 1,20,21
 246 670 l 2,22,23
 246 24 246 24 512 24 c 128,-1,24
 778 24 778 24 778 672 c 0,25,26
 778 1256 778 1256 568 1324 c 0,27,28
 542 1332 542 1332 514 1332 c 0,18,19
EndSplineSet
EndChar

StartChar: one
Encoding: 49 49 21
Width: 1024
GlyphClass: 2
Flags: W
LayerCount: 2
Fore
SplineSet
374 1214 m 0,0,1
 338 1214 338 1214 228 1170 c 1,2,-1
 228 1198 l 1,3,-1
 596 1384 l 1,4,-1
 612 1380 l 1,5,-1
 612 152 l 2,6,7
 612 72 612 72 660 50 c 0,8,9
 698 32 698 32 806 30 c 1,10,-1
 806 0 l 1,11,-1
 242 0 l 1,12,-1
 242 30 l 1,13,14
 376 34 376 34 412 80 c 0,15,16
 436 112 436 112 436 190 c 2,17,-1
 436 1118 l 2,18,19
 436 1214 436 1214 374 1214 c 0,0,1
EndSplineSet
EndChar

StartChar: two
Encoding: 50 50 22
Width: 1024
GlyphClass: 2
Flags: W
LayerCount: 2
Fore
SplineSet
64 976 m 1,0,1
 156 1370 156 1370 466 1384 c 1,2,3
 490 1384 l 2,4,5
 678 1384 678 1384 788 1248 c 0,6,7
 868 1150 868 1150 868 1022 c 0,8,9
 868 796 868 796 622 534 c 0,10,11
 614 526 614 526 606 516 c 1,12,-1
 262 156 l 1,13,-1
 752 156 l 2,14,15
 834 156 834 156 874 196 c 1,16,17
 902 222 902 222 946 290 c 1,18,-1
 972 280 l 1,19,-1
 860 0 l 1,20,-1
 62 0 l 1,21,-1
 62 24 l 1,22,-1
 426 412 l 1,23,24
 684 698 684 698 692 944 c 1,25,26
 692 1116 692 1116 562 1194 c 1,27,28
 492 1232 492 1232 404 1232 c 0,29,30
 268 1232 268 1232 190 1128 c 1,31,32
 150 1072 150 1072 106 966 c 1,33,-1
 64 976 l 1,0,1
EndSplineSet
EndChar

StartChar: three
Encoding: 51 51 23
Width: 1024
GlyphClass: 2
Flags: W
LayerCount: 2
Fore
SplineSet
166 160 m 0,0,1
 212 160 212 160 304 104 c 0,2,3
 400 46 400 46 468 46 c 0,4,5
 608 46 608 46 688 170 c 1,6,7
 738 250 738 250 738 350 c 0,8,9
 738 522 738 522 606 614 c 0,10,11
 572 638 572 638 530 654 c 0,12,13
 472 676 472 676 314 676 c 1,14,-1
 314 702 l 1,15,16
 544 782 544 782 614 900 c 1,17,18
 654 962 654 962 654 1042 c 0,19,20
 654 1178 654 1178 540 1234 c 1,21,22
 492 1262 492 1262 428 1262 c 0,23,24
 258 1262 258 1262 146 1082 c 0,25,26
 134 1064 134 1064 122 1044 c 1,27,-1
 92 1052 l 1,28,29
 186 1312 186 1312 372 1368 c 1,30,31
 430 1384 430 1384 496 1384 c 0,32,33
 682 1384 682 1384 770 1258 c 1,34,35
 816 1190 816 1190 816 1104 c 0,36,37
 816 978 816 978 700 880 c 0,38,39
 668 852 668 852 622 822 c 1,40,41
 808 742 808 742 860 602 c 1,42,43
 884 534 884 534 884 448 c 0,44,45
 884 202 884 202 680 70 c 0,46,47
 530 -28 530 -28 320 -28 c 0,48,49
 132 -28 132 -28 94 56 c 1,50,51
 88 72 88 72 88 88 c 0,52,53
 88 148 88 148 148 158 c 0,54,55
 156 160 156 160 166 160 c 0,0,1
EndSplineSet
EndChar

StartChar: four
Encoding: 52 52 24
Width: 1024
GlyphClass: 2
Flags: W
LayerCount: 2
Fore
SplineSet
966 474 m 1,0,-1
 966 342 l 1,1,-1
 758 342 l 1,2,-1
 758 0 l 1,3,-1
 600 0 l 1,4,-1
 600 342 l 1,5,-1
 24 342 l 1,6,-1
 24 474 l 1,7,-1
 668 1384 l 1,8,-1
 758 1384 l 1,9,-1
 758 474 l 1,10,-1
 966 474 l 1,0,-1
598 474 m 1,11,-1
 598 1176 l 1,12,-1
 106 474 l 1,13,-1
 598 474 l 1,11,-1
EndSplineSet
EndChar

StartChar: five
Encoding: 53 53 25
Width: 1024
GlyphClass: 2
Flags: W
LayerCount: 2
Fore
SplineSet
732 398 m 0,0,1
 732 678 732 678 426 792 c 0,2,3
 286 844 286 844 156 844 c 0,4,5
 132 844 132 844 132 860 c 0,6,7
 132 866 132 866 134 870 c 2,8,-1
 356 1356 l 1,9,-1
 784 1356 l 2,10,11
 838 1356 838 1356 870 1398 c 0,12,13
 874 1402 874 1402 878 1410 c 1,14,-1
 898 1394 l 1,15,-1
 820 1212 l 2,16,17
 812 1194 812 1194 772 1194 c 2,18,-1
 370 1194 l 1,19,-1
 284 1020 l 1,20,21
 684 948 684 948 806 758 c 0,22,23
 874 652 874 652 874 496 c 0,24,25
 874 150 874 150 584 24 c 1,26,27
 460 -28 460 -28 316 -28 c 0,28,29
 118 -28 118 -28 74 60 c 0,30,31
 66 78 66 78 66 98 c 0,32,33
 66 174 66 174 154 174 c 0,34,35
 210 174 210 174 306 108 c 0,36,37
 394 48 394 48 446 48 c 0,38,39
 588 48 588 48 672 180 c 0,40,41
 732 274 732 274 732 398 c 0,0,1
EndSplineSet
EndChar

StartChar: six
Encoding: 54 54 26
Width: 1024
GlyphClass: 2
Flags: W
LayerCount: 2
Fore
SplineSet
528 -28 m 0,0,1
 294 -28 294 -28 168 178 c 1,2,3
 70 336 70 336 70 572 c 0,4,5
 70 956 70 956 358 1196 c 1,6,7
 386 1216 386 1216 412 1236 c 1,8,9
 574 1350 574 1350 762 1382 c 1,10,11
 828 1392 828 1392 914 1400 c 1,12,-1
 918 1368 l 1,13,14
 598 1314 598 1314 428 1070 c 0,15,16
 340 944 340 944 312 784 c 1,17,18
 446 866 446 866 522 874 c 0,19,20
 542 876 542 876 574 876 c 0,21,22
 798 876 798 876 902 696 c 1,23,24
 958 592 958 592 958 448 c 0,25,26
 958 194 958 194 792 62 c 1,27,28
 682 -28 682 -28 528 -28 c 0,0,1
496 782 m 0,29,30
 310 782 310 782 272 654 c 1,31,32
 260 608 260 608 260 538 c 0,33,34
 260 192 260 192 414 74 c 1,35,36
 476 28 476 28 550 28 c 0,37,38
 718 28 718 28 762 238 c 1,39,40
 774 302 774 302 774 378 c 0,41,42
 774 678 774 678 606 758 c 1,43,44
 558 782 558 782 496 782 c 0,29,30
EndSplineSet
EndChar

StartChar: seven
Encoding: 55 55 27
Width: 1024
GlyphClass: 2
Flags: W
LayerCount: 2
Fore
SplineSet
920 1356 m 1,0,-1
 920 1324 l 1,1,-1
 486 -16 l 1,2,-1
 352 -16 l 1,3,-1
 758 1204 l 1,4,-1
 314 1204 l 2,5,6
 216 1204 216 1204 162 1156 c 1,7,8
 130 1122 130 1122 76 1038 c 1,9,-1
 40 1054 l 1,10,-1
 162 1356 l 1,11,-1
 920 1356 l 1,0,-1
EndSplineSet
EndChar

StartChar: eight
Encoding: 56 56 28
Width: 1024
GlyphClass: 2
Flags: W
LayerCount: 2
Fore
SplineSet
594 760 m 1,0,1
 822 592 822 592 876 478 c 1,2,3
 912 408 912 408 912 318 c 0,4,5
 912 114 912 114 740 22 c 1,6,7
 642 -28 642 -28 508 -28 c 0,8,9
 288 -28 288 -28 180 112 c 0,10,11
 114 196 114 196 114 310 c 0,12,13
 114 426 114 426 182 506 c 0,14,15
 236 570 236 570 380 680 c 1,16,17
 194 842 194 842 156 922 c 1,18,19
 126 978 126 978 126 1060 c 0,20,21
 126 1226 126 1226 274 1318 c 1,22,23
 378 1384 378 1384 516 1384 c 0,24,25
 712 1384 712 1384 812 1258 c 0,26,27
 868 1186 868 1186 868 1094 c 0,28,29
 868 954 868 954 748 858 c 0,30,31
 690 812 690 812 594 760 c 1,0,1
558 548 m 2,32,-1
 434 638 l 1,33,34
 294 526 294 526 274 394 c 0,35,36
 270 362 270 362 270 326 c 0,37,38
 270 142 270 142 398 64 c 1,39,40
 454 28 454 28 530 28 c 0,41,42
 670 28 670 28 730 142 c 0,43,44
 756 190 756 190 756 254 c 0,45,46
 756 374 756 374 656 472 c 1,47,48
 616 506 616 506 558 548 c 2,32,-1
534 796 m 1,49,50
 620 860 620 860 642 882 c 0,51,52
 728 970 728 970 728 1096 c 0,53,54
 728 1254 728 1254 602 1306 c 1,55,56
 558 1328 558 1328 500 1328 c 0,57,58
 362 1328 362 1328 306 1224 c 1,59,60
 278 1180 278 1180 278 1124 c 0,61,62
 278 990 278 990 446 858 c 1,63,64
 486 830 486 830 534 796 c 1,49,50
EndSplineSet
EndChar

StartChar: nine
Encoding: 57 57 29
Width: 1024
GlyphClass: 2
Flags: W
LayerCount: 2
Fore
SplineSet
120 -46 m 1,0,-1
 114 -4 l 1,1,2
 454 54 454 54 632 348 c 1,3,4
 702 460 702 460 738 602 c 1,5,6
 578 490 578 490 430 486 c 1,7,8
 224 486 224 486 122 656 c 1,9,10
 62 758 62 758 62 902 c 0,11,12
 62 1138 62 1138 216 1280 c 0,13,14
 330 1384 330 1384 488 1384 c 0,15,16
 704 1384 704 1384 834 1194 c 1,17,18
 940 1036 940 1036 940 806 c 0,19,20
 940 476 940 476 730 238 c 0,21,22
 672 172 672 172 602 120 c 1,23,24
 450 12 450 12 264 -24 c 1,25,26
 202 -34 202 -34 120 -46 c 1,0,-1
504 574 m 0,27,28
 604 574 604 574 680 624 c 0,29,30
 742 664 742 664 742 728 c 2,31,-1
 742 806 l 2,32,33
 742 1328 742 1328 472 1328 c 0,34,35
 306 1328 306 1328 262 1104 c 0,36,37
 250 1040 250 1040 250 970 c 0,38,39
 250 704 250 704 386 610 c 1,40,41
 436 574 436 574 504 574 c 0,27,28
EndSplineSet
EndChar

StartChar: colon
Encoding: 58 58 30
Width: 568
GlyphClass: 2
Flags: W
LayerCount: 2
Fore
SplineSet
278 940 m 0,0,1
 346 940 346 940 380 876 c 1,2,3
 394 852 394 852 394 824 c 0,4,5
 394 758 394 758 330 724 c 0,6,7
 306 712 306 712 276 712 c 0,8,9
 210 712 210 712 178 774 c 0,10,11
 166 796 166 796 166 824 c 0,12,13
 166 894 166 894 230 928 c 0,14,15
 254 940 254 940 278 940 c 0,0,1
278 204 m 0,16,17
 346 204 346 204 380 142 c 0,18,19
 394 116 394 116 394 88 c 0,20,21
 394 22 394 22 330 -10 c 0,22,23
 306 -22 306 -22 276 -22 c 0,24,25
 210 -22 210 -22 178 38 c 0,26,27
 166 62 166 62 166 88 c 0,28,29
 166 160 166 160 230 192 c 0,30,31
 254 204 254 204 278 204 c 0,16,17
EndSplineSet
EndChar

StartChar: semicolon
Encoding: 59 59 31
Width: 568
GlyphClass: 2
Flags: W
LayerCount: 2
Fore
SplineSet
340 -4 m 1,0,-1
 288 -12 l 1,1,-1
 284 -12 l 1,2,3
 174 4 174 4 164 94 c 1,4,5
 164 180 164 180 244 202 c 1,6,7
 262 208 262 208 284 208 c 0,8,9
 378 208 378 208 426 120 c 0,10,11
 448 78 448 78 448 26 c 0,12,13
 448 -122 448 -122 306 -236 c 1,14,15
 266 -266 266 -266 220 -288 c 1,16,-1
 200 -250 l 1,17,18
 368 -136 368 -136 368 -32 c 0,19,20
 368 -6 368 -6 340 -4 c 1,0,-1
278 940 m 0,21,22
 346 940 346 940 380 876 c 1,23,24
 394 852 394 852 394 824 c 0,25,26
 394 758 394 758 330 724 c 0,27,28
 306 712 306 712 276 712 c 0,29,30
 210 712 210 712 178 774 c 0,31,32
 166 796 166 796 166 824 c 0,33,34
 166 894 166 894 230 928 c 0,35,36
 254 940 254 940 278 940 c 0,21,22
EndSplineSet
EndChar

StartChar: less
Encoding: 60 60 32
Width: 1154
GlyphClass: 2
Flags: W
LayerCount: 2
Fore
SplineSet
1098 -20 m 1,0,-1
 58 450 l 1,1,-1
 58 586 l 1,2,-1
 1098 1056 l 1,3,-1
 1098 910 l 1,4,-1
 238 518 l 1,5,-1
 1098 126 l 1,6,-1
 1098 -20 l 1,0,-1
EndSplineSet
EndChar

StartChar: equal
Encoding: 61 61 33
Width: 1154
GlyphClass: 2
Flags: W
LayerCount: 2
Fore
SplineSet
1094 790 m 1,0,-1
 1094 656 l 1,1,-1
 62 656 l 1,2,-1
 62 790 l 1,3,-1
 1094 790 l 1,0,-1
1094 380 m 1,4,-1
 1094 246 l 1,5,-1
 62 246 l 1,6,-1
 62 380 l 1,7,-1
 1094 380 l 1,4,-1
EndSplineSet
EndChar

StartChar: greater
Encoding: 62 62 34
Width: 1154
GlyphClass: 2
Flags: W
LayerCount: 2
Fore
SplineSet
58 -20 m 1,0,-1
 58 126 l 1,1,-1
 918 518 l 1,2,-1
 58 910 l 1,3,-1
 58 1056 l 1,4,-1
 1098 586 l 1,5,-1
 1098 450 l 1,6,-1
 58 -20 l 1,0,-1
EndSplineSet
EndChar

StartChar: question
Encoding: 63 63 35
Width: 908
GlyphClass: 2
Flags: W
LayerCount: 2
Fore
SplineSet
472 1384 m 0,0,1
 664 1384 664 1384 774 1264 c 0,2,3
 848 1182 848 1182 848 1068 c 0,4,5
 848 926 848 926 712 750 c 0,6,7
 688 718 688 718 632 652 c 1,8,9
 534 528 534 528 504 364 c 1,10,11
 500 336 l 1,12,-1
 464 336 l 1,13,14
 468 494 468 494 526 626 c 2,15,-1
 584 758 l 2,16,17
 660 932 660 932 660 1078 c 0,18,19
 660 1210 660 1210 560 1284 c 0,20,21
 506 1324 506 1324 438 1324 c 0,22,23
 332 1324 332 1324 270 1258 c 1,24,25
 244 1226 244 1226 244 1196 c 0,26,27
 244 1178 244 1178 286 1124 c 0,28,29
 322 1078 322 1078 322 1044 c 0,30,31
 322 980 322 980 264 964 c 0,32,33
 252 960 252 960 238 960 c 0,34,35
 140 960 140 960 140 1088 c 0,36,37
 140 1244 140 1244 272 1330 c 1,38,39
 358 1384 358 1384 472 1384 c 0,0,1
486 202 m 0,40,41
 552 202 552 202 584 140 c 0,42,43
 596 116 596 116 596 90 c 0,44,45
 596 16 596 16 526 -8 c 1,46,47
 506 -16 506 -16 484 -16 c 0,48,49
 408 -16 408 -16 382 50 c 1,50,51
 376 68 376 68 376 88 c 0,52,53
 376 166 376 166 442 194 c 0,54,55
 462 202 462 202 486 202 c 0,40,41
EndSplineSet
EndChar

StartChar: at
Encoding: 64 64 36
Width: 1886
GlyphClass: 2
Flags: W
LayerCount: 2
Fore
SplineSet
988 1320 m 0,0,1
 714 1320 714 1320 548 1104 c 1,2,3
 410 920 410 920 410 662 c 0,4,5
 410 370 410 370 604 196 c 1,6,7
 768 52 768 52 1008 52 c 0,8,9
 1184 52 1184 52 1382 138 c 0,10,11
 1394 144 1394 144 1410 150 c 1,12,-1
 1434 88 l 1,13,14
 1202 -16 1202 -16 1052 -26 c 0,15,16
 1022 -28 1022 -28 990 -28 c 0,17,18
 670 -28 670 -28 452 174 c 1,19,20
 240 372 240 372 238 668 c 1,21,22
 238 958 238 958 446 1166 c 1,23,24
 654 1372 654 1372 956 1384 c 0,25,26
 970 1384 970 1384 986 1384 c 0,27,28
 1280 1384 1280 1384 1476 1200 c 1,29,30
 1656 1028 1656 1028 1656 784 c 0,31,32
 1656 564 1656 564 1524 414 c 0,33,34
 1416 292 1416 292 1280 292 c 0,35,36
 1162 292 1162 292 1112 386 c 0,37,38
 1098 412 1098 412 1094 442 c 1,39,40
 972 306 972 306 838 294 c 1,41,42
 740 294 740 294 686 398 c 0,43,44
 658 454 658 454 658 524 c 0,45,46
 658 712 658 712 770 872 c 1,47,48
 890 1040 890 1040 1058 1040 c 0,49,50
 1134 1040 1134 1040 1174 986 c 0,51,52
 1188 966 1188 966 1206 934 c 1,53,-1
 1226 1012 l 1,54,-1
 1368 1012 l 1,55,-1
 1234 492 l 1,56,57
 1230 466 1230 466 1230 454 c 0,58,59
 1230 360 1230 360 1310 360 c 0,60,61
 1418 360 1418 360 1500 496 c 0,62,63
 1574 618 1574 618 1574 764 c 0,64,65
 1574 996 1574 996 1398 1160 c 1,66,67
 1224 1320 1224 1320 988 1320 c 0,0,1
1172 832 m 1,68,69
 1162 942 1162 942 1082 950 c 1,70,71
 1002 950 1002 950 916 856 c 0,72,73
 802 732 802 732 802 558 c 0,74,75
 802 420 802 420 888 390 c 1,76,77
 906 382 906 382 926 382 c 0,78,79
 1028 382 1028 382 1108 560 c 0,80,81
 1172 700 1172 700 1172 832 c 1,68,69
EndSplineSet
EndChar

StartChar: A
Encoding: 65 65 37
Width: 1478
GlyphClass: 2
Flags: W
LayerCount: 2
Fore
SplineSet
1446 38 m 1,0,-1
 1446 0 l 1,1,-1
 924 0 l 1,2,-1
 924 38 l 1,3,4
 1048 40 1048 40 1062 84 c 1,5,6
 1068 94 1068 94 1068 108 c 0,7,8
 1068 158 1068 158 1028 246 c 1,9,-1
 944 442 l 1,10,-1
 408 442 l 1,11,-1
 314 202 l 1,12,13
 296 160 296 160 296 122 c 0,14,15
 296 40 296 40 436 38 c 1,16,-1
 436 0 l 1,17,-1
 30 0 l 1,18,-1
 30 38 l 1,19,20
 104 40 104 40 144 90 c 0,21,22
 188 146 188 146 284 374 c 2,23,-1
 710 1380 l 1,24,-1
 752 1380 l 1,25,-1
 1262 218 l 1,26,27
 1326 84 1326 84 1364 60 c 0,28,29
 1390 44 1390 44 1446 38 c 1,0,-1
442 526 m 1,30,-1
 916 526 l 1,31,-1
 678 1090 l 1,32,-1
 442 526 l 1,30,-1
EndSplineSet
EndChar

StartChar: B
Encoding: 66 66 38
Width: 1366
GlyphClass: 2
Flags: W
LayerCount: 2
Fore
SplineSet
1214 368 m 0,0,1
 1214 196 1214 196 1076 94 c 1,2,3
 946 0 946 0 718 0 c 2,4,-1
 34 0 l 1,5,-1
 34 38 l 1,6,7
 172 44 172 44 204 86 c 1,8,9
 232 118 232 118 232 224 c 2,10,-1
 232 1132 l 2,11,12
 232 1252 232 1252 192 1282 c 0,13,14
 158 1308 158 1308 34 1316 c 1,15,-1
 34 1356 l 1,16,-1
 608 1356 l 2,17,18
 1138 1356 1138 1356 1144 1008 c 1,19,20
 1144 786 1144 786 894 720 c 0,21,22
 912 724 912 724 864 712 c 1,23,24
 1058 664 1058 664 1138 574 c 1,25,26
 1214 492 1214 492 1214 368 c 0,0,1
570 76 m 0,27,28
 872 76 872 76 948 224 c 0,29,30
 978 282 978 282 978 366 c 0,31,32
 978 556 978 556 806 626 c 1,33,34
 708 668 708 668 440 668 c 1,35,-1
 440 160 l 2,36,37
 440 96 440 96 494 82 c 0,38,39
 520 76 520 76 570 76 c 0,27,28
440 750 m 1,40,-1
 634 750 l 2,41,42
 876 750 876 750 926 920 c 0,43,44
 936 956 936 956 936 1000 c 0,45,46
 936 1236 936 1236 672 1274 c 0,47,48
 626 1280 626 1280 576 1280 c 2,49,-1
 486 1280 l 2,50,51
 440 1280 440 1280 440 1218 c 2,52,-1
 440 750 l 1,40,-1
EndSplineSet
EndChar

StartChar: C
Encoding: 67 67 39
Width: 1366
GlyphClass: 2
Flags: W
LayerCount: 2
Fore
SplineSet
58 666 m 0,0,1
 58 1002 58 1002 276 1206 c 1,2,3
 468 1384 468 1384 744 1384 c 0,4,5
 882 1384 882 1384 1042 1334 c 1,6,7
 1096 1316 1096 1316 1122 1316 c 0,8,9
 1190 1316 1190 1316 1208 1384 c 1,10,-1
 1252 1384 l 1,11,-1
 1270 922 l 1,12,-1
 1222 922 l 1,13,14
 1110 1302 1110 1302 782 1302 c 0,15,16
 522 1302 522 1302 390 1082 c 1,17,18
 294 924 294 924 294 692 c 0,19,20
 294 236 294 236 588 104 c 1,21,22
 686 62 686 62 802 62 c 0,23,24
 1024 62 1024 62 1214 228 c 0,25,26
 1236 246 1236 246 1260 268 c 1,27,-1
 1296 232 l 1,28,29
 1132 14 1132 14 838 -22 c 0,30,31
 788 -28 788 -28 738 -28 c 0,32,33
 408 -28 408 -28 218 192 c 1,34,35
 58 380 58 380 58 666 c 0,0,1
EndSplineSet
EndChar

StartChar: D
Encoding: 68 68 40
Width: 1478
GlyphClass: 2
Flags: W
LayerCount: 2
Fore
SplineSet
1402 684 m 0,0,1
 1402 396 1402 396 1220 210 c 0,2,3
 1014 0 1014 0 614 0 c 2,4,-1
 32 0 l 1,5,-1
 32 38 l 1,6,7
 160 48 160 48 188 88 c 0,8,9
 212 122 212 122 212 224 c 2,10,-1
 212 1132 l 2,11,12
 212 1250 212 1250 180 1280 c 1,13,14
 150 1306 150 1306 32 1316 c 1,15,-1
 32 1356 l 1,16,-1
 586 1356 l 2,17,18
 1142 1356 1142 1356 1328 1006 c 1,19,20
 1402 862 1402 862 1402 684 c 0,0,1
1180 670 m 0,21,22
 1180 998 1180 998 964 1158 c 0,23,24
 800 1280 800 1280 528 1280 c 0,25,26
 442 1280 442 1280 428 1242 c 0,27,28
 422 1226 422 1226 422 1200 c 2,29,-1
 422 160 l 2,30,31
 422 94 422 94 472 82 c 1,32,33
 492 76 492 76 528 76 c 0,34,35
 1144 76 1144 76 1178 604 c 0,36,37
 1180 636 1180 636 1180 670 c 0,21,22
EndSplineSet
EndChar

StartChar: E
Encoding: 69 69 41
Width: 1250
GlyphClass: 2
Flags: W
LayerCount: 2
Fore
SplineSet
412 164 m 2,0,1
 412 106 412 106 442 92 c 0,2,3
 476 76 476 76 626 76 c 2,4,-1
 682 76 l 2,5,6
 920 76 920 76 1014 140 c 1,7,8
 1096 194 1096 194 1166 346 c 1,9,-1
 1222 346 l 1,10,-1
 1130 0 l 1,11,-1
 24 0 l 1,12,-1
 24 38 l 1,13,14
 152 48 152 48 180 94 c 0,15,16
 202 132 202 132 202 224 c 2,17,-1
 202 1132 l 2,18,19
 202 1252 202 1252 160 1284 c 1,20,21
 124 1308 124 1308 24 1316 c 1,22,-1
 24 1356 l 1,23,-1
 1112 1356 l 1,24,-1
 1118 1062 l 1,25,-1
 1068 1062 l 1,26,27
 1040 1200 1040 1200 986 1240 c 1,28,29
 930 1278 930 1278 756 1278 c 2,30,-1
 480 1278 l 2,31,32
 424 1278 424 1278 416 1248 c 0,33,34
 412 1234 412 1234 412 1208 c 2,35,-1
 412 754 l 1,36,-1
 728 754 l 2,37,38
 876 754 876 754 916 818 c 0,39,40
 936 850 936 850 952 948 c 1,41,-1
 1000 948 l 1,42,-1
 1000 474 l 1,43,-1
 952 474 l 1,44,45
 932 608 932 608 884 642 c 0,46,47
 846 670 846 670 728 670 c 2,48,-1
 412 670 l 1,49,-1
 412 164 l 2,0,1
EndSplineSet
EndChar

StartChar: F
Encoding: 70 70 42
Width: 1138
GlyphClass: 2
Flags: W
LayerCount: 2
Fore
SplineSet
980 474 m 1,0,-1
 934 474 l 1,1,2
 914 606 914 606 864 642 c 0,3,4
 824 670 824 670 708 670 c 2,5,-1
 412 670 l 1,6,-1
 412 224 l 2,7,8
 412 102 412 102 456 70 c 1,9,10
 492 46 492 46 598 38 c 1,11,-1
 598 0 l 1,12,-1
 24 0 l 1,13,-1
 24 38 l 1,14,15
 146 48 146 48 176 86 c 1,16,17
 202 122 202 122 202 246 c 2,18,-1
 202 1132 l 2,19,20
 202 1252 202 1252 160 1284 c 1,21,22
 124 1308 124 1308 24 1316 c 1,23,-1
 24 1356 l 1,24,-1
 1112 1356 l 1,25,-1
 1118 1062 l 1,26,-1
 1068 1062 l 1,27,28
 1040 1200 1040 1200 986 1240 c 1,29,30
 930 1278 930 1278 756 1278 c 2,31,-1
 478 1278 l 2,32,33
 424 1278 424 1278 416 1248 c 0,34,35
 412 1234 412 1234 412 1208 c 2,36,-1
 412 754 l 1,37,-1
 708 754 l 2,38,39
 844 754 844 754 884 800 c 0,40,41
 918 840 918 840 934 948 c 1,42,-1
 980 948 l 1,43,-1
 980 474 l 1,0,-1
EndSplineSet
EndChar

StartChar: G
Encoding: 71 71 43
Width: 1478
GlyphClass: 2
Flags: W
LayerCount: 2
Fore
SplineSet
802 1302 m 0,0,1
 476 1302 476 1302 354 984 c 1,2,3
 300 840 300 840 300 668 c 0,4,5
 300 308 300 308 520 148 c 0,6,7
 650 54 650 54 838 54 c 0,8,9
 1004 54 1004 54 1082 120 c 1,10,11
 1110 146 1110 146 1110 174 c 2,12,-1
 1110 506 l 2,13,14
 1110 628 1110 628 1068 660 c 1,15,16
 1036 680 1036 680 930 688 c 1,17,-1
 930 724 l 1,18,-1
 1452 724 l 1,19,-1
 1452 688 l 1,20,21
 1350 680 1350 680 1326 634 c 1,22,23
 1308 604 1308 604 1308 530 c 2,24,-1
 1308 114 l 1,25,26
 1222 38 1222 38 992 -6 c 0,27,28
 882 -28 882 -28 794 -28 c 0,29,30
 514 -28 514 -28 316 116 c 1,31,32
 66 302 66 302 66 666 c 0,33,34
 66 994 66 994 278 1198 c 1,35,36
 476 1384 476 1384 768 1384 c 0,37,38
 894 1384 894 1384 1058 1334 c 1,39,40
 1110 1316 1110 1316 1136 1316 c 0,41,42
 1200 1316 1200 1316 1224 1374 c 0,43,44
 1226 1378 1226 1378 1228 1384 c 1,45,-1
 1274 1384 l 1,46,-1
 1290 952 l 1,47,-1
 1244 952 l 1,48,49
 1150 1176 1150 1176 1016 1252 c 1,50,51
 924 1302 924 1302 802 1302 c 0,0,1
EndSplineSet
EndChar

StartChar: H
Encoding: 72 72 44
Width: 1478
GlyphClass: 2
Flags: W
LayerCount: 2
Fore
SplineSet
428 736 m 1,0,-1
 1048 736 l 1,1,-1
 1048 1132 l 2,2,3
 1048 1250 1048 1250 1012 1280 c 0,4,5
 980 1306 980 1306 868 1316 c 1,6,-1
 868 1356 l 1,7,-1
 1438 1356 l 1,8,-1
 1438 1316 l 1,9,10
 1310 1304 1310 1304 1282 1268 c 1,11,12
 1258 1234 1258 1234 1258 1132 c 2,13,-1
 1258 224 l 2,14,15
 1258 104 1258 104 1298 74 c 0,16,17
 1334 48 1334 48 1438 38 c 1,18,-1
 1438 0 l 1,19,-1
 868 0 l 1,20,-1
 868 38 l 1,21,22
 994 48 994 48 1022 86 c 0,23,24
 1048 120 1048 120 1048 246 c 2,25,-1
 1048 646 l 1,26,-1
 428 646 l 1,27,-1
 428 224 l 2,28,29
 428 104 428 104 468 74 c 0,30,31
 504 48 504 48 608 38 c 1,32,-1
 608 0 l 1,33,-1
 38 0 l 1,34,-1
 38 38 l 1,35,36
 164 48 164 48 192 86 c 1,37,38
 220 120 220 120 220 246 c 2,39,-1
 220 1132 l 2,40,41
 220 1250 220 1250 182 1280 c 1,42,43
 152 1306 152 1306 38 1316 c 1,44,-1
 38 1356 l 1,45,-1
 608 1356 l 1,46,-1
 608 1316 l 1,47,48
 482 1304 482 1304 452 1268 c 1,49,50
 428 1234 428 1234 428 1132 c 2,51,-1
 428 736 l 1,0,-1
EndSplineSet
EndChar

StartChar: I
Encoding: 73 73 45
Width: 680
GlyphClass: 2
Flags: W
LayerCount: 2
Fore
SplineSet
236 224 m 2,0,-1
 236 1132 l 2,1,2
 236 1252 236 1252 196 1282 c 0,3,4
 162 1308 162 1308 36 1316 c 1,5,-1
 36 1356 l 1,6,-1
 646 1356 l 1,7,-1
 646 1316 l 1,8,9
 506 1310 506 1310 474 1270 c 0,10,11
 444 1234 444 1234 444 1132 c 2,12,-1
 444 224 l 2,13,14
 444 102 444 102 492 70 c 0,15,16
 530 44 530 44 646 38 c 1,17,-1
 646 0 l 1,18,-1
 36 0 l 1,19,-1
 36 38 l 1,20,21
 176 44 176 44 208 84 c 1,22,23
 236 116 236 116 236 224 c 2,0,-1
EndSplineSet
EndChar

StartChar: J
Encoding: 74 74 46
Width: 796
GlyphClass: 2
Flags: W
LayerCount: 2
Fore
SplineSet
120 222 m 0,0,1
 188 222 188 222 220 142 c 1,2,3
 246 70 246 70 254 62 c 0,4,5
 266 50 266 50 282 50 c 0,6,7
 360 50 360 50 360 184 c 2,8,-1
 360 1132 l 2,9,10
 360 1250 360 1250 324 1280 c 0,11,12
 290 1308 290 1308 170 1316 c 1,13,-1
 170 1356 l 1,14,-1
 758 1356 l 1,15,-1
 758 1316 l 1,16,17
 624 1306 624 1306 594 1270 c 1,18,19
 570 1236 570 1236 570 1132 c 2,20,-1
 570 374 l 2,21,22
 570 80 570 80 370 -2 c 0,23,24
 306 -28 306 -28 224 -28 c 0,25,26
 88 -28 88 -28 38 56 c 1,27,28
 20 84 20 84 20 118 c 0,29,30
 20 184 20 184 80 212 c 0,31,32
 100 222 100 222 120 222 c 0,0,1
EndSplineSet
EndChar

StartChar: K
Encoding: 75 75 47
Width: 1478
GlyphClass: 2
Flags: W
LayerCount: 2
Fore
SplineSet
846 1316 m 1,0,-1
 846 1356 l 1,1,-1
 1382 1356 l 1,2,-1
 1382 1316 l 1,3,4
 1260 1308 1260 1308 1200 1270 c 1,5,6
 1156 1240 1156 1240 1072 1158 c 2,7,-1
 682 772 l 1,8,-1
 1160 260 l 2,9,10
 1316 92 1316 92 1372 62 c 0,11,12
 1414 40 1414 40 1480 38 c 1,13,-1
 1480 0 l 1,14,-1
 856 0 l 1,15,-1
 856 38 l 1,16,17
 880 40 880 40 914 40 c 1,18,19
 1000 46 1000 46 1000 86 c 0,20,21
 1000 152 1000 152 812 354 c 0,22,23
 774 394 774 394 734 434 c 2,24,-1
 516 650 l 1,25,-1
 462 606 l 1,26,-1
 462 224 l 2,27,28
 462 102 462 102 502 72 c 0,29,30
 536 46 536 46 648 38 c 1,31,-1
 648 0 l 1,32,-1
 70 0 l 1,33,-1
 70 38 l 1,34,35
 194 48 194 48 226 86 c 1,36,37
 254 122 254 122 254 246 c 2,38,-1
 254 1132 l 2,39,40
 254 1250 254 1250 216 1282 c 1,41,42
 180 1308 180 1308 70 1316 c 1,43,-1
 70 1356 l 1,44,-1
 652 1356 l 1,45,-1
 652 1316 l 1,46,47
 518 1306 518 1306 488 1270 c 1,48,49
 462 1236 462 1236 462 1132 c 2,50,-1
 462 712 l 1,51,-1
 826 1042 l 1,52,53
 986 1190 986 1190 986 1254 c 0,54,55
 986 1302 986 1302 924 1312 c 0,56,57
 914 1314 914 1314 900 1314 c 0,58,59
 870 1314 870 1314 846 1316 c 1,0,-1
EndSplineSet
EndChar

StartChar: L
Encoding: 76 76 48
Width: 1250
GlyphClass: 2
Flags: W
LayerCount: 2
Fore
SplineSet
724 80 m 2,0,1
 1034 80 1034 80 1134 270 c 0,2,3
 1140 282 1140 282 1174 356 c 1,4,-1
 1224 356 l 1,5,-1
 1126 0 l 1,6,-1
 24 0 l 1,7,-1
 24 38 l 1,8,9
 152 48 152 48 180 94 c 0,10,11
 202 132 202 132 202 224 c 2,12,-1
 202 1132 l 2,13,14
 202 1252 202 1252 160 1284 c 1,15,16
 124 1308 124 1308 24 1316 c 1,17,-1
 24 1356 l 1,18,-1
 602 1356 l 1,19,-1
 602 1316 l 1,20,21
 468 1308 468 1308 438 1266 c 0,22,23
 412 1230 412 1230 412 1132 c 2,24,-1
 412 164 l 2,25,26
 412 104 412 104 452 90 c 1,27,28
 488 80 488 80 588 80 c 2,29,-1
 724 80 l 2,0,1
EndSplineSet
EndChar

StartChar: M
Encoding: 77 77 49
Width: 1820
GlyphClass: 2
Flags: W
LayerCount: 2
Fore
SplineSet
1380 1174 m 1,0,-1
 856 0 l 1,1,-1
 828 0 l 1,2,-1
 314 1126 l 1,3,-1
 314 302 l 2,4,5
 314 124 314 124 364 80 c 0,6,7
 404 46 404 46 506 38 c 1,8,-1
 506 0 l 1,9,-1
 24 0 l 1,10,-1
 24 38 l 1,11,12
 156 50 156 50 190 98 c 1,13,14
 224 148 224 148 224 302 c 2,15,-1
 224 1132 l 2,16,17
 224 1252 224 1252 182 1282 c 1,18,19
 148 1308 148 1308 28 1316 c 1,20,-1
 28 1356 l 1,21,-1
 434 1356 l 1,22,-1
 908 322 l 1,23,-1
 1360 1356 l 1,24,-1
 1768 1356 l 1,25,-1
 1768 1316 l 1,26,27
 1642 1306 1642 1306 1614 1266 c 0,28,29
 1590 1230 1590 1230 1590 1132 c 2,30,-1
 1590 224 l 2,31,32
 1590 102 1590 102 1634 70 c 1,33,34
 1670 46 1670 46 1768 38 c 1,35,-1
 1768 0 l 1,36,-1
 1194 0 l 1,37,-1
 1194 38 l 1,38,39
 1320 48 1320 48 1352 86 c 1,40,41
 1380 122 1380 122 1380 246 c 2,42,-1
 1380 1174 l 1,0,-1
EndSplineSet
EndChar

StartChar: N
Encoding: 78 78 50
Width: 1478
GlyphClass: 2
Flags: W
LayerCount: 2
Fore
SplineSet
1448 1316 m 1,0,1
 1340 1306 1340 1306 1304 1272 c 1,2,3
 1254 1220 1254 1220 1254 1054 c 2,4,-1
 1254 -22 l 1,5,-1
 1218 -22 l 1,6,-1
 314 1104 l 1,7,-1
 314 302 l 2,8,9
 314 124 314 124 364 80 c 0,10,11
 404 46 404 46 506 38 c 1,12,-1
 506 0 l 1,13,-1
 24 0 l 1,14,-1
 24 38 l 1,15,16
 156 50 156 50 190 98 c 1,17,18
 224 148 224 148 224 302 c 2,19,-1
 224 1204 l 1,20,21
 148 1294 148 1294 98 1308 c 0,22,23
 72 1316 72 1316 24 1316 c 1,24,-1
 24 1356 l 1,25,-1
 374 1356 l 1,26,-1
 1164 364 l 1,27,-1
 1164 1054 l 2,28,29
 1164 1228 1164 1228 1110 1276 c 0,30,31
 1074 1308 1074 1308 966 1316 c 1,32,-1
 966 1356 l 1,33,-1
 1448 1356 l 1,34,-1
 1448 1316 l 1,0,1
EndSplineSet
EndChar

StartChar: O
Encoding: 79 79 51
Width: 1478
GlyphClass: 2
Flags: W
LayerCount: 2
Fore
SplineSet
728 -28 m 128,-1,1
 448 -28 448 -28 260 166 c 1,2,3
 70 366 70 366 70 678 c 0,4,5
 70 1006 70 1006 278 1206 c 0,6,7
 462 1384 462 1384 740 1384 c 0,8,9
 1050 1384 1050 1384 1240 1168 c 1,10,11
 1410 970 1410 970 1410 670 c 0,12,13
 1410 338 1410 338 1194 142 c 0,14,0
 1008 -28 1008 -28 728 -28 c 128,-1,1
1176 672 m 0,15,16
 1176 1122 1176 1122 926 1264 c 1,17,18
 840 1310 840 1310 740 1310 c 0,19,20
 448 1310 448 1310 346 984 c 1,21,22
 304 842 304 842 304 674 c 0,23,24
 304 372 304 372 432 196 c 0,25,26
 542 46 542 46 736 46 c 0,27,28
 1020 46 1020 46 1126 358 c 1,29,30
 1176 502 1176 502 1176 672 c 0,15,16
EndSplineSet
EndChar

StartChar: P
Encoding: 80 80 52
Width: 1138
GlyphClass: 2
Flags: W
LayerCount: 2
Fore
SplineSet
1110 986 m 0,0,1
 1110 744 1110 744 884 648 c 1,2,3
 754 590 754 590 556 590 c 0,4,5
 494 590 494 590 414 596 c 1,6,-1
 414 224 l 2,7,8
 414 102 414 102 458 70 c 1,9,10
 496 44 496 44 606 38 c 1,11,-1
 606 0 l 1,12,-1
 32 0 l 1,13,-1
 32 38 l 1,14,15
 152 50 152 50 178 86 c 1,16,17
 204 118 204 118 204 246 c 2,18,-1
 204 1132 l 2,19,20
 204 1252 204 1252 168 1280 c 1,21,22
 140 1304 140 1304 32 1316 c 1,23,-1
 32 1356 l 1,24,-1
 574 1356 l 2,25,26
 866 1356 866 1356 1012 1222 c 1,27,28
 1110 1130 1110 1130 1110 986 c 0,0,1
414 1210 m 2,29,-1
 414 678 l 1,30,31
 484 672 484 672 530 672 c 0,32,33
 886 672 886 672 886 972 c 0,34,35
 886 1220 886 1220 636 1268 c 0,36,37
 570 1280 570 1280 484 1280 c 0,38,39
 426 1280 426 1280 418 1246 c 0,40,41
 414 1232 414 1232 414 1210 c 2,29,-1
EndSplineSet
EndChar

StartChar: Q
Encoding: 81 81 53
Width: 1478
GlyphClass: 2
Flags: W
LayerCount: 2
Fore
SplineSet
1410 678 m 0,0,1
 1410 248 1410 248 1084 64 c 0,2,3
 980 6 980 6 872 -14 c 1,4,5
 1056 -254 1056 -254 1278 -306 c 0,6,7
 1352 -324 1352 -324 1436 -326 c 1,8,-1
 1436 -362 l 1,9,-1
 1424 -362 l 1,10,11
 1400 -364 1400 -364 1352 -364 c 0,12,13
 858 -364 858 -364 638 -114 c 1,14,-1
 542 -2 l 1,15,16
 200 114 200 114 104 430 c 0,17,18
 70 540 70 540 70 674 c 0,19,20
 70 1006 70 1006 280 1206 c 1,21,22
 464 1384 464 1384 740 1384 c 0,23,24
 1046 1384 1046 1384 1236 1170 c 1,25,26
 1410 972 1410 972 1410 678 c 0,0,1
1176 682 m 0,27,28
 1176 1040 1176 1040 998 1210 c 0,29,30
 892 1310 892 1310 746 1310 c 0,31,32
 456 1310 456 1310 350 994 c 0,33,34
 304 854 304 854 304 686 c 0,35,36
 304 232 304 232 552 92 c 1,37,38
 638 46 638 46 740 46 c 0,39,40
 1024 46 1024 46 1128 366 c 1,41,42
 1176 510 1176 510 1176 682 c 0,27,28
EndSplineSet
EndChar

StartChar: R
Encoding: 82 82 54
Width: 1366
GlyphClass: 2
Flags: W
LayerCount: 2
Fore
SplineSet
600 1356 m 2,0,1
 946 1356 946 1356 1068 1182 c 1,2,3
 1120 1104 1120 1104 1120 996 c 0,4,5
 1120 722 1120 722 766 656 c 0,6,7
 752 654 752 654 750 654 c 1,8,-1
 1172 136 l 1,9,10
 1240 56 1240 56 1314 44 c 1,11,12
 1332 40 1332 40 1350 38 c 1,13,-1
 1350 0 l 1,14,-1
 1020 0 l 1,15,-1
 532 630 l 1,16,-1
 418 626 l 1,17,-1
 418 224 l 2,18,19
 418 102 418 102 460 72 c 0,20,21
 496 46 496 46 602 38 c 1,22,-1
 602 0 l 1,23,-1
 34 0 l 1,24,-1
 34 38 l 1,25,26
 154 50 154 50 182 88 c 0,27,28
 208 122 208 122 208 246 c 2,29,-1
 208 1132 l 2,30,31
 208 1250 208 1250 172 1280 c 0,32,33
 142 1304 142 1304 34 1316 c 1,34,-1
 34 1356 l 1,35,-1
 600 1356 l 2,0,1
418 702 m 1,36,37
 722 708 722 708 822 798 c 0,38,39
 898 866 898 866 898 1000 c 0,40,41
 898 1230 898 1230 652 1270 c 0,42,43
 594 1280 594 1280 522 1280 c 0,44,45
 434 1280 434 1280 422 1242 c 1,46,47
 418 1226 418 1226 418 1206 c 2,48,-1
 418 702 l 1,36,37
EndSplineSet
EndChar

StartChar: S
Encoding: 83 83 55
Width: 1138
GlyphClass: 2
Flags: W
LayerCount: 2
Fore
SplineSet
798 276 m 0,0,1
 798 420 798 420 632 532 c 1,2,-1
 352 702 l 1,3,4
 162 832 162 832 148 1000 c 0,5,6
 146 1018 146 1018 146 1034 c 0,7,8
 146 1224 146 1224 296 1326 c 1,9,10
 388 1384 388 1384 500 1384 c 0,11,12
 590 1384 590 1384 732 1334 c 1,13,14
 782 1314 782 1314 806 1314 c 0,15,16
 860 1314 860 1314 872 1384 c 1,17,-1
 916 1384 l 1,18,-1
 960 948 l 1,19,-1
 910 948 l 1,20,21
 836 1220 836 1220 636 1284 c 0,22,23
 588 1300 588 1300 534 1300 c 0,24,25
 396 1300 396 1300 342 1198 c 0,26,27
 322 1160 322 1160 322 1110 c 0,28,29
 322 988 322 988 492 870 c 0,30,31
 544 834 544 834 622 790 c 1,32,33
 928 626 928 626 988 452 c 0,34,35
 1006 402 1006 402 1006 344 c 0,36,37
 1006 164 1006 164 854 56 c 1,38,39
 742 -28 742 -28 588 -28 c 0,40,41
 482 -28 482 -28 336 22 c 1,42,43
 278 40 278 40 250 40 c 0,44,45
 206 40 206 40 194 -10 c 0,46,47
 192 -18 192 -18 192 -26 c 1,48,-1
 148 -26 l 1,49,-1
 86 408 l 1,50,-1
 134 408 l 1,51,52
 260 98 260 98 464 54 c 0,53,54
 504 46 504 46 546 46 c 0,55,56
 704 46 704 46 770 160 c 0,57,58
 798 210 798 210 798 276 c 0,0,1
EndSplineSet
EndChar

StartChar: T
Encoding: 84 84 56
Width: 1250
GlyphClass: 2
Flags: W
LayerCount: 2
Fore
SplineSet
520 1270 m 1,0,-1
 410 1270 l 2,1,2
 234 1270 234 1270 174 1218 c 0,3,4
 120 1172 120 1172 84 1008 c 1,5,-1
 34 1008 l 1,6,-1
 48 1356 l 1,7,-1
 1202 1356 l 1,8,-1
 1214 1008 l 1,9,-1
 1166 1008 l 1,10,11
 1130 1176 1130 1176 1074 1222 c 0,12,13
 1016 1270 1016 1270 840 1270 c 2,14,-1
 730 1270 l 1,15,-1
 730 224 l 2,16,17
 730 104 730 104 772 72 c 1,18,19
 808 46 808 46 926 38 c 1,20,-1
 926 0 l 1,21,-1
 328 0 l 1,22,-1
 328 38 l 1,23,24
 458 48 458 48 490 84 c 0,25,26
 520 118 520 118 520 246 c 2,27,-1
 520 1270 l 1,0,-1
EndSplineSet
EndChar

StartChar: U
Encoding: 85 85 57
Width: 1478
GlyphClass: 2
Flags: W
LayerCount: 2
Fore
SplineSet
422 478 m 2,0,1
 422 196 422 196 564 110 c 0,2,3
 644 62 644 62 774 62 c 0,4,5
 970 62 970 62 1080 174 c 1,6,7
 1100 198 1100 198 1114 224 c 0,8,9
 1162 312 1162 312 1162 502 c 2,10,-1
 1162 1054 l 2,11,12
 1162 1226 1162 1226 1112 1272 c 0,13,14
 1074 1308 1074 1308 968 1316 c 1,15,-1
 968 1356 l 1,16,-1
 1444 1356 l 1,17,-1
 1444 1316 l 1,18,19
 1316 1300 1316 1300 1284 1258 c 1,20,21
 1252 1210 1252 1210 1252 1054 c 2,22,-1
 1252 520 l 2,23,24
 1252 172 1252 172 1058 50 c 1,25,26
 936 -28 936 -28 728 -28 c 0,27,28
 292 -28 292 -28 226 338 c 1,29,30
 212 408 212 408 212 494 c 2,31,-1
 212 1132 l 2,32,33
 212 1252 212 1252 176 1282 c 0,34,35
 144 1308 144 1308 28 1316 c 1,36,-1
 28 1356 l 1,37,-1
 608 1356 l 1,38,-1
 608 1316 l 1,39,40
 478 1304 478 1304 448 1268 c 0,41,42
 422 1236 422 1236 422 1132 c 2,43,-1
 422 478 l 2,0,1
EndSplineSet
EndChar

StartChar: V
Encoding: 86 86 58
Width: 1478
GlyphClass: 2
Flags: W
LayerCount: 2
Fore
SplineSet
1428 1356 m 1,0,-1
 1428 1316 l 1,1,2
 1346 1312 1346 1312 1310 1270 c 1,3,4
 1282 1234 1282 1234 1240 1126 c 2,5,-1
 784 -22 l 1,6,-1
 754 -22 l 1,7,-1
 250 1102 l 2,8,9
 178 1264 178 1264 124 1294 c 1,10,11
 92 1314 92 1314 32 1316 c 1,12,-1
 32 1356 l 1,13,-1
 578 1356 l 1,14,-1
 578 1316 l 1,15,16
 520 1312 520 1312 518 1312 c 0,17,18
 424 1306 424 1306 424 1250 c 0,19,20
 424 1208 424 1208 508 1022 c 2,21,-1
 818 330 l 1,22,-1
 1118 1082 l 2,23,24
 1158 1180 1158 1180 1158 1230 c 0,25,26
 1158 1292 1158 1292 1084 1308 c 0,27,28
 1054 1314 1054 1314 1008 1316 c 1,29,-1
 1008 1356 l 1,30,-1
 1428 1356 l 1,0,-1
EndSplineSet
EndChar

StartChar: W
Encoding: 87 87 59
Width: 1932
GlyphClass: 2
Flags: W
LayerCount: 2
Fore
SplineSet
1908 1356 m 1,0,-1
 1908 1316 l 1,1,2
 1812 1298 1812 1298 1782 1260 c 0,3,4
 1762 1234 1762 1234 1738 1172 c 1,5,6
 1506 542 1506 542 1370 126 c 0,7,8
 1350 68 1350 68 1320 -22 c 1,9,-1
 1290 -22 l 1,10,-1
 962 844 l 1,11,-1
 648 -22 l 1,12,-1
 616 -22 l 1,13,-1
 222 1078 l 2,14,15
 160 1252 160 1252 102 1288 c 1,16,17
 72 1310 72 1310 10 1316 c 1,18,-1
 10 1356 l 1,19,-1
 512 1356 l 1,20,-1
 512 1316 l 1,21,22
 398 1310 398 1310 382 1274 c 0,23,24
 378 1266 378 1266 378 1252 c 0,25,26
 378 1214 378 1214 402 1158 c 1,27,-1
 696 388 l 1,28,-1
 916 964 l 1,29,-1
 848 1132 l 1,30,31
 794 1270 794 1270 750 1296 c 0,32,33
 718 1314 718 1314 642 1316 c 1,34,-1
 642 1356 l 1,35,-1
 1188 1356 l 1,36,-1
 1188 1316 l 1,37,38
 1036 1314 1036 1314 1030 1246 c 1,39,40
 1030 1220 1030 1220 1082 1092 c 1,41,42
 1086 1080 l 1,43,-1
 1356 380 l 1,44,-1
 1612 1076 l 1,45,46
 1644 1168 1644 1168 1644 1228 c 128,-1,47
 1644 1288 1644 1288 1568 1306 c 0,48,49
 1542 1312 1542 1312 1504 1316 c 1,50,-1
 1504 1356 l 1,51,-1
 1908 1356 l 1,0,-1
EndSplineSet
EndChar

StartChar: X
Encoding: 88 88 60
Width: 1478
GlyphClass: 2
Flags: W
LayerCount: 2
Fore
SplineSet
1426 1356 m 1,0,-1
 1426 1316 l 1,1,2
 1312 1310 1312 1310 1252 1264 c 0,3,4
 1202 1226 1202 1226 1120 1124 c 2,5,-1
 822 752 l 1,6,-1
 1214 190 l 2,7,8
 1288 84 1288 84 1346 60 c 1,9,10
 1378 48 1378 48 1442 38 c 1,11,-1
 1442 0 l 1,12,-1
 834 0 l 1,13,-1
 834 38 l 1,14,15
 882 44 882 44 888 44 c 0,16,17
 992 46 992 46 992 102 c 0,18,19
 992 148 992 148 886 304 c 2,20,-1
 692 590 l 1,21,-1
 448 286 l 2,22,23
 342 154 342 154 342 110 c 128,-1,24
 342 66 342 66 404 52 c 0,25,26
 436 44 436 44 498 38 c 1,27,-1
 498 0 l 1,28,-1
 20 0 l 1,29,-1
 20 38 l 1,30,31
 100 46 100 46 142 76 c 1,32,33
 186 110 186 110 318 272 c 2,34,-1
 638 668 l 1,35,-1
 416 996 l 2,36,37
 258 1228 258 1228 186 1278 c 0,38,39
 138 1312 138 1312 46 1316 c 1,40,-1
 46 1356 l 1,41,-1
 664 1356 l 1,42,-1
 664 1316 l 1,43,-1
 606 1314 l 1,44,45
 508 1312 508 1312 508 1256 c 0,46,47
 508 1190 508 1190 682 948 c 2,48,-1
 768 828 l 1,49,-1
 1000 1110 l 1,50,51
 1082 1212 1082 1212 1082 1252 c 0,52,53
 1082 1296 1082 1296 1026 1308 c 0,54,55
 996 1314 996 1314 938 1316 c 1,56,-1
 938 1356 l 1,57,-1
 1426 1356 l 1,0,-1
EndSplineSet
EndChar

StartChar: Y
Encoding: 89 89 61
Width: 1478
GlyphClass: 2
Flags: W
LayerCount: 2
Fore
SplineSet
1440 1356 m 1,0,-1
 1440 1316 l 1,1,2
 1342 1308 1342 1308 1268 1232 c 0,3,4
 1222 1184 1222 1184 1158 1084 c 1,5,-1
 854 620 l 1,6,-1
 854 224 l 2,7,8
 854 102 854 102 894 70 c 1,9,10
 934 40 934 40 1064 38 c 1,11,-1
 1064 0 l 1,12,-1
 438 0 l 1,13,-1
 438 38 l 1,14,15
 580 46 580 46 612 80 c 1,16,17
 646 112 646 112 646 246 c 2,18,-1
 646 602 l 1,19,-1
 376 996 l 1,20,21
 210 1242 210 1242 148 1286 c 0,22,23
 108 1314 108 1314 46 1316 c 1,24,-1
 46 1356 l 1,25,-1
 618 1356 l 1,26,-1
 618 1316 l 1,27,28
 596 1314 596 1314 568 1314 c 1,29,30
 474 1308 474 1308 474 1256 c 0,31,32
 474 1216 474 1216 508 1166 c 2,33,-1
 812 710 l 1,34,-1
 1104 1174 l 2,35,36
 1132 1220 1132 1220 1132 1250 c 0,37,38
 1132 1298 1132 1298 1074 1310 c 0,39,40
 1042 1316 1042 1316 992 1316 c 1,41,-1
 992 1356 l 1,42,-1
 1440 1356 l 1,0,-1
EndSplineSet
EndChar

StartChar: Z
Encoding: 90 90 62
Width: 1250
GlyphClass: 2
Flags: W
LayerCount: 2
Fore
SplineSet
824 78 m 2,0,1
 1048 78 1048 78 1126 224 c 1,2,3
 1144 260 1144 260 1176 360 c 1,4,-1
 1222 360 l 1,5,-1
 1174 0 l 1,6,-1
 18 0 l 1,7,-1
 18 30 l 1,8,-1
 914 1278 l 1,9,-1
 460 1278 l 2,10,11
 220 1278 220 1278 154 1142 c 0,12,13
 134 1100 134 1100 116 1006 c 1,14,-1
 64 1006 l 1,15,-1
 104 1356 l 1,16,-1
 1182 1356 l 1,17,-1
 1182 1326 l 1,18,-1
 296 78 l 1,19,-1
 824 78 l 2,0,1
EndSplineSet
EndChar

StartChar: bracketleft
Encoding: 91 91 63
Width: 680
GlyphClass: 2
Flags: W
LayerCount: 2
Fore
SplineSet
612 -268 m 1,0,-1
 612 -320 l 1,1,-1
 180 -320 l 1,2,-1
 180 1356 l 1,3,-1
 612 1356 l 1,4,-1
 612 1304 l 1,5,-1
 428 1304 l 1,6,7
 342 1288 342 1288 336 1214 c 1,8,-1
 336 -162 l 2,9,10
 336 -268 336 -268 436 -268 c 2,11,-1
 612 -268 l 1,0,-1
EndSplineSet
EndChar

StartChar: backslash
Encoding: 92 92 64
Width: 568
GlyphClass: 2
Flags: W
LayerCount: 2
Fore
SplineSet
-18 1384 m 1,0,-1
 118 1384 l 1,1,-1
 588 -28 l 1,2,-1
 448 -28 l 1,3,-1
 -18 1384 l 1,0,-1
EndSplineSet
EndChar

StartChar: bracketright
Encoding: 93 93 65
Width: 680
GlyphClass: 2
Flags: W
LayerCount: 2
Fore
SplineSet
70 -268 m 1,0,-1
 254 -268 l 1,1,2
 342 -260 342 -260 346 -178 c 1,3,-1
 346 1198 l 2,4,5
 346 1304 346 1304 246 1304 c 2,6,-1
 70 1304 l 1,7,-1
 70 1356 l 1,8,-1
 502 1356 l 1,9,-1
 502 -320 l 1,10,-1
 70 -320 l 1,11,-1
 70 -268 l 1,0,-1
EndSplineSet
EndChar

StartChar: asciicircum
Encoding: 94 94 66
Width: 960
GlyphClass: 2
Flags: W
LayerCount: 2
Fore
SplineSet
188 608 m 1,0,-1
 50 608 l 1,1,-1
 420 1356 l 1,2,-1
 542 1356 l 1,3,-1
 914 608 l 1,4,-1
 774 608 l 1,5,-1
 482 1200 l 1,6,-1
 188 608 l 1,0,-1
EndSplineSet
EndChar

StartChar: underscore
Encoding: 95 95 67
Width: 1024
GlyphClass: 2
Flags: W
LayerCount: 2
Fore
SplineSet
1024 -256 m 1,0,-1
 0 -256 l 1,1,-1
 0 -154 l 1,2,-1
 1024 -154 l 1,3,-1
 1024 -256 l 1,0,-1
EndSplineSet
EndChar

StartChar: grave
Encoding: 96 96 68
Width: 680
GlyphClass: 2
Flags: W
LayerCount: 2
Fore
SplineSet
496 1038 m 1,0,-1
 414 1038 l 1,1,-1
 98 1236 l 1,2,3
 38 1276 38 1276 38 1326 c 1,4,5
 50 1382 50 1382 108 1388 c 1,6,7
 148 1388 148 1388 194 1342 c 2,8,-1
 496 1038 l 1,0,-1
EndSplineSet
EndChar

StartChar: a
Encoding: 97 97 69
Width: 908
GlyphClass: 2
Flags: W
LayerCount: 2
Fore
SplineSet
76 198 m 0,0,1
 76 356 76 356 272 462 c 1,2,3
 328 494 328 494 580 594 c 1,4,5
 588 598 l 1,6,-1
 588 722 l 1,7,8
 574 884 574 884 432 892 c 1,9,10
 334 892 334 892 296 832 c 0,11,12
 284 814 284 814 284 792 c 1,13,-1
 294 712 l 1,14,-1
 294 710 l 2,15,16
 294 658 294 658 240 632 c 0,17,18
 222 624 222 624 202 624 c 0,19,20
 146 624 146 624 122 678 c 0,21,22
 114 694 114 694 114 712 c 0,23,24
 114 828 114 828 248 894 c 1,25,26
 340 942 340 942 458 942 c 0,27,28
 680 942 680 942 734 784 c 1,29,30
 754 718 754 718 754 614 c 2,31,-1
 754 216 l 2,32,33
 754 110 754 110 792 98 c 1,34,35
 802 96 802 96 816 96 c 0,36,37
 858 96 858 96 906 136 c 1,38,-1
 906 82 l 1,39,40
 822 -10 822 -10 752 -18 c 0,41,42
 738 -20 738 -20 720 -20 c 0,43,44
 622 -20 622 -20 598 74 c 0,45,46
 592 98 592 98 590 130 c 1,47,48
 408 -14 408 -14 290 -20 c 1,49,50
 160 -20 160 -20 102 86 c 1,51,52
 76 138 76 138 76 198 c 0,0,1
588 252 m 2,53,-1
 588 548 l 1,54,55
 334 456 334 456 278 358 c 0,56,57
 256 318 256 318 256 264 c 2,58,-1
 256 256 l 2,59,60
 256 158 256 158 328 114 c 0,61,62
 354 98 354 98 386 98 c 0,63,64
 454 98 454 98 534 146 c 1,65,66
 580 172 580 172 586 210 c 0,67,68
 588 228 588 228 588 252 c 2,53,-1
EndSplineSet
EndChar

StartChar: b
Encoding: 98 98 70
Width: 1024
GlyphClass: 2
Flags: W
LayerCount: 2
Fore
SplineSet
314 1394 m 1,0,-1
 314 768 l 1,1,2
 356 874 356 874 484 922 c 0,3,4
 538 942 538 942 598 942 c 0,5,6
 770 942 770 942 876 786 c 0,7,8
 958 664 958 664 958 498 c 0,9,10
 958 256 958 256 796 104 c 0,11,12
 664 -20 664 -20 480 -20 c 0,13,14
 310 -20 310 -20 196 48 c 1,15,16
 142 78 142 78 142 110 c 2,17,-1
 142 1174 l 2,18,19
 142 1256 142 1256 102 1270 c 1,20,21
 84 1278 84 1278 40 1278 c 0,22,23
 18 1278 18 1278 6 1276 c 1,24,-1
 6 1308 l 1,25,-1
 66 1326 l 1,26,27
 202 1364 202 1364 304 1398 c 1,28,-1
 314 1394 l 1,0,-1
314 660 m 2,29,-1
 314 144 l 2,30,31
 314 94 314 94 402 64 c 0,32,33
 452 46 452 46 512 46 c 0,34,35
 698 46 698 46 756 240 c 0,36,37
 778 312 778 312 778 404 c 0,38,39
 778 672 778 672 644 772 c 0,40,41
 588 814 588 814 516 814 c 0,42,43
 408 814 408 814 344 738 c 1,44,45
 314 700 314 700 314 660 c 2,29,-1
EndSplineSet
EndChar

StartChar: c
Encoding: 99 99 71
Width: 908
GlyphClass: 2
Flags: W
LayerCount: 2
Fore
SplineSet
52 436 m 0,0,1
 52 696 52 696 228 842 c 0,2,3
 348 942 348 942 500 942 c 0,4,5
 668 942 668 942 762 848 c 0,6,7
 816 794 816 794 816 732 c 0,8,9
 816 676 816 676 758 654 c 0,10,11
 738 646 738 646 716 646 c 0,12,13
 654 646 654 646 624 730 c 0,14,15
 622 734 622 734 620 740 c 2,16,-1
 608 784 l 1,17,18
 588 862 588 862 538 876 c 0,19,20
 518 882 518 882 488 882 c 0,21,22
 332 882 332 882 254 734 c 0,23,24
 208 646 208 646 208 526 c 0,25,26
 208 300 208 300 346 188 c 1,27,28
 424 126 424 126 526 126 c 0,29,30
 654 126 654 126 746 230 c 1,31,32
 778 264 778 264 816 320 c 1,33,-1
 844 302 l 1,34,35
 730 80 730 80 588 12 c 1,36,37
 518 -20 518 -20 440 -20 c 0,38,39
 244 -20 244 -20 132 146 c 0,40,41
 52 266 52 266 52 436 c 0,0,1
EndSplineSet
EndChar

StartChar: d
Encoding: 100 100 72
Width: 1024
GlyphClass: 2
Flags: W
LayerCount: 2
Fore
SplineSet
704 -20 m 1,0,-1
 696 -14 l 1,1,-1
 696 116 l 1,2,3
 588 -16 588 -16 434 -20 c 1,4,5
 232 -20 232 -20 124 150 c 1,6,7
 56 262 56 262 56 420 c 0,8,9
 56 664 56 664 204 820 c 1,10,11
 324 942 324 942 482 942 c 0,12,13
 586 942 586 942 682 866 c 0,14,15
 688 860 688 860 696 854 c 1,16,-1
 696 1174 l 2,17,18
 696 1256 696 1256 658 1270 c 0,19,20
 638 1278 638 1278 602 1278 c 0,21,22
 574 1278 574 1278 558 1276 c 1,23,-1
 558 1308 l 1,24,25
 744 1358 744 1358 858 1398 c 1,26,-1
 868 1394 l 1,27,-1
 868 234 l 2,28,29
 868 142 868 142 906 124 c 0,30,31
 922 116 922 116 958 116 c 0,32,33
 968 116 968 116 1006 118 c 1,34,-1
 1006 86 l 1,35,-1
 704 -20 l 1,0,-1
514 86 m 0,36,37
 620 86 620 86 678 166 c 0,38,39
 696 190 696 190 696 208 c 2,40,-1
 696 680 l 2,41,42
 696 782 696 782 604 848 c 1,43,44
 548 884 548 884 488 884 c 0,45,46
 336 884 336 884 268 718 c 1,47,48
 232 626 232 626 232 502 c 0,49,50
 232 242 232 242 368 136 c 0,51,52
 432 86 432 86 514 86 c 0,36,37
EndSplineSet
EndChar

StartChar: e
Encoding: 101 101 73
Width: 908
GlyphClass: 2
Flags: W
LayerCount: 2
Fore
SplineSet
198 568 m 1,0,1
 210 196 210 196 434 134 c 1,2,3
 476 120 476 120 518 120 c 0,4,5
 668 120 668 120 774 250 c 0,6,7
 802 284 802 284 836 336 c 1,8,-1
 868 322 l 1,9,10
 756 32 756 32 516 -12 c 1,11,12
 478 -20 478 -20 434 -20 c 0,13,14
 206 -20 206 -20 108 174 c 0,15,16
 52 284 52 284 52 438 c 0,17,18
 52 710 52 710 222 852 c 0,19,20
 330 942 330 942 480 942 c 0,21,22
 762 942 762 942 822 622 c 0,23,24
 826 596 826 596 830 568 c 1,25,-1
 198 568 l 1,0,1
202 632 m 1,26,-1
 620 632 l 1,27,28
 594 808 594 808 518 848 c 0,29,30
 482 868 482 868 420 868 c 0,31,32
 236 868 236 868 202 632 c 1,26,-1
EndSplineSet
EndChar

StartChar: f
Encoding: 102 102 74
Width: 680
GlyphClass: 2
Flags: W
LayerCount: 2
Fore
SplineSet
698 1188 m 0,0,1
 652 1188 652 1188 614 1252 c 1,2,3
 574 1316 574 1316 544 1332 c 0,4,5
 524 1342 524 1342 498 1342 c 0,6,7
 380 1342 380 1342 380 1160 c 2,8,-1
 380 922 l 1,9,-1
 632 922 l 1,10,-1
 632 856 l 1,11,-1
 382 856 l 1,12,-1
 382 212 l 2,13,14
 382 92 382 92 420 64 c 1,15,16
 452 34 452 34 574 30 c 1,17,-1
 574 0 l 1,18,-1
 40 0 l 1,19,-1
 40 30 l 1,20,21
 160 36 160 36 188 78 c 0,22,23
 210 110 210 110 210 212 c 2,24,-1
 210 856 l 1,25,-1
 44 856 l 1,26,-1
 44 922 l 1,27,-1
 210 922 l 1,28,29
 218 1314 218 1314 450 1382 c 0,30,31
 504 1398 504 1398 572 1398 c 0,32,33
 714 1398 714 1398 768 1326 c 1,34,35
 784 1300 784 1300 784 1272 c 0,36,37
 784 1214 784 1214 732 1194 c 0,38,39
 714 1188 714 1188 698 1188 c 0,0,1
EndSplineSet
EndChar

StartChar: g
Encoding: 103 103 75
Width: 1024
GlyphClass: 2
Flags: W
LayerCount: 2
Fore
SplineSet
150 110 m 0,0,1
 150 154 150 154 196 204 c 1,2,3
 224 232 224 232 332 334 c 1,4,5
 176 412 176 412 150 534 c 0,6,7
 142 568 142 568 142 608 c 0,8,9
 142 772 142 772 272 872 c 0,10,11
 364 942 364 942 484 942 c 0,12,13
 566 942 566 942 648 912 c 1,14,-1
 692 894 l 1,15,16
 752 874 752 874 804 874 c 2,17,-1
 962 874 l 1,18,-1
 962 794 l 1,19,-1
 792 794 l 1,20,21
 832 706 832 706 832 622 c 0,22,23
 832 448 832 448 692 358 c 0,24,25
 610 306 610 306 512 306 c 0,26,27
 492 306 492 306 434 312 c 0,28,29
 432 312 432 312 396 316 c 1,30,31
 334 296 334 296 290 232 c 1,32,33
 272 204 272 204 272 186 c 0,34,35
 272 138 272 138 432 132 c 1,36,-1
 696 118 l 1,37,38
 866 112 866 112 924 -6 c 1,39,40
 944 -50 944 -50 944 -100 c 0,41,42
 944 -216 944 -216 832 -308 c 1,43,44
 678 -432 678 -432 452 -444 c 0,45,46
 432 -446 432 -446 412 -446 c 0,47,48
 220 -446 220 -446 112 -354 c 1,49,50
 58 -306 58 -306 58 -248 c 0,51,52
 58 -160 58 -160 190 -50 c 0,53,54
 220 -26 220 -26 258 2 c 1,55,56
 164 48 164 48 152 88 c 0,57,58
 150 98 150 98 150 110 c 0,0,1
302 -4 m 1,59,60
 208 -112 208 -112 202 -156 c 0,61,62
 200 -166 200 -166 200 -180 c 0,63,64
 200 -270 200 -270 336 -310 c 0,65,66
 406 -330 406 -330 500 -330 c 0,67,68
 756 -330 756 -330 850 -224 c 0,69,70
 886 -182 886 -182 886 -132 c 0,71,72
 886 -60 886 -60 786 -40 c 0,73,74
 732 -30 732 -30 632 -30 c 0,75,76
 426 -30 426 -30 302 -4 c 1,59,60
674 542 m 0,77,78
 674 674 674 674 618 778 c 0,79,80
 562 884 562 884 462 884 c 0,81,82
 348 884 348 884 320 762 c 1,83,84
 312 732 312 732 312 692 c 2,85,-1
 312 686 l 2,86,87
 312 476 312 476 420 392 c 1,88,89
 464 356 464 356 520 356 c 0,90,91
 630 356 630 356 664 466 c 1,92,93
 674 502 674 502 674 542 c 0,77,78
EndSplineSet
EndChar

StartChar: h
Encoding: 104 104 76
Width: 1024
GlyphClass: 2
Flags: W
LayerCount: 2
Fore
SplineSet
322 702 m 1,0,-1
 322 208 l 2,1,2
 322 88 322 88 358 60 c 0,3,4
 386 38 386 38 460 30 c 1,5,-1
 460 0 l 1,6,-1
 18 0 l 1,7,-1
 18 30 l 1,8,9
 110 44 110 44 132 76 c 1,10,11
 150 106 150 106 150 208 c 2,12,-1
 150 1174 l 2,13,14
 150 1254 150 1254 116 1268 c 1,15,16
 96 1278 96 1278 46 1278 c 0,17,18
 28 1278 28 1278 20 1276 c 1,19,-1
 20 1308 l 1,20,-1
 76 1326 l 1,21,22
 216 1364 216 1364 312 1398 c 1,23,-1
 322 1392 l 1,24,-1
 322 770 l 1,25,26
 438 922 438 922 576 940 c 0,27,28
 598 942 598 942 622 942 c 0,29,30
 874 942 874 942 874 616 c 2,31,-1
 874 208 l 2,32,33
 874 92 874 92 904 66 c 1,34,35
 924 46 924 46 998 30 c 1,36,-1
 998 0 l 1,37,-1
 564 0 l 1,38,-1
 564 30 l 1,39,40
 662 40 662 40 684 82 c 0,41,42
 702 116 702 116 702 208 c 2,43,-1
 702 614 l 2,44,45
 702 832 702 832 548 832 c 0,46,47
 448 832 448 832 346 730 c 1,48,49
 322 702 l 1,0,-1
EndSplineSet
EndChar

StartChar: i
Encoding: 105 105 77
Width: 568
GlyphClass: 2
Flags: W
LayerCount: 2
Fore
SplineSet
126 806 m 0,0,1
 102 806 102 806 40 798 c 1,2,-1
 40 830 l 1,3,-1
 358 942 l 1,4,-1
 366 936 l 1,5,-1
 366 208 l 2,6,7
 366 90 366 90 400 62 c 1,8,9
 426 36 426 36 518 30 c 1,10,-1
 518 0 l 1,11,-1
 32 0 l 1,12,-1
 32 30 l 1,13,14
 146 36 146 36 172 74 c 0,15,16
 194 106 194 106 194 208 c 2,17,-1
 194 684 l 2,18,19
 194 796 194 796 144 804 c 0,20,21
 136 806 136 806 126 806 c 0,0,1
262 1398 m 0,22,23
 330 1398 330 1398 358 1338 c 0,24,25
 368 1316 368 1316 368 1294 c 0,26,27
 368 1224 368 1224 304 1198 c 0,28,29
 284 1190 284 1190 262 1190 c 0,30,31
 194 1190 194 1190 168 1254 c 0,32,33
 160 1272 160 1272 160 1294 c 0,34,35
 160 1360 160 1360 220 1388 c 0,36,37
 240 1398 240 1398 262 1398 c 0,22,23
EndSplineSet
EndChar

StartChar: j
Encoding: 106 106 78
Width: 568
GlyphClass: 2
Flags: W
LayerCount: 2
Fore
SplineSet
158 806 m 1,0,1
 108 806 108 806 66 798 c 1,2,-1
 66 832 l 1,3,4
 230 882 230 882 386 942 c 1,5,-1
 396 936 l 1,6,-1
 396 0 l 2,7,8
 396 -376 396 -376 142 -436 c 0,9,10
 98 -446 98 -446 50 -446 c 0,11,12
 -86 -446 -86 -446 -132 -376 c 0,13,14
 -144 -356 -144 -356 -144 -334 c 0,15,16
 -144 -276 -144 -276 -88 -258 c 0,17,18
 -74 -254 -74 -254 -60 -254 c 0,19,20
 -16 -254 -16 -254 34 -316 c 1,21,22
 84 -374 84 -374 124 -376 c 1,23,24
 194 -376 194 -376 212 -278 c 1,25,26
 224 -222 224 -222 224 -92 c 2,27,-1
 224 684 l 1,28,29
 212 798 212 798 158 806 c 1,0,1
290 1398 m 0,30,31
 358 1398 358 1398 388 1338 c 0,32,33
 398 1316 398 1316 398 1294 c 0,34,35
 398 1224 398 1224 332 1198 c 0,36,37
 314 1190 314 1190 290 1190 c 0,38,39
 224 1190 224 1190 196 1254 c 0,40,41
 188 1272 188 1272 188 1294 c 0,42,43
 188 1360 188 1360 248 1388 c 0,44,45
 268 1398 268 1398 290 1398 c 0,30,31
EndSplineSet
EndChar

StartChar: k
Encoding: 107 107 79
Width: 1024
GlyphClass: 2
Flags: W
LayerCount: 2
Fore
SplineSet
14 1276 m 1,0,-1
 14 1308 l 1,1,-1
 76 1326 l 1,2,3
 254 1374 254 1374 332 1398 c 1,4,-1
 340 1394 l 1,5,-1
 340 534 l 1,6,-1
 620 784 l 2,7,8
 668 826 668 826 668 854 c 0,9,10
 668 884 668 884 616 888 c 1,11,12
 598 892 598 892 566 892 c 1,13,-1
 566 922 l 1,14,-1
 984 922 l 1,15,-1
 984 890 l 1,16,-1
 966 890 l 2,17,18
 876 890 876 890 790 836 c 0,19,20
 696 778 696 778 540 632 c 2,21,-1
 482 578 l 1,22,-1
 794 180 l 1,23,24
 900 54 900 54 1000 34 c 1,25,26
 1016 32 1016 32 1034 30 c 1,27,-1
 1034 0 l 1,28,-1
 588 0 l 1,29,-1
 588 30 l 1,30,-1
 626 30 l 2,31,32
 668 30 668 30 670 62 c 0,33,34
 670 74 670 74 634 120 c 1,35,36
 626 132 l 1,37,-1
 340 514 l 1,38,-1
 340 138 l 2,39,40
 340 54 340 54 414 36 c 1,41,42
 430 34 430 34 452 32 c 2,43,-1
 494 30 l 1,44,-1
 494 0 l 1,45,-1
 14 0 l 1,46,-1
 14 30 l 1,47,48
 132 52 132 52 152 74 c 1,49,50
 168 94 168 94 168 168 c 2,51,-1
 168 1156 l 2,52,53
 168 1258 168 1258 122 1274 c 0,54,55
 106 1280 106 1280 80 1280 c 0,56,57
 68 1280 68 1280 14 1276 c 1,0,-1
EndSplineSet
EndChar

StartChar: l
Encoding: 108 108 80
Width: 568
GlyphClass: 2
Flags: W
LayerCount: 2
Fore
SplineSet
38 1276 m 1,0,-1
 38 1308 l 1,1,2
 242 1358 242 1358 364 1398 c 1,3,-1
 372 1394 l 1,4,-1
 372 172 l 2,5,6
 372 76 372 76 414 54 c 1,7,8
 444 36 444 36 526 30 c 1,9,-1
 526 0 l 1,10,-1
 44 0 l 1,11,-1
 44 30 l 1,12,13
 160 40 160 40 184 86 c 1,14,15
 200 114 200 114 200 178 c 2,16,-1
 200 1156 l 2,17,18
 200 1258 200 1258 156 1274 c 0,19,20
 140 1280 140 1280 114 1280 c 0,21,22
 96 1280 96 1280 52 1276 c 1,23,-1
 38 1276 l 1,0,-1
EndSplineSet
EndChar

StartChar: m
Encoding: 109 109 81
Width: 1592
GlyphClass: 2
Flags: W
LayerCount: 2
Fore
SplineSet
38 816 m 1,0,-1
 38 850 l 1,1,2
 186 890 186 890 326 942 c 1,3,-1
 340 938 l 1,4,-1
 340 784 l 1,5,6
 514 918 514 918 592 936 c 0,7,8
 620 942 620 942 658 942 c 0,9,10
 820 942 820 942 874 770 c 1,11,12
 1034 942 1034 942 1208 942 c 0,13,14
 1446 942 1446 942 1446 578 c 2,15,-1
 1446 156 l 2,16,17
 1446 44 1446 44 1534 34 c 1,18,-1
 1588 30 l 1,19,-1
 1588 0 l 1,20,-1
 1138 0 l 1,21,-1
 1138 30 l 1,22,23
 1236 44 1236 44 1258 76 c 0,24,25
 1274 100 1274 100 1274 178 c 2,26,-1
 1274 610 l 2,27,28
 1274 780 1274 780 1206 818 c 1,29,30
 1176 836 1176 836 1120 836 c 0,31,32
 986 836 986 836 898 710 c 1,33,-1
 898 194 l 2,34,35
 898 76 898 76 950 48 c 0,36,37
 980 32 980 32 1044 30 c 1,38,-1
 1044 0 l 1,39,-1
 586 0 l 1,40,-1
 586 30 l 1,41,42
 686 36 686 36 708 76 c 0,43,44
 724 104 724 104 724 176 c 2,45,-1
 724 620 l 2,46,47
 724 836 724 836 590 836 c 0,48,49
 484 836 484 836 394 766 c 1,50,51
 378 754 l 1,52,53
 348 722 348 722 348 714 c 2,54,-1
 348 138 l 2,55,56
 348 62 348 62 402 44 c 1,57,58
 430 32 430 32 488 30 c 1,59,-1
 488 0 l 1,60,-1
 32 0 l 1,61,-1
 32 30 l 1,62,63
 140 32 140 32 162 84 c 1,64,65
 176 112 176 112 176 174 c 2,66,-1
 176 692 l 2,67,68
 176 806 176 806 130 822 c 1,69,70
 118 824 118 824 104 824 c 0,71,72
 74 824 74 824 38 816 c 1,0,-1
EndSplineSet
EndChar

StartChar: n
Encoding: 110 110 82
Width: 1024
GlyphClass: 2
Flags: W
LayerCount: 2
Fore
SplineSet
32 816 m 1,0,-1
 32 850 l 1,1,2
 184 894 184 894 316 942 c 1,3,-1
 330 938 l 1,4,-1
 330 776 l 1,5,6
 476 914 476 914 562 934 c 1,7,8
 590 942 590 942 626 942 c 0,9,10
 794 942 794 942 848 774 c 0,11,12
 868 712 868 712 868 634 c 2,13,-1
 868 166 l 2,14,15
 868 72 868 72 914 50 c 1,16,17
 940 36 940 36 994 30 c 1,18,-1
 994 0 l 1,19,-1
 568 0 l 1,20,-1
 568 30 l 1,21,22
 660 38 660 38 682 92 c 0,23,24
 696 126 696 126 696 202 c 2,25,-1
 696 630 l 2,26,27
 696 830 696 830 546 830 c 0,28,29
 472 830 472 830 388 760 c 0,30,31
 364 740 364 740 336 712 c 1,32,-1
 336 138 l 2,33,34
 336 64 336 64 396 44 c 1,35,36
 422 34 422 34 472 30 c 1,37,-1
 472 0 l 1,38,-1
 36 0 l 1,39,-1
 36 30 l 1,40,41
 130 38 130 38 150 84 c 0,42,43
 164 114 164 114 164 184 c 2,44,-1
 164 692 l 2,45,46
 164 804 164 804 118 820 c 0,47,48
 106 824 106 824 88 824 c 0,49,50
 50 824 50 824 32 816 c 1,0,-1
EndSplineSet
EndChar

StartChar: o
Encoding: 111 111 83
Width: 1024
GlyphClass: 2
Flags: W
LayerCount: 2
Fore
SplineSet
512 942 m 0,0,1
 740 942 740 942 868 774 c 0,2,3
 962 652 962 652 962 480 c 0,4,5
 962 242 962 242 804 96 c 1,6,7
 680 -20 680 -20 508 -20 c 0,8,9
 290 -20 290 -20 162 148 c 1,10,11
 60 278 60 278 60 462 c 0,12,13
 60 712 60 712 230 848 c 0,14,15
 348 942 348 942 512 942 c 0,0,1
244 564 m 0,16,17
 244 284 244 284 360 134 c 1,18,19
 434 36 434 36 532 36 c 0,20,21
 694 36 694 36 754 222 c 1,22,23
 778 302 778 302 778 408 c 0,24,25
 778 682 778 682 650 814 c 1,26,27
 578 884 578 884 486 884 c 0,28,29
 340 884 340 884 276 738 c 0,30,31
 244 664 244 664 244 564 c 0,16,17
EndSplineSet
EndChar

StartChar: p
Encoding: 112 112 84
Width: 1024
GlyphClass: 2
Flags: W
LayerCount: 2
Fore
SplineSet
18 804 m 1,0,-1
 18 838 l 1,1,2
 148 876 148 876 314 942 c 1,3,-1
 326 938 l 1,4,-1
 326 780 l 1,5,6
 456 942 456 942 620 942 c 0,7,8
 794 942 794 942 892 780 c 0,9,10
 962 666 962 666 962 506 c 0,11,12
 962 256 962 256 812 100 c 1,13,14
 692 -20 692 -20 532 -20 c 0,15,16
 430 -20 430 -20 354 44 c 1,17,18
 340 54 340 54 326 68 c 1,19,-1
 326 -254 l 2,20,21
 326 -360 326 -360 368 -386 c 0,22,23
 402 -406 402 -406 506 -408 c 1,24,-1
 506 -444 l 1,25,-1
 10 -444 l 1,26,-1
 10 -410 l 1,27,28
 116 -400 116 -400 140 -358 c 0,29,30
 154 -332 154 -332 154 -268 c 2,31,-1
 154 690 l 2,32,33
 154 782 154 782 120 798 c 0,34,35
 104 806 104 806 70 806 c 128,-1,36
 36 806 36 806 18 804 c 1,0,-1
326 684 m 2,37,-1
 326 180 l 2,38,39
 326 124 326 124 416 78 c 0,40,41
 480 46 480 46 538 46 c 0,42,43
 678 46 678 46 746 202 c 0,44,45
 786 296 786 296 786 426 c 0,46,47
 786 676 786 676 660 776 c 0,48,49
 604 820 604 820 534 820 c 0,50,51
 440 820 440 820 366 754 c 1,52,53
 326 716 326 716 326 684 c 2,37,-1
EndSplineSet
EndChar

StartChar: q
Encoding: 113 113 85
Width: 1024
GlyphClass: 2
Flags: W
LayerCount: 2
Fore
SplineSet
738 870 m 1,0,-1
 848 936 l 1,1,-1
 870 936 l 1,2,-1
 870 -288 l 2,3,4
 870 -362 870 -362 904 -386 c 1,5,6
 928 -400 928 -400 1000 -416 c 1,7,-1
 1000 -444 l 1,8,-1
 516 -444 l 1,9,-1
 516 -410 l 1,10,11
 650 -400 650 -400 680 -350 c 0,12,13
 698 -320 698 -320 698 -254 c 2,14,-1
 698 132 l 1,15,16
 560 -20 560 -20 376 -20 c 0,17,18
 206 -20 206 -20 114 144 c 0,19,20
 50 258 50 258 50 420 c 0,21,22
 50 666 50 666 204 820 c 1,23,24
 330 944 330 944 502 944 c 0,25,26
 612 944 612 944 738 870 c 1,0,-1
226 494 m 0,27,28
 226 276 226 276 330 172 c 1,29,30
 396 104 396 104 494 104 c 0,31,32
 596 104 596 104 670 168 c 1,33,34
 698 190 698 190 698 260 c 2,35,-1
 698 682 l 2,36,37
 698 886 698 886 508 886 c 0,38,39
 334 886 334 886 262 708 c 1,40,41
 226 616 226 616 226 494 c 0,27,28
EndSplineSet
EndChar

StartChar: r
Encoding: 114 114 86
Width: 680
GlyphClass: 2
Flags: W
LayerCount: 2
Fore
SplineSet
606 742 m 1,0,1
 576 742 576 742 514 790 c 1,2,3
 486 814 486 814 472 814 c 0,4,5
 420 814 420 814 364 736 c 1,6,7
 328 684 328 684 328 646 c 2,8,-1
 328 184 l 2,9,10
 328 80 328 80 382 54 c 1,11,12
 420 34 420 34 502 30 c 1,13,-1
 502 0 l 1,14,-1
 10 0 l 1,15,-1
 10 30 l 1,16,17
 118 52 118 52 140 82 c 0,18,19
 156 104 156 104 156 172 c 2,20,-1
 156 684 l 2,21,22
 156 794 156 794 104 804 c 0,23,24
 96 806 96 806 86 806 c 0,25,26
 54 806 54 806 14 798 c 1,27,-1
 14 832 l 1,28,29
 178 884 178 884 318 942 c 1,30,-1
 328 938 l 1,31,-1
 328 750 l 1,32,33
 434 904 434 904 510 932 c 0,34,35
 538 942 538 942 574 942 c 0,36,37
 668 942 668 942 684 862 c 0,38,39
 686 848 686 848 686 834 c 1,40,41
 674 750 674 750 606 742 c 1,0,1
EndSplineSet
EndChar

StartChar: s
Encoding: 115 115 87
Width: 796
GlyphClass: 2
Flags: W
LayerCount: 2
Fore
SplineSet
582 902 m 0,0,1
 586 902 586 902 614 922 c 1,2,-1
 636 922 l 1,3,-1
 646 644 l 1,4,-1
 614 644 l 1,5,6
 564 842 564 842 466 880 c 1,7,8
 434 894 434 894 390 894 c 0,9,10
 278 894 278 894 242 812 c 1,11,12
 232 786 232 786 232 756 c 0,13,14
 232 668 232 668 320 616 c 2,15,-1
 540 486 l 2,16,17
 688 398 688 398 708 292 c 0,18,19
 712 268 712 268 712 242 c 0,20,21
 712 112 712 112 598 32 c 1,22,23
 520 -20 520 -20 424 -20 c 0,24,25
 382 -20 382 -20 234 10 c 1,26,27
 198 16 198 16 180 16 c 0,28,29
 150 16 150 16 134 -8 c 1,30,-1
 106 -8 l 1,31,-1
 106 312 l 1,32,-1
 140 312 l 1,33,34
 172 168 172 168 218 108 c 0,35,36
 282 24 282 24 400 24 c 0,37,38
 528 24 528 24 562 120 c 1,39,40
 570 146 570 146 570 172 c 0,41,42
 570 264 570 264 462 326 c 2,43,-1
 344 394 l 1,44,45
 152 502 152 502 116 612 c 0,46,47
 104 648 104 648 104 688 c 0,48,49
 104 832 104 832 230 904 c 1,50,51
 296 940 296 940 382 940 c 0,52,53
 450 940 450 940 542 910 c 0,54,55
 566 902 566 902 582 902 c 0,0,1
EndSplineSet
EndChar

StartChar: t
Encoding: 116 116 88
Width: 568
GlyphClass: 2
Flags: W
LayerCount: 2
Fore
SplineSet
522 922 m 1,0,-1
 522 856 l 1,1,-1
 316 856 l 1,2,-1
 316 270 l 2,3,4
 316 104 316 104 398 88 c 0,5,6
 410 86 410 86 422 86 c 0,7,8
 486 86 486 86 544 158 c 1,9,-1
 572 136 l 1,10,11
 474 -20 474 -20 326 -20 c 0,12,13
 144 -20 144 -20 144 240 c 2,14,-1
 144 856 l 1,15,-1
 34 856 l 1,16,17
 26 862 26 862 26 870 c 0,18,19
 26 884 26 884 52 900 c 0,20,21
 142 956 142 956 260 1128 c 0,22,23
 292 1176 292 1176 302 1186 c 1,24,25
 316 1186 316 1186 316 1160 c 2,26,-1
 316 922 l 1,27,-1
 522 922 l 1,0,-1
EndSplineSet
EndChar

StartChar: u
Encoding: 117 117 89
Width: 1024
GlyphClass: 2
Flags: W
LayerCount: 2
Fore
SplineSet
980 102 m 1,0,-1
 980 74 l 1,1,2
 822 30 822 30 700 -18 c 1,3,-1
 692 -14 l 1,4,-1
 692 156 l 1,5,-1
 604 68 l 2,6,7
 516 -20 516 -20 394 -20 c 0,8,9
 236 -20 236 -20 174 110 c 0,10,11
 146 170 146 170 146 246 c 2,12,-1
 146 762 l 2,13,14
 146 858 146 858 88 880 c 0,15,16
 64 890 64 890 18 892 c 1,17,-1
 18 922 l 1,18,-1
 318 922 l 1,19,-1
 318 254 l 2,20,21
 318 162 318 162 394 116 c 1,22,23
 426 98 426 98 462 98 c 0,24,25
 558 98 558 98 644 168 c 0,26,27
 682 198 682 198 682 276 c 2,28,-1
 682 758 l 2,29,30
 682 846 682 846 638 868 c 0,31,32
 610 882 610 882 530 886 c 1,33,-1
 530 922 l 1,34,-1
 854 922 l 1,35,-1
 854 220 l 2,36,37
 854 132 854 132 894 112 c 1,38,39
 920 102 920 102 970 102 c 2,40,-1
 980 102 l 1,0,-1
EndSplineSet
EndChar

StartChar: v
Encoding: 118 118 90
Width: 1024
GlyphClass: 2
Flags: W
LayerCount: 2
Fore
SplineSet
976 922 m 1,0,-1
 976 890 l 1,1,2
 924 884 924 884 900 850 c 1,3,4
 878 822 878 822 844 732 c 1,5,-1
 582 74 l 1,6,7
 540 -28 540 -28 524 -28 c 0,8,9
 502 -28 502 -28 472 68 c 1,10,-1
 226 656 l 1,11,12
 144 840 144 840 110 868 c 0,13,14
 86 888 86 888 38 890 c 1,15,-1
 38 922 l 1,16,-1
 440 922 l 1,17,-1
 440 890 l 1,18,19
 354 882 354 882 348 846 c 1,20,21
 346 842 346 842 346 834 c 0,22,23
 346 800 346 800 364 758 c 1,24,-1
 574 234 l 1,25,-1
 776 764 l 2,26,27
 788 794 788 794 788 826 c 0,28,29
 788 882 788 882 692 890 c 1,30,-1
 692 922 l 1,31,-1
 976 922 l 1,0,-1
EndSplineSet
EndChar

StartChar: w
Encoding: 119 119 91
Width: 1478
GlyphClass: 2
Flags: W
LayerCount: 2
Fore
SplineSet
718 634 m 1,0,1
 656 828 656 828 614 862 c 1,2,3
 590 884 590 884 536 890 c 1,4,-1
 536 922 l 1,5,-1
 952 922 l 1,6,-1
 952 890 l 1,7,8
 850 876 850 876 838 844 c 0,9,10
 834 834 834 834 834 818 c 0,11,12
 834 790 834 790 868 696 c 1,13,-1
 1040 238 l 1,14,-1
 1224 692 l 1,15,16
 1260 778 1260 778 1260 828 c 0,17,18
 1260 864 1260 864 1210 880 c 0,19,20
 1194 886 1194 886 1170 890 c 1,21,-1
 1170 922 l 1,22,-1
 1422 922 l 1,23,-1
 1422 890 l 1,24,25
 1382 878 1382 878 1366 844 c 1,26,27
 1356 826 1356 826 1338 780 c 2,28,-1
 1054 72 l 1,29,30
 1016 -26 1016 -26 998 -28 c 1,31,32
 984 -28 984 -28 956 38 c 1,33,34
 952 50 952 50 948 60 c 2,35,-1
 762 542 l 1,36,-1
 532 52 l 1,37,38
 496 -28 496 -28 482 -28 c 0,39,40
 464 -28 464 -28 428 62 c 2,41,-1
 152 762 l 1,42,43
 106 866 106 866 76 882 c 0,44,45
 64 888 64 888 44 890 c 1,46,-1
 44 922 l 1,47,-1
 412 922 l 1,48,-1
 412 890 l 1,49,50
 328 880 328 880 320 842 c 0,51,52
 318 834 318 834 318 824 c 0,53,54
 318 792 318 792 330 762 c 2,55,-1
 532 228 l 1,56,-1
 718 634 l 1,0,1
EndSplineSet
EndChar

StartChar: x
Encoding: 120 120 92
Width: 1024
GlyphClass: 2
Flags: W
LayerCount: 2
Fore
SplineSet
508 622 m 1,0,-1
 630 800 l 1,1,2
 646 828 646 828 646 846 c 0,3,4
 646 882 646 882 580 888 c 1,5,6
 574 890 574 890 564 890 c 1,7,-1
 564 922 l 1,8,-1
 886 922 l 1,9,-1
 886 890 l 1,10,11
 782 886 782 886 720 800 c 1,12,-1
 550 556 l 1,13,-1
 814 154 l 1,14,15
 888 48 888 48 950 32 c 1,16,17
 964 30 964 30 980 30 c 1,18,-1
 980 0 l 1,19,-1
 570 0 l 1,20,-1
 570 30 l 1,21,22
 642 34 642 34 650 60 c 0,23,24
 652 68 652 68 652 80 c 0,25,26
 652 98 652 98 638 116 c 1,27,-1
 452 404 l 1,28,-1
 290 152 l 2,29,30
 250 88 250 88 250 68 c 0,31,32
 250 30 250 30 332 30 c 1,33,-1
 332 0 l 1,34,-1
 34 0 l 1,35,-1
 34 30 l 1,36,37
 102 36 102 36 140 76 c 0,38,39
 158 96 158 96 184 136 c 1,40,-1
 418 474 l 1,41,-1
 226 768 l 2,42,43
 160 868 160 868 110 884 c 0,44,45
 92 890 92 890 68 890 c 2,46,-1
 50 890 l 1,47,-1
 50 922 l 1,48,-1
 474 922 l 1,49,-1
 474 890 l 1,50,51
 386 888 386 888 386 846 c 128,-1,52
 386 804 386 804 480 664 c 2,53,-1
 508 622 l 1,0,-1
EndSplineSet
EndChar

StartChar: y
Encoding: 121 121 93
Width: 1024
GlyphClass: 2
Flags: W
LayerCount: 2
Fore
SplineSet
310 -274 m 0,0,1
 374 -274 374 -274 448 -108 c 1,2,3
 494 -8 494 -8 494 38 c 128,-1,4
 494 84 494 84 404 246 c 1,5,-1
 372 308 l 1,6,-1
 134 828 l 1,7,8
 108 880 108 880 28 892 c 1,9,-1
 28 922 l 1,10,-1
 450 922 l 1,11,-1
 450 890 l 1,12,13
 340 874 340 874 332 836 c 1,14,15
 332 804 332 804 352 758 c 2,16,-1
 588 240 l 1,17,-1
 786 804 l 2,18,19
 794 824 794 824 794 840 c 0,20,21
 794 890 794 890 696 890 c 1,22,-1
 696 922 l 1,23,-1
 972 922 l 1,24,-1
 972 890 l 1,25,26
 914 882 914 882 884 826 c 1,27,28
 880 814 880 814 874 798 c 2,29,-1
 560 -36 l 2,30,31
 438 -360 438 -360 308 -424 c 0,32,33
 264 -446 264 -446 212 -446 c 0,34,35
 112 -446 112 -446 74 -376 c 0,36,37
 62 -354 62 -354 62 -328 c 0,38,39
 62 -268 62 -268 116 -244 c 1,40,41
 134 -238 134 -238 150 -238 c 0,42,43
 190 -238 190 -238 276 -268 c 0,44,45
 296 -274 296 -274 310 -274 c 0,0,1
EndSplineSet
EndChar

StartChar: z
Encoding: 122 122 94
Width: 908
GlyphClass: 2
Flags: W
LayerCount: 2
Fore
SplineSet
558 62 m 2,0,1
 722 62 722 62 772 132 c 1,2,3
 796 168 796 168 820 284 c 1,4,-1
 856 276 l 1,5,-1
 828 0 l 1,6,-1
 56 0 l 1,7,-1
 56 30 l 1,8,-1
 600 860 l 1,9,-1
 318 860 l 2,10,11
 212 860 212 860 180 814 c 1,12,13
 158 776 158 776 146 680 c 1,14,-1
 108 680 l 1,15,-1
 114 922 l 1,16,-1
 826 922 l 1,17,-1
 826 890 l 1,18,-1
 274 62 l 1,19,-1
 558 62 l 2,0,1
EndSplineSet
EndChar

StartChar: braceleft
Encoding: 123 123 95
Width: 982
GlyphClass: 2
Flags: W
LayerCount: 2
Fore
SplineSet
716 -370 m 1,0,1
 512 -366 512 -366 444 -300 c 1,2,3
 378 -234 378 -234 378 -84 c 2,4,-1
 378 278 l 2,5,6
 378 410 378 410 318 458 c 0,7,8
 280 488 280 488 204 512 c 1,9,10
 328 548 328 548 358 614 c 0,11,12
 378 658 378 658 378 744 c 2,13,-1
 378 1108 l 2,14,15
 378 1306 378 1306 502 1360 c 0,16,17
 570 1390 570 1390 716 1392 c 1,18,-1
 716 1370 l 1,19,20
 584 1336 584 1336 548 1250 c 1,21,22
 530 1200 530 1200 530 1118 c 2,23,-1
 530 774 l 2,24,25
 530 622 530 622 468 570 c 1,26,27
 430 534 430 534 338 510 c 1,28,29
 472 478 472 478 506 406 c 0,30,31
 530 354 530 354 530 248 c 2,32,-1
 530 -96 l 2,33,34
 530 -248 530 -248 610 -304 c 1,35,36
 650 -330 650 -330 716 -348 c 1,37,-1
 716 -370 l 1,0,1
EndSplineSet
EndChar

StartChar: bar
Encoding: 124 124 96
Width: 408
GlyphClass: 2
Flags: W
LayerCount: 2
Fore
SplineSet
138 -28 m 1,0,-1
 138 1384 l 1,1,-1
 272 1384 l 1,2,-1
 272 -28 l 1,3,-1
 138 -28 l 1,0,-1
EndSplineSet
EndChar

StartChar: braceright
Encoding: 125 125 97
Width: 982
GlyphClass: 2
Flags: W
LayerCount: 2
Fore
SplineSet
266 1392 m 1,0,1
 456 1390 456 1390 524 1334 c 0,2,3
 604 1268 604 1268 604 1106 c 2,4,-1
 604 744 l 2,5,6
 604 612 604 612 666 564 c 1,7,8
 702 534 702 534 778 512 c 1,9,10
 656 474 656 474 624 408 c 1,11,12
 604 362 604 362 604 278 c 2,13,-1
 604 -86 l 2,14,15
 604 -284 604 -284 482 -338 c 0,16,17
 414 -368 414 -368 266 -370 c 1,18,-1
 266 -348 l 1,19,20
 400 -314 400 -314 434 -228 c 1,21,22
 452 -178 452 -178 452 -96 c 2,23,-1
 452 248 l 2,24,25
 452 400 452 400 514 452 c 1,26,27
 552 488 552 488 646 512 c 1,28,29
 514 544 514 544 480 612 c 1,30,31
 452 664 452 664 452 774 c 2,32,-1
 452 1118 l 2,33,34
 452 1270 452 1270 372 1326 c 0,35,36
 334 1352 334 1352 266 1370 c 1,37,-1
 266 1392 l 1,0,1
EndSplineSet
EndChar

StartChar: asciitilde
Encoding: 126 126 98
Width: 1106
GlyphClass: 2
Flags: W
LayerCount: 2
Fore
SplineSet
334 656 m 0,0,1
 436 656 436 656 570 584 c 1,2,3
 700 520 700 520 766 516 c 1,4,5
 838 516 838 516 888 582 c 1,6,7
 902 598 902 598 918 620 c 1,8,-1
 1028 556 l 1,9,10
 926 412 926 412 836 390 c 1,11,12
 808 380 808 380 776 380 c 0,13,14
 674 380 674 380 540 452 c 1,15,16
 410 516 410 516 344 520 c 1,17,18
 272 520 272 520 222 454 c 1,19,20
 208 438 208 438 192 416 c 1,21,-1
 82 482 l 1,22,23
 184 624 184 624 274 648 c 0,24,25
 302 656 302 656 334 656 c 0,0,1
EndSplineSet
EndChar

StartChar: uni0D00
Encoding: 3328 3328 99
Width: 2048
GlyphClass: 2
Flags: W
LayerCount: 2
Fore
SplineSet
1368 452 m 128,-1,1
 1368 200 1368 200 1190 22 c 1,2,3
 1012 -158 1012 -158 760 -158 c 0,4,5
 506 -158 506 -158 326 20 c 1,6,7
 148 198 148 198 148 450 c 0,8,9
 148 704 148 704 326 882 c 1,10,11
 506 1060 506 1060 758 1060 c 128,-1,12
 1010 1060 1010 1060 1188 882 c 1,13,0
 1368 704 1368 704 1368 452 c 128,-1,1
1302 448 m 0,14,15
 1302 678 1302 678 1140 838 c 1,16,17
 978 1000 978 1000 750 1000 c 128,-1,18
 522 1000 522 1000 360 838 c 1,19,20
 198 678 198 678 198 448 c 0,21,22
 198 220 198 220 360 56 c 1,23,24
 522 -106 522 -106 750 -106 c 128,-1,25
 978 -106 978 -106 1140 56 c 1,26,27
 1302 220 1302 220 1302 448 c 0,14,15
1078 140 m 1,28,-1
 932 -6 l 1,29,30
 912 22 912 22 898 98 c 1,31,32
 882 174 882 174 852 206 c 1,33,34
 834 228 834 228 806 270 c 1,35,36
 780 314 780 314 756 338 c 1,37,38
 712 370 712 370 704 374 c 1,39,40
 692 374 692 374 670 376 c 1,41,42
 650 376 650 376 638 376 c 1,43,44
 636 320 636 320 636 212 c 1,45,-1
 484 62 l 1,46,47
 484 290 484 290 508 684 c 1,48,-1
 566 742 l 1,49,50
 528 742 528 742 476 734 c 1,51,-1
 628 888 l 1,52,53
 724 904 724 904 854 884 c 128,-1,54
 984 864 984 864 1038 808 c 0,55,56
 1072 774 1072 774 1072 680 c 128,-1,57
 1072 586 1072 586 1042 558 c 1,58,-1
 932 446 l 1,59,60
 942 434 942 434 954 414 c 128,-1,61
 966 394 966 394 978 376 c 1,62,63
 990 360 990 360 1004 346 c 0,64,65
 1036 314 1036 314 1048 238 c 0,66,67
 1060 164 1060 164 1078 140 c 1,28,-1
918 528 m 1,68,69
 926 624 926 624 892 664 c 1,70,71
 828 730 828 730 656 738 c 1,72,73
 648 634 648 634 638 410 c 1,74,-1
 758 528 l 1,75,76
 794 548 794 548 842 526 c 1,77,78
 894 526 894 526 918 528 c 1,68,69
EndSplineSet
EndChar

StartChar: uni0D01
Encoding: 3329 3329 100
Width: 2048
GlyphClass: 2
Flags: W
LayerCount: 2
Fore
SplineSet
1368 452 m 128,-1,1
 1368 200 1368 200 1190 22 c 1,2,3
 1012 -158 1012 -158 760 -158 c 0,4,5
 506 -158 506 -158 326 20 c 1,6,7
 148 198 148 198 148 450 c 0,8,9
 148 704 148 704 326 882 c 1,10,11
 506 1060 506 1060 758 1060 c 128,-1,12
 1010 1060 1010 1060 1188 882 c 1,13,0
 1368 704 1368 704 1368 452 c 128,-1,1
1302 448 m 0,14,15
 1302 678 1302 678 1140 838 c 1,16,17
 978 1000 978 1000 750 1000 c 128,-1,18
 522 1000 522 1000 360 838 c 1,19,20
 198 678 198 678 198 448 c 0,21,22
 198 220 198 220 360 56 c 1,23,24
 522 -106 522 -106 750 -106 c 128,-1,25
 978 -106 978 -106 1140 56 c 1,26,27
 1302 220 1302 220 1302 448 c 0,14,15
1078 140 m 1,28,-1
 932 -6 l 1,29,30
 912 22 912 22 898 98 c 1,31,32
 882 174 882 174 852 206 c 1,33,34
 834 228 834 228 806 270 c 1,35,36
 780 314 780 314 756 338 c 1,37,38
 712 370 712 370 704 374 c 1,39,40
 692 374 692 374 670 376 c 1,41,42
 650 376 650 376 638 376 c 1,43,44
 636 320 636 320 636 212 c 1,45,-1
 484 62 l 1,46,47
 484 290 484 290 508 684 c 1,48,-1
 566 742 l 1,49,50
 528 742 528 742 476 734 c 1,51,-1
 628 888 l 1,52,53
 724 904 724 904 854 884 c 128,-1,54
 984 864 984 864 1038 808 c 0,55,56
 1072 774 1072 774 1072 680 c 128,-1,57
 1072 586 1072 586 1042 558 c 1,58,-1
 932 446 l 1,59,60
 942 434 942 434 954 414 c 128,-1,61
 966 394 966 394 978 376 c 1,62,63
 990 360 990 360 1004 346 c 0,64,65
 1036 314 1036 314 1048 238 c 0,66,67
 1060 164 1060 164 1078 140 c 1,28,-1
918 528 m 1,68,69
 926 624 926 624 892 664 c 1,70,71
 828 730 828 730 656 738 c 1,72,73
 648 634 648 634 638 410 c 1,74,-1
 758 528 l 1,75,76
 794 548 794 548 842 526 c 1,77,78
 894 526 894 526 918 528 c 1,68,69
EndSplineSet
EndChar

StartChar: uni0D02
Encoding: 3330 3330 101
Width: 856
GlyphClass: 2
Flags: W
LayerCount: 2
Fore
SplineSet
852 324 m 0,0,1
 852 180 852 180 750 78 c 1,2,3
 650 -24 650 -24 506 -24 c 0,4,5
 360 -24 360 -24 260 76 c 0,6,7
 158 178 158 178 158 324 c 0,8,9
 158 468 158 468 260 570 c 1,10,11
 360 672 360 672 506 672 c 0,12,13
 650 672 650 672 750 570 c 0,14,15
 852 466 852 466 852 324 c 0,0,1
698 334 m 128,-1,17
 698 430 698 430 630 498 c 128,-1,18
 562 566 562 566 464 566 c 0,19,20
 368 566 368 566 300 498 c 1,21,22
 230 430 230 430 230 334 c 128,-1,23
 230 238 230 238 300 168 c 0,24,25
 368 100 368 100 464 100 c 0,26,27
 562 100 562 100 630 168 c 1,28,16
 698 238 698 238 698 334 c 128,-1,17
EndSplineSet
EndChar

StartChar: uni0D03
Encoding: 3331 3331 102
Width: 454
GlyphClass: 2
Flags: W
LayerCount: 2
Fore
SplineSet
454 706 m 128,-1,1
 454 634 454 634 406 586 c 0,2,3
 356 536 356 536 284 536 c 128,-1,4
 212 536 212 536 164 586 c 1,5,6
 114 634 114 634 114 706 c 128,-1,7
 114 778 114 778 164 828 c 0,8,9
 212 876 212 876 284 876 c 128,-1,10
 356 876 356 876 406 828 c 1,11,0
 454 778 454 778 454 706 c 128,-1,1
454 186 m 128,-1,13
 454 114 454 114 406 66 c 0,14,15
 356 16 356 16 284 16 c 128,-1,16
 212 16 212 16 164 66 c 1,17,18
 114 114 114 114 114 186 c 128,-1,19
 114 258 114 258 164 308 c 0,20,21
 212 356 212 356 284 356 c 128,-1,22
 356 356 356 356 406 308 c 1,23,12
 454 258 454 258 454 186 c 128,-1,13
344 704 m 0,24,25
 344 740 344 740 320 764 c 0,26,27
 294 790 294 790 260 790 c 128,-1,28
 226 790 226 790 200 764 c 0,29,30
 176 740 176 740 176 704 c 0,31,32
 176 670 176 670 200 646 c 0,33,34
 226 620 226 620 260 620 c 128,-1,35
 294 620 294 620 320 646 c 0,36,37
 344 670 344 670 344 704 c 0,24,25
344 186 m 128,-1,39
 344 220 344 220 320 244 c 0,40,41
 294 270 294 270 260 270 c 128,-1,42
 226 270 226 270 200 244 c 0,43,44
 176 220 176 220 176 186 c 128,-1,45
 176 152 176 152 200 126 c 1,46,47
 226 100 226 100 260 100 c 128,-1,48
 294 100 294 100 320 126 c 1,49,38
 344 152 344 152 344 186 c 128,-1,39
EndSplineSet
EndChar

StartChar: uni0D04
Encoding: 3332 3332 103
Width: 2048
GlyphClass: 2
Flags: W
LayerCount: 2
Fore
SplineSet
1368 452 m 128,-1,1
 1368 200 1368 200 1190 22 c 1,2,3
 1012 -158 1012 -158 760 -158 c 0,4,5
 506 -158 506 -158 326 20 c 1,6,7
 148 198 148 198 148 450 c 0,8,9
 148 704 148 704 326 882 c 1,10,11
 506 1060 506 1060 758 1060 c 128,-1,12
 1010 1060 1010 1060 1188 882 c 1,13,0
 1368 704 1368 704 1368 452 c 128,-1,1
1302 448 m 0,14,15
 1302 678 1302 678 1140 838 c 1,16,17
 978 1000 978 1000 750 1000 c 128,-1,18
 522 1000 522 1000 360 838 c 1,19,20
 198 678 198 678 198 448 c 0,21,22
 198 220 198 220 360 56 c 1,23,24
 522 -106 522 -106 750 -106 c 128,-1,25
 978 -106 978 -106 1140 56 c 1,26,27
 1302 220 1302 220 1302 448 c 0,14,15
1078 140 m 1,28,-1
 932 -6 l 1,29,30
 912 22 912 22 898 98 c 1,31,32
 882 174 882 174 852 206 c 1,33,34
 834 228 834 228 806 270 c 1,35,36
 780 314 780 314 756 338 c 1,37,38
 712 370 712 370 704 374 c 1,39,40
 692 374 692 374 670 376 c 1,41,42
 650 376 650 376 638 376 c 1,43,44
 636 320 636 320 636 212 c 1,45,-1
 484 62 l 1,46,47
 484 290 484 290 508 684 c 1,48,-1
 566 742 l 1,49,50
 528 742 528 742 476 734 c 1,51,-1
 628 888 l 1,52,53
 724 904 724 904 854 884 c 128,-1,54
 984 864 984 864 1038 808 c 0,55,56
 1072 774 1072 774 1072 680 c 128,-1,57
 1072 586 1072 586 1042 558 c 1,58,-1
 932 446 l 1,59,60
 942 434 942 434 954 414 c 128,-1,61
 966 394 966 394 978 376 c 1,62,63
 990 360 990 360 1004 346 c 0,64,65
 1036 314 1036 314 1048 238 c 0,66,67
 1060 164 1060 164 1078 140 c 1,28,-1
918 528 m 1,68,69
 926 624 926 624 892 664 c 1,70,71
 828 730 828 730 656 738 c 1,72,73
 648 634 648 634 638 410 c 1,74,-1
 758 528 l 1,75,76
 794 548 794 548 842 526 c 1,77,78
 894 526 894 526 918 528 c 1,68,69
EndSplineSet
EndChar

StartChar: uni0D05
Encoding: 3333 3333 104
Width: 2162
GlyphClass: 2
Flags: W
LayerCount: 2
Fore
SplineSet
2160 410 m 0,0,1
 2160 312 2160 312 2132 218 c 1,2,3
 2106 124 2106 124 2034 52 c 128,-1,4
 1962 -20 1962 -20 1860 -20 c 0,5,6
 1742 -20 1742 -20 1668 80 c 128,-1,7
 1594 180 1594 180 1594 304 c 0,8,9
 1594 450 1594 450 1684 552 c 1,10,11
 1776 654 1776 654 1922 676 c 1,12,13
 1846 816 1846 816 1684 816 c 0,14,15
 1602 816 1602 816 1526 772 c 1,16,17
 1452 728 1452 728 1452 652 c 2,18,-1
 1452 0 l 1,19,-1
 1280 0 l 1,20,-1
 1280 558 l 2,21,22
 1280 662 1280 662 1198 738 c 0,23,24
 1114 816 1114 816 1008 816 c 2,25,-1
 944 816 l 1,26,27
 1078 748 1078 748 1078 612 c 0,28,29
 1078 494 1078 494 956 424 c 1,30,31
 1112 378 1112 378 1112 238 c 0,32,33
 1112 132 1112 132 1032 56 c 1,34,35
 950 -20 950 -20 844 -20 c 0,36,37
 692 -20 692 -20 608 102 c 0,38,39
 522 226 522 226 522 382 c 0,40,41
 522 642 522 642 714 794 c 1,42,43
 668 804 668 804 604 804 c 0,44,45
 436 804 436 804 344 678 c 128,-1,46
 252 552 252 552 252 380 c 0,47,48
 252 258 252 258 298 158 c 0,49,50
 344 60 344 60 432 14 c 1,51,-1
 364 -20 l 1,52,53
 264 32 264 32 210 150 c 128,-1,54
 156 268 156 268 156 410 c 0,55,56
 156 614 156 614 270 766 c 1,57,58
 382 918 382 918 590 918 c 0,59,60
 736 918 736 918 820 870 c 1,61,62
 924 918 924 918 1074 918 c 0,63,64
 1314 918 1314 918 1410 750 c 1,65,66
 1512 918 1512 918 1700 918 c 0,67,68
 1898 918 1898 918 2030 764 c 0,69,70
 2160 612 2160 612 2160 410 c 0,0,1
2002 382 m 0,71,72
 2002 512 2002 512 1952 612 c 1,73,74
 1830 598 1830 598 1752 528 c 0,75,76
 1672 456 1672 456 1672 340 c 0,77,78
 1672 264 1672 264 1718 186 c 0,79,80
 1764 106 1764 106 1832 106 c 0,81,82
 1918 106 1918 106 1960 196 c 0,83,84
 2002 284 2002 284 2002 382 c 0,71,72
942 230 m 0,85,86
 942 368 942 368 724 368 c 2,87,-1
 720 368 l 1,88,-1
 720 438 l 1,89,-1
 770 438 l 2,90,91
 832 438 832 438 882 484 c 128,-1,92
 932 530 932 530 932 590 c 0,93,94
 932 644 932 644 886 696 c 1,95,96
 842 748 842 748 786 768 c 1,97,98
 690 720 690 720 638 610 c 1,99,100
 588 500 588 500 588 382 c 0,101,102
 588 276 588 276 642 186 c 1,103,104
 696 94 696 94 796 94 c 0,105,106
 854 94 854 94 898 134 c 1,107,108
 942 172 942 172 942 230 c 0,85,86
EndSplineSet
EndChar

StartChar: uni0D06
Encoding: 3334 3334 105
Width: 2448
GlyphClass: 2
Flags: W
LayerCount: 2
Fore
SplineSet
2442 204 m 0,0,1
 2442 382 2442 382 2346 516 c 128,-1,2
 2250 650 2250 650 2080 684 c 1,3,4
 1950 918 1950 918 1700 918 c 0,5,6
 1512 918 1512 918 1410 750 c 1,7,8
 1316 918 1316 918 1074 918 c 0,9,10
 928 918 928 918 820 870 c 1,11,12
 738 918 738 918 590 918 c 0,13,14
 448 918 448 918 348 842 c 1,15,16
 246 766 246 766 200 654 c 1,17,18
 156 540 156 540 156 410 c 0,19,20
 156 270 156 270 210 152 c 128,-1,21
 264 34 264 34 364 -20 c 1,22,-1
 432 14 l 1,23,24
 344 60 344 60 298 160 c 128,-1,25
 252 260 252 260 252 380 c 0,26,27
 252 548 252 548 344 676 c 128,-1,28
 436 804 436 804 604 804 c 0,29,30
 666 804 666 804 714 794 c 1,31,32
 522 646 522 646 522 382 c 0,33,34
 522 224 522 224 606 102 c 128,-1,35
 690 -20 690 -20 844 -20 c 0,36,37
 950 -20 950 -20 1032 56 c 1,38,39
 1112 134 1112 134 1112 238 c 0,40,41
 1112 378 1112 378 956 424 c 1,42,43
 1078 494 1078 494 1078 612 c 0,44,45
 1078 748 1078 748 944 816 c 1,46,-1
 1008 816 l 2,47,48
 1114 816 1114 816 1198 738 c 0,49,50
 1280 662 1280 662 1280 558 c 2,51,-1
 1280 0 l 1,52,-1
 1452 0 l 1,53,-1
 1452 652 l 2,54,55
 1452 730 1452 730 1526 772 c 0,56,57
 1602 816 1602 816 1684 816 c 0,58,59
 1846 816 1846 816 1922 676 c 1,60,61
 1778 656 1778 656 1686 552 c 1,62,63
 1594 450 1594 450 1594 304 c 0,64,65
 1594 180 1594 180 1668 80 c 128,-1,66
 1742 -20 1742 -20 1860 -20 c 0,67,68
 1962 -20 1962 -20 2034 52 c 128,-1,69
 2106 124 2106 124 2132 218 c 1,70,71
 2160 312 2160 312 2160 410 c 0,72,73
 2160 506 2160 506 2118 614 c 1,74,75
 2212 584 2212 584 2268 488 c 128,-1,76
 2324 392 2324 392 2324 286 c 0,77,78
 2324 94 2324 94 2190 -60 c 0,79,80
 2054 -216 2054 -216 1874 -216 c 0,81,82
 1790 -216 1790 -216 1722 -182 c 1,83,-1
 1688 -274 l 1,84,85
 1792 -328 1792 -328 1934 -328 c 0,86,87
 2144 -328 2144 -328 2292 -182 c 0,88,89
 2442 -34 2442 -34 2442 204 c 0,0,1
2002 382 m 0,90,91
 2002 284 2002 284 1960 196 c 0,92,93
 1918 106 1918 106 1832 106 c 0,94,95
 1764 106 1764 106 1718 184 c 128,-1,96
 1672 262 1672 262 1672 340 c 0,97,98
 1672 454 1672 454 1752 528 c 1,99,100
 1832 600 1832 600 1952 612 c 1,101,102
 2002 516 2002 516 2002 382 c 0,90,91
942 230 m 0,103,104
 942 174 942 174 898 134 c 128,-1,105
 854 94 854 94 796 94 c 0,106,107
 696 94 696 94 642 186 c 1,108,109
 588 276 588 276 588 382 c 0,110,111
 588 500 588 500 638 610 c 1,112,113
 690 718 690 718 786 768 c 1,114,115
 842 746 842 746 886 694 c 1,116,117
 932 642 932 642 932 590 c 0,118,119
 932 530 932 530 882 484 c 128,-1,120
 832 438 832 438 770 438 c 2,121,-1
 720 438 l 1,122,-1
 720 368 l 1,123,-1
 724 368 l 2,124,125
 942 368 942 368 942 230 c 0,103,104
EndSplineSet
EndChar

StartChar: uni0D07
Encoding: 3335 3335 106
Width: 1624
GlyphClass: 2
Flags: W
LayerCount: 2
Fore
SplineSet
1626 -328 m 1,0,-1
 390 -328 l 2,1,2
 278 -328 278 -328 220 -270 c 1,3,4
 160 -212 160 -212 160 -134 c 0,5,6
 160 -52 160 -52 222 10 c 0,7,8
 282 70 282 70 390 70 c 2,9,-1
 1150 70 l 2,10,11
 1300 70 1300 70 1380 176 c 1,12,13
 1458 282 1458 282 1458 432 c 0,14,15
 1458 586 1458 586 1380 700 c 1,16,17
 1302 816 1302 816 1172 816 c 0,18,19
 1094 816 1094 816 1042 772 c 0,20,21
 992 730 992 730 992 656 c 2,22,-1
 992 144 l 1,23,-1
 820 144 l 1,24,-1
 820 614 l 2,25,26
 820 700 820 700 744 752 c 1,27,28
 670 804 670 804 566 804 c 0,29,30
 452 804 452 804 362 740 c 1,31,32
 270 676 270 676 244 550 c 1,33,-1
 254 546 l 1,34,35
 326 660 326 660 446 660 c 0,36,37
 548 660 548 660 612 582 c 0,38,39
 674 506 674 506 674 402 c 0,40,41
 674 296 674 296 604 214 c 128,-1,42
 534 132 534 132 432 132 c 0,43,44
 306 132 306 132 230 230 c 1,45,46
 156 328 156 328 156 466 c 0,47,48
 156 674 156 674 302 798 c 128,-1,49
 448 922 448 922 634 922 c 0,50,51
 738 922 738 922 822 880 c 0,52,53
 908 838 908 838 954 758 c 1,54,55
 1038 918 1038 918 1212 918 c 0,56,57
 1406 918 1406 918 1514 774 c 1,58,59
 1620 628 1620 628 1620 434 c 0,60,61
 1620 256 1620 256 1532 128 c 128,-1,62
 1444 0 1444 0 1288 0 c 2,63,-1
 390 0 l 2,64,65
 334 0 334 0 302 -28 c 128,-1,66
 270 -56 270 -56 270 -92 c 0,67,68
 270 -126 270 -126 302 -152 c 1,69,70
 332 -178 332 -178 390 -178 c 2,71,-1
 1626 -178 l 1,72,-1
 1626 -328 l 1,0,-1
538 402 m 128,-1,74
 538 472 538 472 504 522 c 1,75,76
 472 574 472 574 410 574 c 0,77,78
 354 574 354 574 324 524 c 1,79,80
 292 474 292 474 292 406 c 0,81,82
 292 336 292 336 326 282 c 1,83,84
 360 230 360 230 418 230 c 0,85,86
 474 230 474 230 506 280 c 1,87,73
 538 332 538 332 538 402 c 128,-1,74
EndSplineSet
EndChar

StartChar: uni0D08
Encoding: 3336 3336 107
Width: 3006
GlyphClass: 2
Flags: W
LayerCount: 2
Fore
SplineSet
3006 446 m 0,0,1
 3006 250 3006 250 2884 112 c 1,2,3
 2762 -24 2762 -24 2520 -24 c 0,4,5
 2364 -24 2364 -24 2246 42 c 128,-1,6
 2128 108 2128 108 2128 208 c 2,7,-1
 2128 234 l 1,8,-1
 2196 234 l 1,9,-1
 2196 210 l 2,10,11
 2196 152 2196 152 2282 104 c 1,12,13
 2370 58 2370 58 2480 58 c 0,14,15
 2654 58 2654 58 2746 174 c 128,-1,16
 2838 290 2838 290 2838 450 c 0,17,18
 2838 628 2838 628 2756 722 c 128,-1,19
 2674 816 2674 816 2570 816 c 0,20,21
 2502 816 2502 816 2456 776 c 128,-1,22
 2410 736 2410 736 2410 668 c 2,23,-1
 2410 382 l 1,24,-1
 2238 382 l 1,25,-1
 2238 596 l 2,26,27
 2238 708 2238 708 2192 766 c 1,28,29
 2144 824 2144 824 2072 824 c 0,30,31
 1984 824 1984 824 1914 740 c 1,32,33
 1844 658 1844 658 1844 520 c 0,34,35
 1844 508 1844 508 1842 486 c 128,-1,36
 1840 464 1840 464 1840 456 c 0,37,38
 1840 442 1840 442 1848 390 c 1,39,-1
 1784 390 l 1,40,41
 1774 436 1774 436 1774 462 c 0,42,43
 1774 472 1774 472 1776 496 c 128,-1,44
 1778 520 1778 520 1778 536 c 0,45,46
 1778 708 1778 708 1876 814 c 1,47,48
 1976 918 1976 918 2110 918 c 0,49,50
 2274 918 2274 918 2368 768 c 1,51,52
 2474 922 2474 922 2634 922 c 0,53,54
 2782 922 2782 922 2894 786 c 128,-1,55
 3006 650 3006 650 3006 446 c 0,0,1
1626 -328 m 1,56,-1
 390 -328 l 2,57,58
 278 -328 278 -328 220 -270 c 1,59,60
 160 -212 160 -212 160 -134 c 0,61,62
 160 -52 160 -52 222 10 c 0,63,64
 282 70 282 70 390 70 c 2,65,-1
 1150 70 l 2,66,67
 1300 70 1300 70 1380 176 c 1,68,69
 1458 282 1458 282 1458 432 c 0,70,71
 1458 586 1458 586 1380 700 c 1,72,73
 1302 816 1302 816 1172 816 c 0,74,75
 1094 816 1094 816 1042 772 c 0,76,77
 992 730 992 730 992 656 c 2,78,-1
 992 144 l 1,79,-1
 820 144 l 1,80,-1
 820 614 l 2,81,82
 820 700 820 700 744 752 c 1,83,84
 670 804 670 804 566 804 c 0,85,86
 452 804 452 804 362 740 c 1,87,88
 270 676 270 676 244 550 c 1,89,-1
 254 546 l 1,90,91
 326 660 326 660 446 660 c 0,92,93
 548 660 548 660 612 582 c 0,94,95
 674 506 674 506 674 402 c 0,96,97
 674 296 674 296 604 214 c 128,-1,98
 534 132 534 132 432 132 c 0,99,100
 306 132 306 132 230 230 c 1,101,102
 156 328 156 328 156 466 c 0,103,104
 156 674 156 674 302 798 c 128,-1,105
 448 922 448 922 634 922 c 0,106,107
 738 922 738 922 822 880 c 0,108,109
 908 838 908 838 954 758 c 1,110,111
 1038 918 1038 918 1212 918 c 0,112,113
 1406 918 1406 918 1514 774 c 1,114,115
 1620 628 1620 628 1620 434 c 0,116,117
 1620 256 1620 256 1532 128 c 128,-1,118
 1444 0 1444 0 1288 0 c 2,119,-1
 390 0 l 2,120,121
 334 0 334 0 302 -28 c 128,-1,122
 270 -56 270 -56 270 -92 c 0,123,124
 270 -126 270 -126 302 -152 c 1,125,126
 332 -178 332 -178 390 -178 c 2,127,-1
 1626 -178 l 1,128,-1
 1626 -328 l 1,56,-1
538 402 m 128,-1,130
 538 472 538 472 504 522 c 1,131,132
 472 574 472 574 410 574 c 0,133,134
 354 574 354 574 324 524 c 1,135,136
 292 474 292 474 292 406 c 0,137,138
 292 336 292 336 326 282 c 1,139,140
 360 230 360 230 418 230 c 0,141,142
 474 230 474 230 506 280 c 1,143,129
 538 332 538 332 538 402 c 128,-1,130
EndSplineSet
EndChar

StartChar: uni0D09
Encoding: 3337 3337 108
Width: 1166
GlyphClass: 2
Flags: W
LayerCount: 2
Fore
SplineSet
1168 448 m 0,0,1
 1168 254 1168 254 1014 126 c 0,2,3
 862 0 862 0 664 0 c 2,4,-1
 398 0 l 2,5,6
 348 0 348 0 310 -22 c 0,7,8
 270 -46 270 -46 270 -92 c 128,-1,9
 270 -138 270 -138 310 -158 c 0,10,11
 348 -178 348 -178 398 -178 c 2,12,-1
 1168 -178 l 1,13,-1
 1168 -328 l 1,14,-1
 398 -328 l 2,15,16
 300 -328 300 -328 230 -278 c 1,17,18
 162 -228 162 -228 162 -134 c 0,19,20
 162 -48 162 -48 208 2 c 1,21,22
 256 52 256 52 324 62 c 0,23,24
 394 72 394 72 472 76 c 128,-1,25
 550 80 550 80 612 74 c 1,26,27
 768 74 768 74 886 178 c 128,-1,28
 1004 282 1004 282 1004 438 c 0,29,30
 1004 592 1004 592 892 706 c 1,31,32
 782 820 782 820 628 820 c 0,33,34
 348 820 348 820 244 586 c 1,35,-1
 254 578 l 1,36,37
 328 694 328 694 446 694 c 0,38,39
 550 694 550 694 612 616 c 128,-1,40
 674 538 674 538 674 432 c 0,41,42
 674 318 674 318 606 242 c 1,43,44
 536 166 536 166 422 166 c 0,45,46
 302 166 302 166 224 250 c 1,47,48
 148 334 148 334 148 456 c 0,49,50
 148 656 148 656 300 788 c 1,51,52
 452 922 452 922 656 922 c 128,-1,53
 860 922 860 922 1014 786 c 1,54,55
 1168 652 1168 652 1168 448 c 0,0,1
538 434 m 128,-1,57
 538 500 538 500 506 552 c 1,58,59
 474 606 474 606 410 606 c 128,-1,60
 346 606 346 606 310 556 c 1,61,62
 274 504 274 504 274 436 c 0,63,64
 274 366 274 366 312 316 c 1,65,66
 348 264 348 264 414 264 c 0,67,68
 476 264 476 264 506 316 c 1,69,56
 538 368 538 368 538 434 c 128,-1,57
EndSplineSet
EndChar

StartChar: uni0D0A
Encoding: 3338 3338 109
Width: 2546
GlyphClass: 2
Flags: W
LayerCount: 2
Fore
SplineSet
2548 446 m 0,0,1
 2548 322 2548 322 2500 220 c 1,2,3
 2454 116 2454 116 2340 46 c 128,-1,4
 2226 -24 2226 -24 2062 -24 c 0,5,6
 1902 -24 1902 -24 1784 40 c 1,7,8
 1668 106 1668 106 1668 208 c 2,9,-1
 1668 234 l 1,10,-1
 1736 234 l 1,11,-1
 1736 210 l 2,12,13
 1736 152 1736 152 1822 104 c 1,14,15
 1908 58 1908 58 2020 58 c 0,16,17
 2194 58 2194 58 2286 174 c 128,-1,18
 2378 290 2378 290 2378 450 c 0,19,20
 2378 628 2378 628 2296 722 c 128,-1,21
 2214 816 2214 816 2110 816 c 0,22,23
 2042 816 2042 816 1996 776 c 1,24,25
 1952 736 1952 736 1952 668 c 2,26,-1
 1952 382 l 1,27,-1
 1778 382 l 1,28,-1
 1778 596 l 2,29,30
 1778 708 1778 708 1730 766 c 1,31,32
 1684 824 1684 824 1614 824 c 0,33,34
 1524 824 1524 824 1454 740 c 1,35,36
 1382 658 1382 658 1382 520 c 0,37,38
 1382 508 1382 508 1382 486 c 1,39,40
 1380 464 1380 464 1380 456 c 0,41,42
 1380 424 1380 424 1388 390 c 1,43,-1
 1324 390 l 1,44,45
 1314 428 1314 428 1314 462 c 0,46,47
 1314 472 1314 472 1316 496 c 1,48,49
 1316 520 1316 520 1316 536 c 0,50,51
 1316 708 1316 708 1418 814 c 0,52,53
 1518 918 1518 918 1650 918 c 0,54,55
 1814 918 1814 918 1908 768 c 1,56,57
 2018 922 2018 922 2172 922 c 0,58,59
 2320 922 2320 922 2434 786 c 128,-1,60
 2548 650 2548 650 2548 446 c 0,0,1
1168 -328 m 1,61,-1
 398 -328 l 2,62,63
 278 -328 278 -328 220 -272 c 128,-1,64
 162 -216 162 -216 162 -134 c 128,-1,65
 162 -52 162 -52 224 10 c 0,66,67
 284 70 284 70 398 70 c 2,68,-1
 694 70 l 2,69,70
 836 70 836 70 920 178 c 1,71,72
 1004 284 1004 284 1004 430 c 0,73,74
 1004 590 1004 590 900 704 c 0,75,76
 794 820 794 820 598 820 c 0,77,78
 466 820 466 820 368 756 c 1,79,80
 268 694 268 694 244 586 c 1,81,-1
 254 578 l 1,82,83
 326 694 326 694 446 694 c 0,84,85
 548 694 548 694 612 616 c 1,86,87
 674 538 674 538 674 434 c 0,88,89
 674 328 674 328 604 246 c 128,-1,90
 534 164 534 164 432 164 c 0,91,92
 302 164 302 164 230 262 c 1,93,94
 158 358 158 358 158 492 c 0,95,96
 158 696 158 696 300 808 c 1,97,98
 442 922 442 922 648 922 c 0,99,100
 906 922 906 922 1034 780 c 1,101,102
 1164 638 1164 638 1164 438 c 0,103,104
 1164 262 1164 262 1070 132 c 1,105,106
 976 0 976 0 828 0 c 2,107,-1
 398 0 l 2,108,109
 334 0 334 0 302 -28 c 128,-1,110
 270 -56 270 -56 270 -92 c 0,111,112
 270 -130 270 -130 302 -154 c 1,113,114
 332 -178 332 -178 398 -178 c 2,115,-1
 1168 -178 l 1,116,-1
 1168 -328 l 1,61,-1
538 440 m 0,117,118
 538 502 538 502 504 554 c 1,119,120
 468 606 468 606 410 606 c 0,121,122
 350 606 350 606 322 556 c 1,123,124
 292 506 292 506 292 442 c 0,125,126
 292 372 292 372 324 318 c 1,127,128
 354 264 354 264 418 264 c 0,129,130
 478 264 478 264 508 320 c 128,-1,131
 538 376 538 376 538 440 c 0,117,118
EndSplineSet
EndChar

StartChar: uni0D0B
Encoding: 3339 3339 110
Width: 1386
GlyphClass: 2
Flags: W
LayerCount: 2
Fore
SplineSet
1380 -66 m 0,0,1
 1380 -160 1380 -160 1316 -226 c 128,-1,2
 1252 -292 1252 -292 1148 -322 c 1,3,4
 1044 -350 1044 -350 956 -362 c 1,5,6
 866 -372 866 -372 774 -372 c 0,7,8
 704 -372 704 -372 634 -368 c 1,9,10
 564 -362 564 -362 474 -342 c 0,11,12
 386 -322 386 -322 320 -290 c 1,13,14
 254 -260 254 -260 208 -202 c 128,-1,15
 162 -144 162 -144 162 -66 c 0,16,17
 162 124 162 124 406 174 c 1,18,19
 162 258 162 258 162 548 c 0,20,21
 162 694 162 694 242 806 c 128,-1,22
 322 918 322 918 460 918 c 0,23,24
 566 918 566 918 632 846 c 128,-1,25
 698 774 698 774 698 668 c 0,26,27
 698 558 698 558 636 480 c 128,-1,28
 574 402 574 402 464 402 c 0,29,30
 334 402 334 402 258 528 c 1,31,-1
 258 514 l 1,32,-1
 258 508 l 2,33,34
 258 426 258 426 292 366 c 0,35,36
 326 308 326 308 374 278 c 128,-1,37
 422 248 422 248 500 230 c 128,-1,38
 578 212 578 212 634 210 c 1,39,40
 692 206 692 206 774 206 c 0,41,42
 876 206 876 206 952 218 c 1,43,44
 1028 228 1028 228 1114 258 c 1,45,46
 1198 286 1198 286 1244 356 c 0,47,48
 1288 424 1288 424 1288 528 c 1,49,50
 1206 402 1206 402 1078 402 c 0,51,52
 970 402 970 402 908 480 c 1,53,54
 844 558 844 558 844 668 c 0,55,56
 844 774 844 774 910 846 c 128,-1,57
 976 918 976 918 1082 918 c 0,58,59
 1222 918 1222 918 1302 806 c 1,60,61
 1380 694 1380 694 1380 548 c 0,62,63
 1380 256 1380 256 1134 178 c 1,64,65
 1380 130 1380 130 1380 -66 c 0,0,1
1230 660 m 0,66,67
 1230 722 1230 722 1192 778 c 0,68,69
 1156 832 1156 832 1094 832 c 0,70,71
 1038 832 1038 832 1008 780 c 0,72,73
 978 730 978 730 978 668 c 0,74,75
 978 488 978 488 1106 488 c 0,76,77
 1166 488 1166 488 1198 542 c 128,-1,78
 1230 596 1230 596 1230 660 c 0,66,67
562 668 m 0,79,80
 562 730 562 730 532 780 c 1,81,82
 504 832 504 832 446 832 c 128,-1,83
 388 832 388 832 350 778 c 1,84,85
 312 722 312 722 312 660 c 0,86,87
 312 596 312 596 344 542 c 128,-1,88
 376 488 376 488 438 488 c 0,89,90
 562 488 562 488 562 668 c 0,79,80
1222 -68 m 0,91,92
 1222 -6 1222 -6 1172 38 c 128,-1,93
 1122 82 1122 82 1044 102 c 1,94,95
 964 120 964 120 900 128 c 128,-1,96
 836 136 836 136 774 136 c 0,97,98
 710 136 710 136 646 128 c 0,99,100
 580 120 580 120 500 102 c 128,-1,101
 420 84 420 84 370 40 c 128,-1,102
 320 -4 320 -4 320 -68 c 128,-1,103
 320 -132 320 -132 370 -178 c 128,-1,104
 420 -224 420 -224 498 -244 c 0,105,106
 578 -264 578 -264 646 -274 c 1,107,108
 712 -282 712 -282 774 -282 c 0,109,110
 834 -282 834 -282 902 -274 c 1,111,112
 968 -264 968 -264 1046 -242 c 1,113,114
 1122 -222 1122 -222 1172 -176 c 1,115,116
 1222 -132 1222 -132 1222 -68 c 0,91,92
EndSplineSet
EndChar

StartChar: l1
Encoding: 3340 3340 111
Width: 1838
GlyphClass: 2
Flags: W
LayerCount: 2
Fore
SplineSet
1832 368 m 0,0,1
 1832 218 1832 218 1748 98 c 0,2,3
 1666 -20 1666 -20 1520 -20 c 0,4,5
 1388 -20 1388 -20 1310 100 c 128,-1,6
 1232 220 1232 220 1232 358 c 0,7,8
 1232 478 1232 478 1294 592 c 1,9,10
 1354 708 1354 708 1450 784 c 1,11,12
 1388 820 1388 820 1290 820 c 0,13,14
 1202 820 1202 820 1130 776 c 1,15,16
 1058 734 1058 734 1058 652 c 2,17,-1
 1058 0 l 1,18,-1
 888 0 l 1,19,-1
 888 566 l 2,20,21
 888 660 888 660 844 740 c 1,22,23
 798 820 798 820 710 820 c 0,24,25
 612 820 612 820 550 784 c 1,26,27
 648 708 648 708 708 592 c 0,28,29
 768 478 768 478 768 358 c 0,30,31
 768 220 768 220 690 100 c 128,-1,32
 612 -20 612 -20 480 -20 c 0,33,34
 336 -20 336 -20 252 98 c 1,35,36
 168 218 168 218 168 368 c 0,37,38
 168 586 168 586 308 750 c 1,39,40
 446 914 446 914 660 914 c 0,41,42
 852 914 852 914 978 770 c 1,43,44
 1116 914 1116 914 1340 914 c 0,45,46
 1554 914 1554 914 1694 750 c 1,47,48
 1832 586 1832 586 1832 368 c 0,0,1
1684 370 m 0,49,50
 1684 600 1684 600 1508 742 c 1,51,52
 1298 576 1298 576 1298 356 c 0,53,54
 1298 262 1298 262 1352 184 c 1,55,56
 1404 106 1404 106 1492 106 c 0,57,58
 1586 106 1586 106 1634 190 c 1,59,60
 1684 272 1684 272 1684 370 c 0,49,50
702 356 m 0,61,62
 702 578 702 578 492 742 c 1,63,64
 316 594 316 594 316 370 c 0,65,66
 316 270 316 270 366 188 c 128,-1,67
 416 106 416 106 508 106 c 0,68,69
 596 106 596 106 650 186 c 0,70,71
 702 264 702 264 702 356 c 0,61,62
EndSplineSet
EndChar

StartChar: uni0D0D
Encoding: 3341 3341 112
Width: 2048
GlyphClass: 2
Flags: W
LayerCount: 2
Fore
SplineSet
1368 452 m 128,-1,1
 1368 200 1368 200 1190 22 c 1,2,3
 1012 -158 1012 -158 760 -158 c 0,4,5
 506 -158 506 -158 326 20 c 1,6,7
 148 198 148 198 148 450 c 0,8,9
 148 704 148 704 326 882 c 1,10,11
 506 1060 506 1060 758 1060 c 128,-1,12
 1010 1060 1010 1060 1188 882 c 1,13,0
 1368 704 1368 704 1368 452 c 128,-1,1
1302 448 m 0,14,15
 1302 678 1302 678 1140 838 c 1,16,17
 978 1000 978 1000 750 1000 c 128,-1,18
 522 1000 522 1000 360 838 c 1,19,20
 198 678 198 678 198 448 c 0,21,22
 198 220 198 220 360 56 c 1,23,24
 522 -106 522 -106 750 -106 c 128,-1,25
 978 -106 978 -106 1140 56 c 1,26,27
 1302 220 1302 220 1302 448 c 0,14,15
1078 140 m 1,28,-1
 932 -6 l 1,29,30
 912 22 912 22 898 98 c 1,31,32
 882 174 882 174 852 206 c 1,33,34
 834 228 834 228 806 270 c 1,35,36
 780 314 780 314 756 338 c 1,37,38
 712 370 712 370 704 374 c 1,39,40
 692 374 692 374 670 376 c 1,41,42
 650 376 650 376 638 376 c 1,43,44
 636 320 636 320 636 212 c 1,45,-1
 484 62 l 1,46,47
 484 290 484 290 508 684 c 1,48,-1
 566 742 l 1,49,50
 528 742 528 742 476 734 c 1,51,-1
 628 888 l 1,52,53
 724 904 724 904 854 884 c 128,-1,54
 984 864 984 864 1038 808 c 0,55,56
 1072 774 1072 774 1072 680 c 128,-1,57
 1072 586 1072 586 1042 558 c 1,58,-1
 932 446 l 1,59,60
 942 434 942 434 954 414 c 128,-1,61
 966 394 966 394 978 376 c 1,62,63
 990 360 990 360 1004 346 c 0,64,65
 1036 314 1036 314 1048 238 c 0,66,67
 1060 164 1060 164 1078 140 c 1,28,-1
918 528 m 1,68,69
 926 624 926 624 892 664 c 1,70,71
 828 730 828 730 656 738 c 1,72,73
 648 634 648 634 638 410 c 1,74,-1
 758 528 l 1,75,76
 794 548 794 548 842 526 c 1,77,78
 894 526 894 526 918 528 c 1,68,69
EndSplineSet
EndChar

StartChar: uni0D0E
Encoding: 3342 3342 113
Width: 2066
GlyphClass: 2
Flags: W
LayerCount: 2
Fore
SplineSet
2060 276 m 0,0,1
 2060 -176 2060 -176 1744 -398 c 1,2,-1
 1642 -356 l 1,3,4
 1890 -146 1890 -146 1890 246 c 0,5,6
 1890 510 1890 510 1778 658 c 128,-1,7
 1666 806 1666 806 1508 806 c 0,8,9
 1340 806 1340 806 1216 640 c 1,10,11
 1094 474 1094 474 1094 170 c 2,12,-1
 1094 70 l 1,13,-1
 1386 70 l 1,14,-1
 1386 664 l 1,15,-1
 1556 664 l 1,16,-1
 1556 -144 l 2,17,18
 1556 -252 1556 -252 1492 -324 c 1,19,20
 1428 -398 1428 -398 1320 -398 c 0,21,22
 1218 -398 1218 -398 1150 -334 c 1,23,24
 1082 -272 1082 -272 1054 -188 c 1,25,26
 1028 -102 1028 -102 1028 0 c 1,27,-1
 532 0 l 1,28,-1
 532 14 l 1,29,30
 680 104 680 104 680 268 c 0,31,32
 680 366 680 366 618 422 c 1,33,34
 558 480 558 480 472 480 c 0,35,36
 378 480 378 480 312 412 c 1,37,38
 244 344 244 344 244 222 c 0,39,40
 244 158 244 158 270 106 c 128,-1,41
 296 54 296 54 344 30 c 1,42,-1
 282 -20 l 1,43,44
 160 78 160 78 160 260 c 0,45,46
 160 426 160 426 262 518 c 0,47,48
 362 608 362 608 502 608 c 128,-1,49
 642 608 642 608 746 518 c 128,-1,50
 850 428 850 428 850 274 c 0,51,52
 850 156 850 156 776 70 c 1,53,-1
 1028 70 l 1,54,-1
 1028 168 l 2,55,56
 1028 534 1028 534 1180 728 c 1,57,58
 1334 922 1334 922 1546 922 c 0,59,60
 1754 922 1754 922 1906 746 c 1,61,62
 2060 572 2060 572 2060 276 c 0,0,1
1386 -126 m 2,63,-1
 1386 0 l 1,64,-1
 1094 0 l 1,65,66
 1094 -96 1094 -96 1134 -184 c 1,67,68
 1176 -270 1176 -270 1258 -270 c 0,69,70
 1316 -270 1316 -270 1352 -228 c 1,71,72
 1386 -186 1386 -186 1386 -126 c 2,63,-1
EndSplineSet
EndChar

StartChar: uni0D0F
Encoding: 3343 3343 114
Width: 2058
GlyphClass: 2
Flags: W
LayerCount: 2
Fore
SplineSet
2064 -40 m 0,0,1
 2064 -182 2064 -182 1992 -288 c 1,2,3
 1918 -394 1918 -394 1788 -394 c 0,4,5
 1734 -394 1734 -394 1680 -364 c 1,6,-1
 1658 -236 l 1,7,8
 1698 -268 1698 -268 1748 -268 c 0,9,10
 1810 -268 1810 -268 1844 -204 c 0,11,12
 1878 -142 1878 -142 1878 -52 c 0,13,14
 1878 60 1878 60 1828 142 c 1,15,16
 1780 226 1780 226 1692 226 c 2,17,-1
 1652 226 l 1,18,-1
 1652 316 l 1,19,-1
 1692 316 l 2,20,21
 1758 316 1758 316 1796 370 c 1,22,23
 1832 424 1832 424 1832 502 c 0,24,25
 1832 618 1832 618 1752 710 c 1,26,27
 1670 800 1670 800 1516 800 c 0,28,29
 1346 800 1346 800 1220 642 c 1,30,31
 1094 482 1094 482 1094 158 c 2,32,-1
 1094 70 l 1,33,-1
 1386 70 l 1,34,-1
 1386 664 l 1,35,-1
 1556 664 l 1,36,-1
 1556 -144 l 2,37,38
 1556 -256 1556 -256 1488 -322 c 1,39,40
 1420 -390 1420 -390 1324 -390 c 0,41,42
 1204 -390 1204 -390 1116 -288 c 1,43,44
 1028 -188 1028 -188 1028 0 c 1,45,-1
 532 0 l 1,46,-1
 532 14 l 1,47,48
 680 104 680 104 680 268 c 0,49,50
 680 366 680 366 618 422 c 1,51,52
 558 480 558 480 472 480 c 0,53,54
 378 480 378 480 312 412 c 1,55,56
 244 344 244 344 244 222 c 0,57,58
 244 158 244 158 270 106 c 128,-1,59
 296 54 296 54 344 30 c 1,60,-1
 282 -20 l 1,61,62
 160 78 160 78 160 260 c 0,63,64
 160 426 160 426 262 518 c 0,65,66
 362 608 362 608 502 608 c 128,-1,67
 642 608 642 608 746 518 c 128,-1,68
 850 428 850 428 850 274 c 0,69,70
 850 156 850 156 776 70 c 1,71,-1
 1028 70 l 1,72,-1
 1028 168 l 2,73,74
 1028 362 1028 362 1074 510 c 0,75,76
 1120 660 1120 660 1198 744 c 1,77,78
 1274 830 1274 830 1366 872 c 128,-1,79
 1458 914 1458 914 1558 914 c 0,80,81
 1760 914 1760 914 1892 786 c 128,-1,82
 2024 658 2024 658 2024 506 c 0,83,84
 2024 346 2024 346 1876 274 c 1,85,86
 1966 252 1966 252 2016 162 c 0,87,88
 2064 74 2064 74 2064 -40 c 0,0,1
1386 -126 m 2,89,-1
 1386 0 l 1,90,-1
 1094 0 l 1,91,92
 1094 -62 1094 -62 1108 -120 c 128,-1,93
 1122 -178 1122 -178 1162 -224 c 1,94,95
 1200 -270 1200 -270 1258 -270 c 128,-1,96
 1316 -270 1316 -270 1352 -228 c 1,97,98
 1386 -186 1386 -186 1386 -126 c 2,89,-1
EndSplineSet
EndChar

StartChar: uni0D10
Encoding: 3344 3344 115
Width: 3150
GlyphClass: 2
Flags: W
LayerCount: 2
Fore
SplineSet
3152 276 m 0,0,1
 3152 -176 3152 -176 2834 -398 c 1,2,-1
 2732 -356 l 1,3,4
 2982 -146 2982 -146 2982 246 c 0,5,6
 2982 508 2982 508 2868 658 c 1,7,8
 2752 806 2752 806 2596 806 c 0,9,10
 2430 806 2430 806 2308 638 c 1,11,12
 2184 472 2184 472 2184 170 c 2,13,-1
 2184 70 l 1,14,-1
 2476 70 l 1,15,-1
 2476 664 l 1,16,-1
 2646 664 l 1,17,-1
 2646 -144 l 2,18,19
 2646 -252 2646 -252 2582 -324 c 0,20,21
 2516 -398 2516 -398 2410 -398 c 0,22,23
 2308 -398 2308 -398 2240 -334 c 1,24,25
 2170 -272 2170 -272 2144 -188 c 0,26,27
 2118 -102 2118 -102 2118 0 c 1,28,-1
 1622 0 l 1,29,-1
 1622 14 l 1,30,31
 1770 102 1770 102 1770 268 c 0,32,33
 1770 366 1770 366 1708 422 c 1,34,35
 1646 480 1646 480 1564 480 c 0,36,37
 1472 480 1472 480 1404 412 c 1,38,39
 1336 346 1336 346 1336 222 c 0,40,41
 1336 158 1336 158 1360 106 c 1,42,43
 1386 54 1386 54 1434 30 c 1,44,-1
 1372 -20 l 1,45,46
 1250 80 1250 80 1250 260 c 0,47,48
 1250 426 1250 426 1350 518 c 1,49,50
 1452 608 1452 608 1590 608 c 0,51,52
 1730 608 1730 608 1834 520 c 1,53,54
 1938 430 1938 430 1938 274 c 0,55,56
 1938 150 1938 150 1866 70 c 1,57,-1
 2118 70 l 1,58,-1
 2118 168 l 2,59,60
 2118 534 2118 534 2270 728 c 128,-1,61
 2422 922 2422 922 2636 922 c 0,62,63
 2842 922 2842 922 2998 746 c 0,64,65
 3152 572 3152 572 3152 276 c 0,0,1
1106 426 m 0,66,67
 1106 290 1106 290 1044 172 c 0,68,69
 980 52 980 52 858 -24 c 1,70,-1
 758 22 l 1,71,72
 936 156 936 156 936 402 c 0,73,74
 936 592 936 592 834 702 c 128,-1,75
 732 812 732 812 592 812 c 0,76,77
 456 812 456 812 350 704 c 128,-1,78
 244 596 244 596 222 394 c 1,79,-1
 230 390 l 1,80,81
 322 536 322 536 444 536 c 0,82,83
 552 536 552 536 618 446 c 128,-1,84
 684 356 684 356 684 238 c 0,85,86
 684 130 684 130 624 52 c 1,87,88
 564 -24 564 -24 448 -24 c 0,89,90
 312 -24 312 -24 234 92 c 1,91,92
 156 206 156 206 156 372 c 0,93,94
 156 632 156 632 300 778 c 0,95,96
 442 922 442 922 638 922 c 0,97,98
 830 922 830 922 968 790 c 1,99,100
 1106 660 1106 660 1106 426 c 0,66,67
2476 -126 m 2,101,-1
 2476 0 l 1,102,-1
 2184 0 l 1,103,104
 2184 -96 2184 -96 2224 -184 c 1,105,106
 2266 -270 2266 -270 2348 -270 c 0,107,108
 2408 -270 2408 -270 2442 -228 c 128,-1,109
 2476 -186 2476 -186 2476 -126 c 2,101,-1
550 262 m 0,110,111
 550 332 550 332 512 384 c 128,-1,112
 474 436 474 436 406 436 c 0,113,114
 336 436 336 436 296 386 c 1,115,116
 258 336 258 336 258 268 c 0,117,118
 258 198 258 198 298 148 c 1,119,120
 338 96 338 96 410 96 c 0,121,122
 478 96 478 96 514 146 c 1,123,124
 550 194 550 194 550 262 c 0,110,111
EndSplineSet
EndChar

StartChar: uni0D11
Encoding: 3345 3345 116
Width: 2048
GlyphClass: 2
Flags: W
LayerCount: 2
Fore
SplineSet
1368 452 m 128,-1,1
 1368 200 1368 200 1190 22 c 1,2,3
 1012 -158 1012 -158 760 -158 c 0,4,5
 506 -158 506 -158 326 20 c 1,6,7
 148 198 148 198 148 450 c 0,8,9
 148 704 148 704 326 882 c 1,10,11
 506 1060 506 1060 758 1060 c 128,-1,12
 1010 1060 1010 1060 1188 882 c 1,13,0
 1368 704 1368 704 1368 452 c 128,-1,1
1302 448 m 0,14,15
 1302 678 1302 678 1140 838 c 1,16,17
 978 1000 978 1000 750 1000 c 128,-1,18
 522 1000 522 1000 360 838 c 1,19,20
 198 678 198 678 198 448 c 0,21,22
 198 220 198 220 360 56 c 1,23,24
 522 -106 522 -106 750 -106 c 128,-1,25
 978 -106 978 -106 1140 56 c 1,26,27
 1302 220 1302 220 1302 448 c 0,14,15
1078 140 m 1,28,-1
 932 -6 l 1,29,30
 912 22 912 22 898 98 c 1,31,32
 882 174 882 174 852 206 c 1,33,34
 834 228 834 228 806 270 c 1,35,36
 780 314 780 314 756 338 c 1,37,38
 712 370 712 370 704 374 c 1,39,40
 692 374 692 374 670 376 c 1,41,42
 650 376 650 376 638 376 c 1,43,44
 636 320 636 320 636 212 c 1,45,-1
 484 62 l 1,46,47
 484 290 484 290 508 684 c 1,48,-1
 566 742 l 1,49,50
 528 742 528 742 476 734 c 1,51,-1
 628 888 l 1,52,53
 724 904 724 904 854 884 c 128,-1,54
 984 864 984 864 1038 808 c 0,55,56
 1072 774 1072 774 1072 680 c 128,-1,57
 1072 586 1072 586 1042 558 c 1,58,-1
 932 446 l 1,59,60
 942 434 942 434 954 414 c 128,-1,61
 966 394 966 394 978 376 c 1,62,63
 990 360 990 360 1004 346 c 0,64,65
 1036 314 1036 314 1048 238 c 0,66,67
 1060 164 1060 164 1078 140 c 1,28,-1
918 528 m 1,68,69
 926 624 926 624 892 664 c 1,70,71
 828 730 828 730 656 738 c 1,72,73
 648 634 648 634 638 410 c 1,74,-1
 758 528 l 1,75,76
 794 548 794 548 842 526 c 1,77,78
 894 526 894 526 918 528 c 1,68,69
EndSplineSet
EndChar

StartChar: uni0D12
Encoding: 3346 3346 117
Width: 1200
GlyphClass: 2
Flags: W
LayerCount: 2
Fore
SplineSet
1200 230 m 0,0,1
 1200 112 1200 112 1116 46 c 1,2,3
 1030 -20 1030 -20 914 -20 c 0,4,5
 836 -20 836 -20 794 0 c 1,6,-1
 768 122 l 1,7,8
 808 80 808 80 882 80 c 0,9,10
 942 80 942 80 986 118 c 1,11,12
 1028 156 1028 156 1028 222 c 0,13,14
 1028 302 1028 302 984 360 c 1,15,16
 938 418 938 418 850 418 c 2,17,-1
 768 418 l 1,18,-1
 768 500 l 1,19,-1
 850 500 l 2,20,21
 906 500 906 500 940 538 c 1,22,23
 972 576 972 576 972 628 c 0,24,25
 972 714 972 714 882 774 c 1,26,27
 792 832 792 832 688 832 c 0,28,29
 496 832 496 832 376 724 c 128,-1,30
 256 616 256 616 234 394 c 1,31,-1
 238 390 l 1,32,33
 326 534 326 534 458 534 c 0,34,35
 568 534 568 534 630 448 c 1,36,37
 694 362 694 362 694 248 c 0,38,39
 694 138 694 138 630 56 c 0,40,41
 568 -24 568 -24 448 -24 c 0,42,43
 324 -24 324 -24 242 98 c 128,-1,44
 160 220 160 220 160 386 c 0,45,46
 160 654 160 654 322 788 c 1,47,48
 486 922 486 922 734 922 c 0,49,50
 898 922 898 922 1036 840 c 1,51,52
 1176 758 1176 758 1176 636 c 0,53,54
 1176 532 1176 532 1036 460 c 1,55,56
 1112 434 1112 434 1156 370 c 1,57,58
 1200 308 1200 308 1200 230 c 0,0,1
562 266 m 0,59,60
 562 334 562 334 522 386 c 0,61,62
 484 436 484 436 416 436 c 0,63,64
 356 436 356 436 312 392 c 128,-1,65
 268 348 268 348 268 270 c 0,66,67
 268 184 268 184 310 140 c 1,68,69
 350 96 350 96 410 96 c 0,70,71
 482 96 482 96 522 146 c 128,-1,72
 562 196 562 196 562 266 c 0,59,60
EndSplineSet
EndChar

StartChar: uni0D13
Encoding: 3347 3347 118
Width: 2010
GlyphClass: 2
Flags: W
LayerCount: 2
Fore
SplineSet
2012 444 m 0,0,1
 2012 330 2012 330 1978 228 c 0,2,3
 1944 124 1944 124 1860 50 c 1,4,5
 1778 -24 1778 -24 1658 -24 c 0,6,7
 1534 -24 1534 -24 1442 72 c 1,8,9
 1352 170 1352 170 1348 304 c 1,10,-1
 1414 304 l 1,11,12
 1424 220 1424 220 1478 158 c 1,13,14
 1532 98 1532 98 1606 98 c 0,15,16
 1692 98 1692 98 1748 164 c 0,17,18
 1806 232 1806 232 1826 312 c 1,19,20
 1848 394 1848 394 1848 476 c 0,21,22
 1848 552 1848 552 1830 626 c 128,-1,23
 1812 700 1812 700 1760 762 c 128,-1,24
 1708 824 1708 824 1630 824 c 0,25,26
 1542 824 1542 824 1476 752 c 128,-1,27
 1410 680 1410 680 1410 588 c 0,28,29
 1410 570 1410 570 1414 558 c 1,30,-1
 1348 558 l 1,31,-1
 1348 578 l 2,32,33
 1348 716 1348 716 1432 820 c 1,34,35
 1518 922 1518 922 1652 922 c 0,36,37
 1826 922 1826 922 1918 776 c 0,38,39
 2012 628 2012 628 2012 444 c 0,0,1
1200 230 m 0,40,41
 1200 112 1200 112 1116 46 c 1,42,43
 1030 -20 1030 -20 914 -20 c 0,44,45
 836 -20 836 -20 794 0 c 1,46,-1
 768 122 l 1,47,48
 808 80 808 80 882 80 c 0,49,50
 942 80 942 80 986 118 c 1,51,52
 1028 156 1028 156 1028 222 c 0,53,54
 1028 302 1028 302 984 360 c 1,55,56
 938 418 938 418 850 418 c 2,57,-1
 768 418 l 1,58,-1
 768 500 l 1,59,-1
 850 500 l 2,60,61
 906 500 906 500 940 538 c 1,62,63
 972 576 972 576 972 628 c 0,64,65
 972 714 972 714 882 774 c 1,66,67
 792 832 792 832 688 832 c 0,68,69
 496 832 496 832 376 724 c 128,-1,70
 256 616 256 616 234 394 c 1,71,-1
 238 390 l 1,72,73
 326 534 326 534 458 534 c 0,74,75
 568 534 568 534 630 448 c 1,76,77
 694 362 694 362 694 248 c 0,78,79
 694 138 694 138 630 56 c 0,80,81
 568 -24 568 -24 448 -24 c 0,82,83
 324 -24 324 -24 242 98 c 128,-1,84
 160 220 160 220 160 386 c 0,85,86
 160 654 160 654 322 788 c 1,87,88
 486 922 486 922 734 922 c 0,89,90
 898 922 898 922 1036 840 c 1,91,92
 1176 758 1176 758 1176 636 c 0,93,94
 1176 532 1176 532 1036 460 c 1,95,96
 1112 434 1112 434 1156 370 c 1,97,98
 1200 308 1200 308 1200 230 c 0,40,41
562 266 m 0,99,100
 562 334 562 334 522 386 c 0,101,102
 484 436 484 436 416 436 c 0,103,104
 356 436 356 436 312 392 c 128,-1,105
 268 348 268 348 268 270 c 0,106,107
 268 184 268 184 310 140 c 1,108,109
 350 96 350 96 410 96 c 0,110,111
 482 96 482 96 522 146 c 128,-1,112
 562 196 562 196 562 266 c 0,99,100
EndSplineSet
EndChar

StartChar: uni0D14
Encoding: 3348 3348 119
Width: 2570
GlyphClass: 2
Flags: W
LayerCount: 2
Fore
SplineSet
2566 446 m 0,0,1
 2566 250 2566 250 2444 112 c 1,2,3
 2322 -24 2322 -24 2080 -24 c 0,4,5
 1924 -24 1924 -24 1806 42 c 128,-1,6
 1688 108 1688 108 1688 208 c 2,7,-1
 1688 234 l 1,8,-1
 1754 234 l 1,9,-1
 1754 210 l 2,10,11
 1754 152 1754 152 1842 104 c 1,12,13
 1930 58 1930 58 2040 58 c 0,14,15
 2214 58 2214 58 2306 174 c 128,-1,16
 2398 290 2398 290 2398 450 c 0,17,18
 2398 628 2398 628 2316 722 c 128,-1,19
 2234 816 2234 816 2130 816 c 0,20,21
 2062 816 2062 816 2016 776 c 128,-1,22
 1970 736 1970 736 1970 668 c 2,23,-1
 1970 382 l 1,24,-1
 1798 382 l 1,25,-1
 1798 596 l 2,26,27
 1798 708 1798 708 1752 766 c 1,28,29
 1704 824 1704 824 1632 824 c 0,30,31
 1544 824 1544 824 1474 740 c 1,32,33
 1402 658 1402 658 1402 520 c 0,34,35
 1402 508 1402 508 1402 486 c 1,36,37
 1400 464 1400 464 1400 456 c 0,38,39
 1400 424 1400 424 1410 390 c 1,40,-1
 1344 390 l 1,41,42
 1336 418 1336 418 1336 462 c 2,43,-1
 1336 536 l 2,44,45
 1336 708 1336 708 1436 814 c 1,46,47
 1538 918 1538 918 1672 918 c 0,48,49
 1830 918 1830 918 1926 768 c 1,50,51
 2040 922 2040 922 2192 922 c 0,52,53
 2340 922 2340 922 2454 786 c 1,54,55
 2566 650 2566 650 2566 446 c 0,0,1
1200 230 m 0,56,57
 1200 112 1200 112 1116 46 c 1,58,59
 1030 -20 1030 -20 914 -20 c 0,60,61
 836 -20 836 -20 794 0 c 1,62,-1
 768 122 l 1,63,64
 808 80 808 80 882 80 c 0,65,66
 942 80 942 80 986 118 c 1,67,68
 1028 156 1028 156 1028 222 c 0,69,70
 1028 302 1028 302 984 360 c 1,71,72
 938 418 938 418 850 418 c 2,73,-1
 768 418 l 1,74,-1
 768 500 l 1,75,-1
 850 500 l 2,76,77
 906 500 906 500 940 538 c 1,78,79
 972 576 972 576 972 628 c 0,80,81
 972 714 972 714 882 774 c 1,82,83
 792 832 792 832 688 832 c 0,84,85
 496 832 496 832 376 724 c 128,-1,86
 256 616 256 616 234 394 c 1,87,-1
 238 390 l 1,88,89
 326 534 326 534 458 534 c 0,90,91
 568 534 568 534 630 448 c 1,92,93
 694 362 694 362 694 248 c 0,94,95
 694 138 694 138 630 56 c 0,96,97
 568 -24 568 -24 448 -24 c 0,98,99
 324 -24 324 -24 242 98 c 128,-1,100
 160 220 160 220 160 386 c 0,101,102
 160 654 160 654 322 788 c 1,103,104
 486 922 486 922 734 922 c 0,105,106
 898 922 898 922 1036 840 c 1,107,108
 1176 758 1176 758 1176 636 c 0,109,110
 1176 532 1176 532 1036 460 c 1,111,112
 1112 434 1112 434 1156 370 c 1,113,114
 1200 308 1200 308 1200 230 c 0,56,57
562 266 m 0,115,116
 562 334 562 334 522 386 c 0,117,118
 484 436 484 436 416 436 c 0,119,120
 356 436 356 436 312 392 c 128,-1,121
 268 348 268 348 268 270 c 0,122,123
 268 184 268 184 310 140 c 1,124,125
 350 96 350 96 410 96 c 0,126,127
 482 96 482 96 522 146 c 128,-1,128
 562 196 562 196 562 266 c 0,115,116
EndSplineSet
EndChar

StartChar: k1
Encoding: 3349 3349 120
Width: 1588
GlyphClass: 2
Flags: W
LayerCount: 2
Fore
SplineSet
1590 242 m 0,0,1
 1590 136 1590 136 1522 58 c 1,2,3
 1456 -20 1456 -20 1352 -20 c 0,4,5
 1274 -20 1274 -20 1222 18 c 1,6,-1
 1212 114 l 1,7,8
 1264 82 1264 82 1294 82 c 0,9,10
 1364 82 1364 82 1402 138 c 1,11,12
 1442 192 1442 192 1442 266 c 0,13,14
 1442 388 1442 388 1384 418 c 1,15,16
 1326 450 1326 450 1198 450 c 2,17,-1
 1184 450 l 1,18,19
 1184 372 1184 372 1168 294 c 1,20,21
 1150 218 1150 218 1118 144 c 1,22,23
 1084 70 1084 70 1018 24 c 0,24,25
 954 -20 954 -20 870 -20 c 0,26,27
 700 -20 700 -20 622 144 c 1,28,29
 558 -20 558 -20 422 -20 c 0,30,31
 304 -20 304 -20 228 66 c 1,32,33
 152 154 152 154 152 274 c 0,34,35
 152 342 152 342 172 390 c 0,36,37
 192 436 192 436 222 462 c 1,38,39
 250 488 250 488 300 502 c 0,40,41
 348 516 348 516 390 520 c 1,42,43
 432 522 432 522 496 522 c 2,44,-1
 570 522 l 1,45,46
 570 676 570 676 644 796 c 1,47,48
 716 918 716 918 860 918 c 0,49,50
 1006 918 1006 918 1084 800 c 128,-1,51
 1162 682 1162 682 1176 522 c 1,52,-1
 1312 522 l 2,53,54
 1440 522 1440 522 1514 446 c 0,55,56
 1590 368 1590 368 1590 242 c 0,0,1
1036 522 m 1,57,58
 1036 626 1036 626 984 716 c 1,59,60
 930 804 930 804 832 804 c 128,-1,61
 734 804 734 804 686 716 c 1,62,63
 636 628 636 628 636 522 c 1,64,-1
 1036 522 l 1,57,58
1036 450 m 1,65,-1
 636 450 l 1,66,67
 634 424 634 424 634 372 c 0,68,69
 634 264 634 264 684 172 c 1,70,71
 732 80 732 80 828 80 c 0,72,73
 890 80 890 80 934 116 c 1,74,75
 978 154 978 154 1000 216 c 1,76,77
 1020 278 1020 278 1028 334 c 128,-1,78
 1036 390 1036 390 1036 450 c 1,65,-1
570 276 m 2,79,-1
 570 450 l 1,80,-1
 502 450 l 2,81,82
 300 450 300 450 300 286 c 0,83,84
 300 212 300 212 336 146 c 1,85,86
 374 80 374 80 442 80 c 0,87,88
 570 80 570 80 570 276 c 2,79,-1
EndSplineSet
EndChar

StartChar: k2
Encoding: 3350 3350 121
Width: 1636
GlyphClass: 2
Flags: W
LayerCount: 2
Fore
SplineSet
1634 0 m 1,0,-1
 734 0 l 1,1,-1
 734 46 l 1,2,3
 838 118 838 118 890 222 c 128,-1,4
 942 326 942 326 942 434 c 0,5,6
 942 604 942 604 838 708 c 128,-1,7
 734 812 734 812 592 812 c 0,8,9
 454 812 454 812 350 706 c 1,10,11
 244 600 244 600 222 394 c 1,12,-1
 230 390 l 1,13,14
 322 536 322 536 444 536 c 0,15,16
 552 536 552 536 618 448 c 128,-1,17
 684 360 684 360 684 244 c 0,18,19
 684 134 684 134 620 54 c 0,20,21
 558 -24 558 -24 438 -24 c 0,22,23
 304 -24 304 -24 230 84 c 1,24,25
 158 192 158 192 158 354 c 0,26,27
 158 632 158 632 298 778 c 1,28,29
 438 922 438 922 636 922 c 0,30,31
 828 922 828 922 968 798 c 1,32,33
 1110 674 1110 674 1110 468 c 0,34,35
 1110 248 1110 248 934 70 c 1,36,-1
 1464 70 l 1,37,-1
 1464 902 l 1,38,-1
 1634 902 l 1,39,-1
 1634 0 l 1,0,-1
550 266 m 0,40,41
 550 334 550 334 512 386 c 1,42,43
 474 436 474 436 406 436 c 0,44,45
 346 436 346 436 302 392 c 128,-1,46
 258 348 258 348 258 270 c 0,47,48
 258 184 258 184 300 140 c 1,49,50
 340 96 340 96 398 96 c 0,51,52
 472 96 472 96 510 146 c 1,53,54
 550 196 550 196 550 266 c 0,40,41
EndSplineSet
EndChar

StartChar: k3
Encoding: 3351 3351 122
Width: 1416
GlyphClass: 2
Flags: W
LayerCount: 2
Fore
SplineSet
1410 480 m 0,0,1
 1410 318 1410 318 1336 180 c 0,2,3
 1264 44 1264 44 1118 -24 c 1,4,-1
 1074 26 l 1,5,6
 1194 80 1194 80 1256 192 c 0,7,8
 1318 306 1318 306 1318 432 c 0,9,10
 1318 582 1318 582 1248 690 c 1,11,12
 1176 796 1176 796 1056 796 c 0,13,14
 972 796 972 796 916 712 c 1,15,16
 858 628 858 628 858 460 c 2,17,-1
 858 456 l 1,18,-1
 858 444 l 1,19,-1
 860 308 l 2,20,21
 862 156 862 156 766 68 c 1,22,23
 672 -20 672 -20 538 -20 c 0,24,25
 354 -20 354 -20 256 116 c 128,-1,26
 158 252 158 252 158 442 c 0,27,28
 158 778 158 778 410 918 c 1,29,-1
 456 866 l 1,30,31
 344 800 344 800 296 710 c 128,-1,32
 248 620 248 620 248 476 c 0,33,34
 248 322 248 322 318 212 c 1,35,36
 390 102 390 102 520 102 c 0,37,38
 602 102 602 102 658 170 c 1,39,40
 712 238 712 238 710 370 c 1,41,-1
 710 374 l 1,42,-1
 710 540 l 2,43,44
 710 712 710 712 814 814 c 1,45,46
 918 914 918 914 1056 914 c 0,47,48
 1224 914 1224 914 1316 788 c 1,49,50
 1410 662 1410 662 1410 480 c 0,0,1
EndSplineSet
EndChar

StartChar: k4
Encoding: 3352 3352 123
Width: 2244
GlyphClass: 2
Flags: W
LayerCount: 2
Fore
SplineSet
2242 0 m 1,0,-1
 972 0 l 1,1,-1
 972 330 l 1,2,-1
 484 330 l 1,3,-1
 484 344 l 1,4,5
 634 434 634 434 634 582 c 0,6,7
 634 678 634 678 576 736 c 1,8,9
 518 792 518 792 440 792 c 0,10,11
 360 792 360 792 304 728 c 1,12,13
 246 664 246 664 246 544 c 0,14,15
 246 430 246 430 336 362 c 1,16,-1
 276 308 l 1,17,18
 156 408 156 408 156 590 c 0,19,20
 156 746 156 746 248 832 c 1,21,22
 342 918 342 918 472 918 c 0,23,24
 606 918 606 918 706 830 c 1,25,26
 804 742 804 742 804 586 c 0,27,28
 804 480 804 480 730 398 c 1,29,-1
 972 398 l 1,30,-1
 972 510 l 2,31,32
 972 694 972 694 1094 808 c 128,-1,33
 1216 922 1216 922 1396 922 c 0,34,35
 1606 922 1606 922 1712 788 c 0,36,37
 1816 656 1816 656 1818 366 c 1,38,-1
 1818 332 l 1,39,-1
 1818 330 l 1,40,-1
 1142 330 l 1,41,-1
 1142 70 l 1,42,-1
 2072 70 l 1,43,-1
 2072 902 l 1,44,-1
 2242 902 l 1,45,-1
 2242 0 l 1,0,-1
1738 406 m 1,46,-1
 1738 440 l 1,47,48
 1736 644 1736 644 1666 736 c 1,49,50
 1594 828 1594 828 1450 828 c 0,51,52
 1316 828 1316 828 1230 742 c 1,53,54
 1142 656 1142 656 1142 510 c 2,55,-1
 1142 398 l 1,56,-1
 1738 398 l 1,57,-1
 1738 402 l 1,58,-1
 1738 406 l 1,46,-1
EndSplineSet
EndChar

StartChar: ng
Encoding: 3353 3353 124
Width: 1658
GlyphClass: 2
Flags: W
LayerCount: 2
Fore
SplineSet
1660 244 m 0,0,1
 1660 116 1660 116 1558 46 c 128,-1,2
 1456 -24 1456 -24 1320 -24 c 0,3,4
 1240 -24 1240 -24 1176 0 c 1,5,-1
 1148 118 l 1,6,7
 1204 70 1204 70 1316 70 c 0,8,9
 1392 70 1392 70 1442 110 c 1,10,11
 1490 152 1490 152 1490 234 c 0,12,13
 1490 304 1490 304 1424 352 c 0,14,15
 1356 402 1356 402 1272 402 c 2,16,-1
 1224 402 l 1,17,-1
 1192 402 l 1,18,-1
 1192 492 l 1,19,-1
 1266 492 l 2,20,21
 1366 492 1366 492 1420 538 c 1,22,23
 1472 584 1472 584 1472 648 c 0,24,25
 1472 730 1472 730 1410 772 c 1,26,27
 1348 816 1348 816 1258 816 c 128,-1,28
 1168 816 1168 816 1098 772 c 0,29,30
 1030 730 1030 730 1030 656 c 2,31,-1
 1030 0 l 1,32,-1
 860 0 l 1,33,-1
 860 614 l 2,34,35
 860 694 860 694 780 750 c 1,36,37
 698 806 698 806 600 806 c 0,38,39
 432 806 432 806 338 710 c 1,40,41
 244 612 244 612 222 394 c 1,42,-1
 230 390 l 1,43,44
 320 534 320 534 450 534 c 0,45,46
 560 534 560 534 622 450 c 128,-1,47
 684 366 684 366 684 254 c 0,48,49
 684 140 684 140 618 58 c 128,-1,50
 552 -24 552 -24 428 -24 c 0,51,52
 302 -24 302 -24 228 84 c 1,53,54
 156 194 156 194 156 354 c 0,55,56
 156 626 156 626 302 774 c 1,57,58
 446 922 446 922 680 922 c 0,59,60
 894 922 894 922 988 760 c 1,61,62
 1088 918 1088 918 1298 918 c 0,63,64
 1436 918 1436 918 1540 844 c 128,-1,65
 1644 770 1644 770 1644 652 c 0,66,67
 1644 532 1644 532 1508 464 c 1,68,69
 1580 434 1580 434 1620 374 c 128,-1,70
 1660 314 1660 314 1660 244 c 0,0,1
550 270 m 0,71,72
 550 338 550 338 512 388 c 1,73,74
 474 436 474 436 406 436 c 0,75,76
 346 436 346 436 302 392 c 128,-1,77
 258 348 258 348 258 270 c 0,78,79
 258 180 258 180 294 138 c 1,80,81
 332 96 332 96 390 96 c 0,82,83
 464 96 464 96 508 148 c 1,84,85
 550 200 550 200 550 270 c 0,71,72
EndSplineSet
EndChar

StartChar: ch1
Encoding: 3354 3354 125
Width: 1488
GlyphClass: 2
Flags: W
LayerCount: 2
Fore
SplineSet
1490 0 m 1,0,-1
 152 0 l 1,1,-1
 152 70 l 1,2,-1
 582 70 l 2,3,4
 676 70 676 70 730 138 c 1,5,6
 784 204 784 204 784 294 c 0,7,8
 784 370 784 370 744 424 c 0,9,10
 702 480 702 480 626 480 c 0,11,12
 558 480 558 480 514 430 c 0,13,14
 468 378 468 378 468 312 c 0,15,16
 468 274 468 274 488 234 c 1,17,-1
 398 234 l 1,18,19
 374 294 374 294 374 346 c 0,20,21
 374 452 374 452 452 530 c 1,22,23
 530 606 530 606 648 606 c 0,24,25
 790 606 790 606 872 520 c 1,26,27
 952 432 952 432 952 312 c 0,28,29
 952 164 952 164 840 70 c 1,30,-1
 1320 70 l 1,31,-1
 1320 902 l 1,32,-1
 1490 902 l 1,33,-1
 1490 0 l 1,0,-1
EndSplineSet
EndChar

StartChar: ch2
Encoding: 3355 3355 126
Width: 1974
GlyphClass: 2
Flags: W
LayerCount: 2
Fore
SplineSet
1972 398 m 0,0,1
 1972 198 1972 198 1882 90 c 1,2,3
 1792 -20 1792 -20 1672 -20 c 0,4,5
 1564 -20 1564 -20 1486 68 c 1,6,7
 1406 156 1406 156 1406 304 c 0,8,9
 1406 572 1406 572 1634 760 c 1,10,11
 1580 802 1580 802 1508 802 c 0,12,13
 1340 802 1340 802 1240 684 c 1,14,15
 1140 564 1140 564 1140 402 c 0,16,17
 1140 290 1140 290 1190 192 c 128,-1,18
 1240 94 1240 94 1336 34 c 1,19,-1
 1336 0 l 1,20,-1
 148 0 l 1,21,-1
 148 70 l 1,22,-1
 562 70 l 2,23,24
 636 70 636 70 680 136 c 128,-1,25
 724 202 724 202 724 288 c 0,26,27
 724 368 724 368 686 424 c 128,-1,28
 648 480 648 480 574 480 c 0,29,30
 508 480 508 480 458 434 c 1,31,32
 410 388 410 388 410 308 c 0,33,34
 410 272 410 272 432 234 c 1,35,-1
 344 234 l 1,36,37
 330 278 330 278 330 332 c 0,38,39
 330 462 330 462 408 534 c 1,40,41
 488 606 488 606 598 606 c 0,42,43
 730 606 730 606 814 514 c 128,-1,44
 898 422 898 422 898 300 c 0,45,46
 898 158 898 158 794 70 c 1,47,-1
 1172 70 l 1,48,49
 1048 240 1048 240 1048 456 c 0,50,51
 1048 652 1048 652 1162 784 c 1,52,53
 1276 918 1276 918 1492 918 c 0,54,55
 1690 918 1690 918 1830 754 c 1,56,57
 1972 592 1972 592 1972 398 c 0,0,1
1814 380 m 0,58,59
 1814 484 1814 484 1782 578 c 1,60,61
 1748 672 1748 672 1694 714 c 1,62,63
 1484 542 1484 542 1484 340 c 0,64,65
 1484 236 1484 236 1534 172 c 0,66,67
 1586 106 1586 106 1652 106 c 0,68,69
 1720 106 1720 106 1768 176 c 1,70,71
 1814 246 1814 246 1814 380 c 0,58,59
EndSplineSet
EndChar

StartChar: ch3
Encoding: 3356 3356 127
Width: 1440
GlyphClass: 2
Flags: W
LayerCount: 2
Fore
SplineSet
1442 620 m 0,0,1
 1442 498 1442 498 1334 412 c 1,2,3
 1224 328 1224 328 1014 328 c 2,4,-1
 594 328 l 1,5,-1
 520 328 l 2,6,7
 422 328 422 328 368 286 c 1,8,9
 316 244 316 244 316 188 c 0,10,11
 316 144 316 144 348 112 c 1,12,13
 380 82 380 82 438 82 c 0,14,15
 562 82 562 82 876 200 c 1,16,17
 1192 320 1192 320 1236 320 c 0,18,19
 1332 320 1332 320 1386 266 c 0,20,21
 1442 210 1442 210 1442 140 c 0,22,23
 1442 72 1442 72 1388 24 c 1,24,25
 1336 -24 1336 -24 1236 -24 c 0,26,27
 1168 -24 1168 -24 1106 24 c 1,28,29
 1044 74 1044 74 1044 136 c 0,30,31
 1044 172 1044 172 1070 208 c 1,32,-1
 1068 212 l 1,33,34
 1054 206 1054 206 1008 190 c 1,35,36
 962 172 962 172 938 160 c 0,37,38
 562 -24 562 -24 364 -24 c 0,39,40
 266 -24 266 -24 208 28 c 1,41,42
 152 82 152 82 152 158 c 0,43,44
 152 254 152 254 248 326 c 1,45,46
 346 398 346 398 532 398 c 2,47,-1
 988 398 l 2,48,49
 1114 398 1114 398 1186 472 c 128,-1,50
 1258 546 1258 546 1258 644 c 0,51,52
 1258 736 1258 736 1202 788 c 0,53,54
 1144 842 1144 842 1070 842 c 0,55,56
 998 842 998 842 944 788 c 1,57,58
 890 736 890 736 890 638 c 2,59,-1
 890 462 l 1,60,-1
 722 462 l 1,61,-1
 722 674 l 2,62,63
 722 752 722 752 654 798 c 128,-1,64
 586 844 586 844 492 844 c 0,65,66
 370 844 370 844 294 766 c 1,67,-1
 300 760 l 1,68,69
 330 778 330 778 368 778 c 0,70,71
 432 778 432 778 480 730 c 1,72,73
 528 680 528 680 528 614 c 0,74,75
 528 538 528 538 482 480 c 1,76,77
 436 420 436 420 362 420 c 0,78,79
 264 420 264 420 212 476 c 1,80,81
 160 530 160 530 160 614 c 0,82,83
 160 754 160 754 276 836 c 1,84,85
 394 918 394 918 550 918 c 0,86,87
 740 918 740 918 858 808 c 1,88,89
 926 918 926 918 1086 918 c 0,90,91
 1220 918 1220 918 1332 836 c 1,92,93
 1442 754 1442 754 1442 620 c 0,0,1
1320 164 m 0,94,95
 1320 200 1320 200 1292 226 c 1,96,97
 1264 250 1264 250 1226 250 c 0,98,99
 1184 250 1184 250 1154 226 c 0,100,101
 1122 200 1122 200 1122 164 c 0,102,103
 1122 124 1122 124 1154 102 c 128,-1,104
 1186 80 1186 80 1226 80 c 128,-1,105
 1266 80 1266 80 1294 104 c 0,106,107
 1320 126 1320 126 1320 164 c 0,94,95
406 602 m 0,108,109
 406 706 406 706 320 706 c 0,110,111
 282 706 282 706 258 674 c 128,-1,112
 234 642 234 642 234 602 c 0,113,114
 234 564 234 564 258 530 c 128,-1,115
 282 496 282 496 320 496 c 0,116,117
 406 496 406 496 406 602 c 0,108,109
EndSplineSet
EndChar

StartChar: ch4
Encoding: 3357 3357 128
Width: 2548
GlyphClass: 2
Flags: W
LayerCount: 2
Fore
SplineSet
2550 448 m 0,0,1
 2550 256 2550 256 2442 116 c 128,-1,2
 2334 -24 2334 -24 2156 -24 c 0,3,4
 1982 -24 1982 -24 1866 132 c 1,5,6
 1772 -24 1772 -24 1602 -24 c 0,7,8
 1472 -24 1472 -24 1374 74 c 0,9,10
 1274 174 1274 174 1274 332 c 2,11,-1
 1274 530 l 2,12,13
 1274 650 1274 650 1210 732 c 1,14,15
 1146 816 1146 816 1026 816 c 0,16,17
 946 816 946 816 906 802 c 1,18,19
 1006 718 1006 718 1068 606 c 1,20,21
 1128 492 1128 492 1128 368 c 0,22,23
 1128 218 1128 218 1046 98 c 1,24,25
 962 -20 962 -20 816 -20 c 0,26,27
 686 -20 686 -20 608 100 c 0,28,29
 528 222 528 222 528 358 c 0,30,31
 528 478 528 478 586 590 c 0,32,33
 646 704 646 704 742 780 c 1,34,35
 694 804 694 804 600 804 c 0,36,37
 434 804 434 804 342 686 c 128,-1,38
 250 568 250 568 250 402 c 0,39,40
 250 138 250 138 442 14 c 1,41,-1
 374 -20 l 1,42,43
 156 136 156 136 156 432 c 0,44,45
 156 632 156 632 272 776 c 1,46,47
 390 918 390 918 600 918 c 0,48,49
 734 918 734 918 836 858 c 1,50,51
 924 918 924 918 1086 918 c 0,52,53
 1246 918 1246 918 1332 816 c 1,54,55
 1418 712 1418 712 1418 562 c 2,56,-1
 1418 372 l 2,57,58
 1418 222 1418 222 1478 150 c 1,59,60
 1540 78 1540 78 1626 78 c 0,61,62
 1702 78 1702 78 1764 126 c 1,63,64
 1824 174 1824 174 1824 238 c 2,65,-1
 1824 902 l 1,66,-1
 1994 902 l 1,67,-1
 1994 338 l 2,68,69
 1994 226 1994 226 2048 164 c 1,70,71
 2102 104 2102 104 2180 104 c 0,72,73
 2304 104 2304 104 2380 216 c 1,74,75
 2458 326 2458 326 2458 476 c 0,76,77
 2458 598 2458 598 2398 704 c 0,78,79
 2336 812 2336 812 2220 866 c 1,80,-1
 2278 918 l 1,81,82
 2412 846 2412 846 2482 720 c 0,83,84
 2550 596 2550 596 2550 448 c 0,0,1
978 370 m 0,85,86
 978 596 978 596 800 746 c 1,87,88
 594 580 594 580 594 356 c 0,89,90
 594 264 594 264 646 186 c 1,91,92
 698 106 698 106 786 106 c 0,93,94
 878 106 878 106 928 188 c 128,-1,95
 978 270 978 270 978 370 c 0,85,86
EndSplineSet
EndChar

StartChar: nj
Encoding: 3358 3358 129
Width: 2260
GlyphClass: 2
Flags: W
LayerCount: 2
Fore
SplineSet
2266 414 m 0,0,1
 2266 284 2266 284 2200 168 c 0,2,3
 2136 54 2136 54 2012 -20 c 1,4,-1
 1912 14 l 1,5,6
 1998 82 1998 82 2044 182 c 1,7,8
 2092 280 2092 280 2092 390 c 0,9,10
 2092 570 2092 570 1982 700 c 1,11,12
 1874 832 1874 832 1688 832 c 0,13,14
 1626 832 1626 832 1568 808 c 1,15,16
 1792 622 1792 622 1792 368 c 0,17,18
 1792 188 1792 188 1700 86 c 1,19,20
 1610 -16 1610 -16 1486 -16 c 0,21,22
 1366 -16 1366 -16 1280 82 c 128,-1,23
 1194 180 1194 180 1194 358 c 0,24,25
 1194 480 1194 480 1252 594 c 1,26,27
 1308 708 1308 708 1406 780 c 1,28,29
 1352 804 1352 804 1278 804 c 0,30,31
 1178 804 1178 804 1104 756 c 1,32,33
 1030 706 1030 706 1030 614 c 2,34,-1
 1030 0 l 1,35,-1
 860 0 l 1,36,-1
 860 614 l 2,37,38
 860 694 860 694 780 750 c 1,39,40
 698 806 698 806 600 806 c 0,41,42
 432 806 432 806 338 710 c 1,43,44
 244 612 244 612 222 394 c 1,45,-1
 230 390 l 1,46,47
 318 534 318 534 448 534 c 0,48,49
 558 534 558 534 622 448 c 1,50,51
 686 360 686 360 686 246 c 0,52,53
 686 134 686 134 624 54 c 0,54,55
 564 -24 564 -24 448 -24 c 0,56,57
 312 -24 312 -24 234 88 c 1,58,59
 158 200 158 200 158 364 c 0,60,61
 158 632 158 632 304 782 c 128,-1,62
 450 932 450 932 680 922 c 0,63,64
 762 918 762 918 848 874 c 0,65,66
 936 830 936 830 964 760 c 1,67,68
 1008 842 1008 842 1100 882 c 0,69,70
 1194 922 1194 922 1294 922 c 0,71,72
 1410 922 1410 922 1500 858 c 1,73,74
 1612 918 1612 918 1754 918 c 0,75,76
 1986 918 1986 918 2126 766 c 1,77,78
 2266 616 2266 616 2266 414 c 0,0,1
1644 370 m 0,79,80
 1644 600 1644 600 1466 746 c 1,81,82
 1258 590 1258 590 1258 356 c 0,83,84
 1258 242 1258 242 1316 176 c 1,85,86
 1374 108 1374 108 1452 108 c 0,87,88
 1532 108 1532 108 1588 176 c 128,-1,89
 1644 244 1644 244 1644 370 c 0,79,80
550 262 m 0,90,91
 550 332 550 332 512 384 c 128,-1,92
 474 436 474 436 406 436 c 0,93,94
 346 436 346 436 302 392 c 128,-1,95
 258 348 258 348 258 270 c 0,96,97
 258 188 258 188 304 142 c 1,98,99
 348 96 348 96 410 96 c 0,100,101
 478 96 478 96 514 146 c 1,102,103
 550 194 550 194 550 262 c 0,90,91
EndSplineSet
EndChar

StartChar: t1
Encoding: 3359 3359 130
Width: 948
GlyphClass: 2
Flags: W
LayerCount: 2
Fore
SplineSet
954 286 m 0,0,1
 954 136 954 136 840 58 c 1,2,3
 728 -20 728 -20 562 -20 c 0,4,5
 442 -20 442 -20 332 20 c 128,-1,6
 222 60 222 60 156 126 c 1,7,-1
 206 186 l 1,8,9
 256 134 256 134 356 102 c 128,-1,10
 456 70 456 70 558 70 c 0,11,12
 674 70 674 70 748 112 c 0,13,14
 824 154 824 154 824 238 c 0,15,16
 824 292 824 292 772 330 c 128,-1,17
 720 368 720 368 622 368 c 2,18,-1
 424 368 l 2,19,20
 300 368 300 368 226 442 c 1,21,22
 152 514 152 514 152 618 c 0,23,24
 152 766 152 766 266 842 c 128,-1,25
 380 918 380 918 546 918 c 0,26,27
 666 918 666 918 776 878 c 1,28,29
 886 840 886 840 952 772 c 1,30,-1
 898 716 l 1,31,32
 786 832 786 832 574 832 c 0,33,34
 452 832 452 832 370 784 c 128,-1,35
 288 736 288 736 288 648 c 0,36,37
 288 596 288 596 328 560 c 128,-1,38
 368 524 368 524 438 524 c 2,39,-1
 634 524 l 2,40,41
 788 524 788 524 872 456 c 1,42,43
 954 388 954 388 954 286 c 0,0,1
EndSplineSet
EndChar

StartChar: t2
Encoding: 3360 3360 131
Width: 1088
GlyphClass: 2
Flags: W
LayerCount: 2
Fore
SplineSet
1086 444 m 0,0,1
 1086 248 1086 248 948 114 c 1,2,3
 812 -20 812 -20 614 -20 c 0,4,5
 420 -20 420 -20 288 108 c 1,6,7
 158 236 158 236 158 430 c 0,8,9
 158 634 158 634 280 776 c 1,10,11
 404 918 404 918 604 918 c 0,12,13
 812 918 812 918 948 784 c 1,14,15
 1086 652 1086 652 1086 444 c 0,0,1
914 438 m 0,16,17
 914 584 914 584 814 688 c 128,-1,18
 714 792 714 792 570 792 c 0,19,20
 424 792 424 792 322 694 c 1,21,22
 222 594 222 594 222 450 c 128,-1,23
 222 306 222 306 324 200 c 128,-1,24
 426 94 426 94 570 94 c 0,25,26
 712 94 712 94 814 196 c 0,27,28
 914 296 914 296 914 438 c 0,16,17
EndSplineSet
EndChar

StartChar: t3
Encoding: 3361 3361 132
Width: 2014
GlyphClass: 2
Flags: W
LayerCount: 2
Fore
SplineSet
2016 456 m 0,0,1
 2016 248 2016 248 1894 112 c 1,2,3
 1774 -24 1774 -24 1616 -24 c 0,4,5
 1444 -24 1444 -24 1328 132 c 1,6,7
 1222 -24 1222 -24 1044 -24 c 0,8,9
 906 -24 906 -24 800 76 c 1,10,11
 696 178 696 178 698 348 c 1,12,-1
 698 354 l 1,13,-1
 700 510 l 1,14,-1
 700 518 l 1,15,-1
 700 524 l 2,16,17
 700 660 700 660 650 728 c 128,-1,18
 600 796 600 796 524 796 c 0,19,20
 422 796 422 796 334 692 c 1,21,22
 248 586 248 586 248 424 c 0,23,24
 248 300 248 300 306 192 c 1,25,26
 362 84 362 84 476 28 c 1,27,-1
 432 -20 l 1,28,29
 294 50 294 50 226 180 c 128,-1,30
 158 310 158 310 158 458 c 0,31,32
 158 670 158 670 276 796 c 128,-1,33
 394 922 394 922 542 922 c 0,34,35
 670 922 670 922 756 824 c 1,36,37
 844 728 844 728 844 542 c 2,38,-1
 844 386 l 2,39,40
 844 230 844 230 914 152 c 1,41,42
 984 76 984 76 1082 76 c 0,43,44
 1164 76 1164 76 1226 122 c 128,-1,45
 1288 168 1288 168 1288 238 c 2,46,-1
 1288 902 l 1,47,-1
 1458 902 l 1,48,-1
 1458 338 l 2,49,50
 1458 224 1458 224 1508 162 c 1,51,52
 1558 102 1558 102 1634 102 c 0,53,54
 1740 102 1740 102 1830 208 c 1,55,56
 1922 314 1922 314 1922 484 c 0,57,58
 1922 602 1922 602 1862 706 c 1,59,60
 1804 812 1804 812 1694 866 c 1,61,-1
 1748 918 l 1,62,63
 1880 848 1880 848 1948 722 c 0,64,65
 2016 598 2016 598 2016 456 c 0,0,1
EndSplineSet
EndChar

StartChar: t4
Encoding: 3362 3362 133
Width: 2104
GlyphClass: 2
Flags: W
LayerCount: 2
Fore
SplineSet
2106 520 m 0,0,1
 2106 306 2106 306 1988 138 c 0,2,3
 1872 -28 1872 -28 1660 -28 c 0,4,5
 1470 -28 1470 -28 1332 136 c 1,6,7
 1220 -24 1220 -24 1046 -24 c 0,8,9
 906 -24 906 -24 802 82 c 128,-1,10
 698 188 698 188 698 368 c 2,11,-1
 698 510 l 2,12,13
 698 654 698 654 648 724 c 1,14,15
 598 796 598 796 522 796 c 0,16,17
 404 796 404 796 326 684 c 1,18,19
 250 570 250 570 250 416 c 0,20,21
 250 292 250 292 306 190 c 1,22,23
 360 86 360 86 476 28 c 1,24,-1
 432 -20 l 1,25,26
 296 50 296 50 228 180 c 1,27,28
 158 310 158 310 158 456 c 0,29,30
 158 646 158 646 264 784 c 1,31,32
 368 922 368 922 544 922 c 0,33,34
 672 922 672 922 758 824 c 1,35,36
 844 728 844 728 844 540 c 2,37,-1
 844 394 l 2,38,39
 844 234 844 234 912 154 c 0,40,41
 978 76 978 76 1074 76 c 0,42,43
 1154 76 1154 76 1216 124 c 1,44,45
 1278 174 1278 174 1278 246 c 2,46,-1
 1278 902 l 1,47,-1
 1448 902 l 1,48,-1
 1448 330 l 2,49,50
 1448 220 1448 220 1530 148 c 1,51,52
 1612 78 1612 78 1722 78 c 0,53,54
 1854 78 1854 78 1946 186 c 1,55,56
 2040 294 2040 294 2040 514 c 1,57,-1
 2038 514 l 1,58,59
 1994 436 1994 436 1950 402 c 0,60,61
 1904 366 1904 366 1824 366 c 0,62,63
 1718 366 1718 366 1656 454 c 1,64,65
 1594 540 1594 540 1594 656 c 128,-1,66
 1594 772 1594 772 1666 846 c 1,67,68
 1738 922 1738 922 1836 922 c 0,69,70
 1962 922 1962 922 2034 804 c 128,-1,71
 2106 686 2106 686 2106 520 c 0,0,1
2012 630 m 0,72,73
 2012 716 2012 716 1968 766 c 1,74,75
 1926 816 1926 816 1868 816 c 128,-1,76
 1810 816 1810 816 1768 770 c 128,-1,77
 1726 724 1726 724 1726 644 c 0,78,79
 1726 572 1726 572 1762 520 c 1,80,81
 1798 466 1798 466 1860 466 c 0,82,83
 1930 466 1930 466 1970 514 c 1,84,85
 2012 562 2012 562 2012 630 c 0,72,73
EndSplineSet
EndChar

StartChar: nh
Encoding: 3363 3363 134
Width: 2258
GlyphClass: 2
Flags: W
LayerCount: 2
Fore
SplineSet
2250 448 m 0,0,1
 2250 300 2250 300 2176 172 c 128,-1,2
 2102 44 2102 44 1956 -20 c 1,3,-1
 1868 22 l 1,4,5
 1974 86 1974 86 2028 200 c 1,6,7
 2080 314 2080 314 2080 440 c 0,8,9
 2080 626 2080 626 1998 720 c 0,10,11
 1914 816 1914 816 1806 816 c 0,12,13
 1728 816 1728 816 1676 770 c 1,14,15
 1622 724 1622 724 1622 652 c 2,16,-1
 1622 0 l 1,17,-1
 1452 0 l 1,18,-1
 1452 566 l 2,19,20
 1452 666 1452 666 1386 736 c 1,21,22
 1320 804 1320 804 1218 804 c 0,23,24
 1148 804 1148 804 1090 766 c 1,25,26
 1030 728 1030 728 1030 660 c 2,27,-1
 1030 0 l 1,28,-1
 860 0 l 1,29,-1
 860 614 l 2,30,31
 860 694 860 694 780 750 c 1,32,33
 698 806 698 806 600 806 c 0,34,35
 432 806 432 806 338 710 c 1,36,37
 244 612 244 612 222 394 c 1,38,-1
 230 390 l 1,39,40
 318 534 318 534 448 534 c 0,41,42
 544 534 544 534 616 452 c 1,43,44
 686 370 686 370 686 244 c 0,45,46
 686 122 686 122 612 50 c 1,47,48
 538 -24 538 -24 438 -24 c 0,49,50
 308 -24 308 -24 232 88 c 128,-1,51
 156 200 156 200 156 360 c 0,52,53
 156 628 156 628 302 776 c 0,54,55
 446 922 446 922 680 922 c 0,56,57
 898 922 898 922 992 760 c 1,58,59
 1090 918 1090 918 1270 918 c 0,60,61
 1486 918 1486 918 1582 770 c 1,62,63
 1668 922 1668 922 1840 922 c 0,64,65
 1996 922 1996 922 2124 790 c 0,66,67
 2250 660 2250 660 2250 448 c 0,0,1
550 258 m 0,68,69
 550 342 550 342 506 390 c 1,70,71
 462 436 462 436 406 436 c 0,72,73
 346 436 346 436 302 392 c 128,-1,74
 258 348 258 348 258 270 c 0,75,76
 258 184 258 184 300 140 c 1,77,78
 340 96 340 96 398 96 c 0,79,80
 458 96 458 96 504 140 c 128,-1,81
 550 184 550 184 550 258 c 0,68,69
EndSplineSet
EndChar

StartChar: th1
Encoding: 3364 3364 135
Width: 1596
GlyphClass: 2
Flags: W
LayerCount: 2
Fore
SplineSet
1598 406 m 0,0,1
 1598 278 1598 278 1532 164 c 0,2,3
 1468 52 1468 52 1348 -20 c 1,4,-1
 1246 14 l 1,5,6
 1422 152 1422 152 1422 380 c 0,7,8
 1422 564 1422 564 1312 700 c 128,-1,9
 1202 836 1202 836 1022 836 c 0,10,11
 960 836 960 836 902 808 c 1,12,13
 1002 724 1002 724 1064 608 c 1,14,15
 1128 492 1128 492 1128 368 c 0,16,17
 1128 188 1128 188 1038 86 c 1,18,19
 946 -16 946 -16 824 -16 c 128,-1,20
 702 -16 702 -16 616 82 c 1,21,22
 528 180 528 180 528 358 c 0,23,24
 528 478 528 478 586 590 c 0,25,26
 646 704 646 704 742 780 c 1,27,28
 666 816 666 816 600 816 c 0,29,30
 456 816 456 816 354 690 c 1,31,32
 250 564 250 564 250 402 c 0,33,34
 250 142 250 142 442 14 c 1,35,-1
 374 -20 l 1,36,37
 156 136 156 136 156 432 c 0,38,39
 156 646 156 646 286 784 c 1,40,41
 418 922 418 922 602 922 c 0,42,43
 720 922 720 922 836 858 c 1,44,45
 938 922 938 922 1068 922 c 0,46,47
 1306 922 1306 922 1452 766 c 128,-1,48
 1598 610 1598 610 1598 406 c 0,0,1
978 370 m 0,49,50
 978 596 978 596 800 746 c 1,51,52
 594 580 594 580 594 356 c 0,53,54
 594 240 594 240 652 174 c 1,55,56
 708 108 708 108 784 108 c 0,57,58
 864 108 864 108 922 178 c 0,59,60
 978 246 978 246 978 370 c 0,49,50
EndSplineSet
EndChar

StartChar: th2
Encoding: 3365 3365 136
Width: 1498
GlyphClass: 2
Flags: W
LayerCount: 2
Fore
SplineSet
1500 0 m 1,0,-1
 158 0 l 1,1,-1
 158 902 l 1,2,-1
 330 902 l 1,3,-1
 330 70 l 1,4,-1
 668 70 l 1,5,-1
 668 532 l 2,6,7
 668 714 668 714 786 818 c 1,8,9
 906 922 906 922 1070 922 c 0,10,11
 1244 922 1244 922 1372 804 c 128,-1,12
 1500 686 1500 686 1500 472 c 2,13,-1
 1500 0 l 1,0,-1
1434 70 m 1,14,-1
 1434 448 l 2,15,16
 1434 626 1434 626 1344 720 c 1,17,18
 1256 816 1256 816 1132 816 c 0,19,20
 1012 816 1012 816 924 728 c 1,21,22
 836 642 836 642 836 492 c 2,23,-1
 836 70 l 1,24,-1
 1434 70 l 1,14,-1
EndSplineSet
EndChar

StartChar: th3
Encoding: 3366 3366 137
Width: 994
GlyphClass: 2
Flags: W
LayerCount: 2
Fore
SplineSet
992 254 m 0,0,1
 992 144 992 144 890 56 c 1,2,3
 790 -32 790 -32 624 -32 c 0,4,5
 556 -32 556 -32 484 -4 c 1,6,-1
 472 108 l 1,7,8
 520 66 520 66 612 66 c 0,9,10
 718 66 718 66 776 110 c 1,11,12
 832 154 832 154 832 218 c 0,13,14
 832 290 832 290 764 346 c 1,15,16
 698 402 698 402 582 402 c 2,17,-1
 492 402 l 1,18,-1
 492 492 l 1,19,-1
 578 492 l 2,20,21
 690 492 690 492 750 536 c 1,22,23
 812 580 812 580 812 644 c 0,24,25
 812 712 812 712 748 764 c 1,26,27
 686 816 686 816 582 816 c 0,28,29
 444 816 444 816 338 702 c 1,30,31
 234 588 234 588 234 358 c 0,32,33
 234 206 234 206 294 0 c 1,34,-1
 212 -20 l 1,35,36
 158 208 158 208 158 368 c 0,37,38
 158 644 158 644 298 780 c 1,39,40
 438 918 438 918 626 918 c 0,41,42
 784 918 784 918 884 838 c 128,-1,43
 984 758 984 758 984 656 c 0,44,45
 984 526 984 526 828 464 c 1,46,47
 910 436 910 436 950 378 c 1,48,49
 992 322 992 322 992 254 c 0,0,1
EndSplineSet
EndChar

StartChar: th4
Encoding: 3367 3367 138
Width: 1510
GlyphClass: 2
Flags: W
LayerCount: 2
Fore
SplineSet
1508 452 m 0,0,1
 1508 236 1508 236 1392 106 c 128,-1,2
 1276 -24 1276 -24 1118 -24 c 0,3,4
 922 -24 922 -24 824 132 c 1,5,6
 782 54 782 54 704 14 c 1,7,8
 626 -24 626 -24 546 -24 c 0,9,10
 394 -24 394 -24 276 110 c 1,11,12
 158 246 158 246 158 448 c 0,13,14
 158 596 158 596 230 722 c 0,15,16
 302 850 302 850 440 918 c 1,17,-1
 512 856 l 1,18,19
 424 792 424 792 376 678 c 0,20,21
 328 566 328 566 328 442 c 0,22,23
 328 260 328 260 402 170 c 128,-1,24
 476 80 476 80 578 80 c 0,25,26
 662 80 662 80 722 132 c 1,27,28
 784 184 784 184 784 260 c 2,29,-1
 784 902 l 1,30,-1
 954 902 l 1,31,-1
 954 338 l 2,32,33
 954 226 954 226 1008 164 c 1,34,35
 1062 104 1062 104 1142 104 c 0,36,37
 1250 104 1250 104 1334 204 c 128,-1,38
 1418 304 1418 304 1418 480 c 0,39,40
 1418 602 1418 602 1360 706 c 0,41,42
 1302 812 1302 812 1190 866 c 1,43,-1
 1246 918 l 1,44,45
 1374 848 1374 848 1440 722 c 1,46,47
 1508 596 1508 596 1508 452 c 0,0,1
EndSplineSet
EndChar

StartChar: n1
Encoding: 3368 3368 139
Width: 1530
GlyphClass: 2
Flags: W
LayerCount: 2
Fore
SplineSet
1528 446 m 0,0,1
 1528 302 1528 302 1452 174 c 128,-1,2
 1376 46 1376 46 1236 -20 c 1,3,-1
 1168 44 l 1,4,5
 1362 168 1362 168 1362 456 c 0,6,7
 1362 606 1362 606 1290 710 c 0,8,9
 1216 816 1216 816 1086 816 c 0,10,11
 1008 816 1008 816 954 770 c 1,12,13
 902 724 902 724 902 652 c 2,14,-1
 902 0 l 1,15,-1
 734 0 l 1,16,-1
 734 566 l 2,17,18
 734 672 734 672 674 732 c 128,-1,19
 614 792 614 792 530 792 c 0,20,21
 404 792 404 792 326 686 c 1,22,23
 250 578 250 578 250 430 c 0,24,25
 250 304 250 304 306 194 c 0,26,27
 362 86 362 86 480 32 c 1,28,-1
 422 -20 l 1,29,30
 290 52 290 52 226 176 c 128,-1,31
 162 300 162 300 162 444 c 0,32,33
 162 638 162 638 274 780 c 128,-1,34
 386 922 386 922 572 922 c 0,35,36
 658 922 658 922 738 880 c 0,37,38
 820 838 820 838 848 768 c 1,39,40
 938 922 938 922 1138 922 c 0,41,42
 1310 922 1310 922 1420 780 c 1,43,44
 1528 636 1528 636 1528 446 c 0,0,1
EndSplineSet
EndChar

StartChar: uni0D29
Encoding: 3369 3369 140
Width: 2048
GlyphClass: 2
Flags: W
LayerCount: 2
Fore
SplineSet
1368 452 m 128,-1,1
 1368 200 1368 200 1190 22 c 1,2,3
 1012 -158 1012 -158 760 -158 c 0,4,5
 506 -158 506 -158 326 20 c 1,6,7
 148 198 148 198 148 450 c 0,8,9
 148 704 148 704 326 882 c 1,10,11
 506 1060 506 1060 758 1060 c 128,-1,12
 1010 1060 1010 1060 1188 882 c 1,13,0
 1368 704 1368 704 1368 452 c 128,-1,1
1302 448 m 0,14,15
 1302 678 1302 678 1140 838 c 1,16,17
 978 1000 978 1000 750 1000 c 128,-1,18
 522 1000 522 1000 360 838 c 1,19,20
 198 678 198 678 198 448 c 0,21,22
 198 220 198 220 360 56 c 1,23,24
 522 -106 522 -106 750 -106 c 128,-1,25
 978 -106 978 -106 1140 56 c 1,26,27
 1302 220 1302 220 1302 448 c 0,14,15
1078 140 m 1,28,-1
 932 -6 l 1,29,30
 912 22 912 22 898 98 c 1,31,32
 882 174 882 174 852 206 c 1,33,34
 834 228 834 228 806 270 c 1,35,36
 780 314 780 314 756 338 c 1,37,38
 712 370 712 370 704 374 c 1,39,40
 692 374 692 374 670 376 c 1,41,42
 650 376 650 376 638 376 c 1,43,44
 636 320 636 320 636 212 c 1,45,-1
 484 62 l 1,46,47
 484 290 484 290 508 684 c 1,48,-1
 566 742 l 1,49,50
 528 742 528 742 476 734 c 1,51,-1
 628 888 l 1,52,53
 724 904 724 904 854 884 c 128,-1,54
 984 864 984 864 1038 808 c 0,55,56
 1072 774 1072 774 1072 680 c 128,-1,57
 1072 586 1072 586 1042 558 c 1,58,-1
 932 446 l 1,59,60
 942 434 942 434 954 414 c 128,-1,61
 966 394 966 394 978 376 c 1,62,63
 990 360 990 360 1004 346 c 0,64,65
 1036 314 1036 314 1048 238 c 0,66,67
 1060 164 1060 164 1078 140 c 1,28,-1
918 528 m 1,68,69
 926 624 926 624 892 664 c 1,70,71
 828 730 828 730 656 738 c 1,72,73
 648 634 648 634 638 410 c 1,74,-1
 758 528 l 1,75,76
 794 548 794 548 842 526 c 1,77,78
 894 526 894 526 918 528 c 1,68,69
EndSplineSet
EndChar

StartChar: p1
Encoding: 3370 3370 141
Width: 1596
GlyphClass: 2
Flags: W
LayerCount: 2
Fore
SplineSet
1598 0 m 1,0,-1
 542 0 l 1,1,-1
 542 24 l 1,2,3
 690 118 690 118 690 274 c 0,4,5
 690 362 690 362 634 420 c 1,6,7
 580 480 580 480 480 480 c 0,8,9
 388 480 388 480 318 414 c 1,10,11
 248 350 248 350 248 238 c 0,12,13
 248 104 248 104 354 30 c 1,14,-1
 292 -20 l 1,15,16
 152 86 152 86 152 266 c 0,17,18
 152 426 152 426 258 518 c 1,19,20
 364 608 364 608 510 608 c 0,21,22
 662 608 662 608 762 506 c 1,23,24
 864 406 864 406 864 272 c 0,25,26
 864 160 864 160 786 70 c 1,27,-1
 1426 70 l 1,28,-1
 1426 902 l 1,29,-1
 1598 902 l 1,30,-1
 1598 0 l 1,0,-1
EndSplineSet
EndChar

StartChar: p2
Encoding: 3371 3371 142
Width: 1970
GlyphClass: 2
Flags: W
LayerCount: 2
Fore
SplineSet
1970 0 m 1,0,-1
 542 0 l 1,1,-1
 542 14 l 1,2,3
 690 108 690 108 690 268 c 0,4,5
 690 368 690 368 628 424 c 1,6,7
 568 480 568 480 480 480 c 0,8,9
 388 480 388 480 318 414 c 1,10,11
 248 350 248 350 248 238 c 0,12,13
 248 104 248 104 354 30 c 1,14,-1
 292 -20 l 1,15,16
 152 86 152 86 152 266 c 0,17,18
 152 426 152 426 258 516 c 128,-1,19
 364 606 364 606 508 606 c 128,-1,20
 652 606 652 606 756 518 c 0,21,22
 862 428 862 428 862 270 c 0,23,24
 862 158 862 158 786 70 c 1,25,-1
 1138 70 l 1,26,-1
 1138 532 l 2,27,28
 1138 714 1138 714 1260 818 c 1,29,30
 1380 922 1380 922 1546 922 c 0,31,32
 1716 922 1716 922 1844 806 c 1,33,34
 1970 690 1970 690 1970 480 c 2,35,-1
 1970 0 l 1,0,-1
1904 70 m 1,36,-1
 1904 398 l 2,37,38
 1904 598 1904 598 1812 704 c 1,39,40
 1720 812 1720 812 1594 812 c 0,41,42
 1478 812 1478 812 1394 724 c 1,43,44
 1308 638 1308 638 1308 492 c 2,45,-1
 1308 70 l 1,46,-1
 1904 70 l 1,36,-1
EndSplineSet
EndChar

StartChar: p3
Encoding: 3372 3372 143
Width: 2096
GlyphClass: 2
Flags: W
LayerCount: 2
Fore
SplineSet
2094 0 m 1,0,-1
 1270 0 l 1,1,-1
 1270 50 l 1,2,3
 1362 106 1362 106 1416 228 c 128,-1,4
 1470 350 1470 350 1470 484 c 0,5,6
 1470 626 1470 626 1402 720 c 1,7,8
 1336 816 1336 816 1204 816 c 0,9,10
 1124 816 1124 816 1064 772 c 128,-1,11
 1004 728 1004 728 1004 656 c 2,12,-1
 1004 0 l 1,13,-1
 836 0 l 1,14,-1
 836 614 l 2,15,16
 836 696 836 696 762 752 c 1,17,18
 688 806 688 806 594 806 c 0,19,20
 426 806 426 806 332 708 c 1,21,22
 240 610 240 610 218 394 c 1,23,-1
 226 390 l 1,24,25
 314 536 314 536 438 536 c 0,26,27
 540 536 540 536 600 450 c 1,28,29
 660 362 660 362 660 246 c 0,30,31
 660 134 660 134 602 54 c 1,32,33
 544 -24 544 -24 434 -24 c 0,34,35
 304 -24 304 -24 228 88 c 128,-1,36
 152 200 152 200 152 362 c 0,37,38
 152 600 152 600 290 760 c 1,39,40
 428 922 428 922 644 922 c 0,41,42
 746 922 746 922 822 882 c 128,-1,43
 898 842 898 842 968 758 c 1,44,45
 1020 834 1020 834 1098 876 c 128,-1,46
 1176 918 1176 918 1254 918 c 0,47,48
 1436 918 1436 918 1534 792 c 1,49,50
 1632 668 1632 668 1632 488 c 0,51,52
 1632 366 1632 366 1588 258 c 1,53,54
 1542 148 1542 148 1458 78 c 1,55,-1
 1462 70 l 1,56,-1
 1946 70 l 1,57,-1
 1946 902 l 1,58,-1
 2094 902 l 1,59,-1
 2094 0 l 1,0,-1
528 262 m 0,60,61
 528 332 528 332 490 386 c 1,62,63
 452 438 452 438 390 438 c 0,64,65
 336 438 336 438 294 394 c 1,66,67
 254 348 254 348 254 270 c 0,68,69
 254 186 254 186 294 142 c 0,70,71
 336 96 336 96 394 96 c 0,72,73
 456 96 456 96 492 146 c 1,74,75
 528 194 528 194 528 262 c 0,60,61
EndSplineSet
EndChar

StartChar: p4
Encoding: 3373 3373 144
Width: 1024
GlyphClass: 2
Flags: W
LayerCount: 2
Fore
SplineSet
1022 180 m 0,0,1
 1022 98 1022 98 934 36 c 0,2,3
 848 -24 848 -24 680 -24 c 0,4,5
 534 -24 534 -24 382 12 c 1,6,-1
 364 108 l 1,7,8
 488 70 488 70 644 70 c 0,9,10
 744 70 744 70 796 100 c 0,11,12
 850 132 850 132 850 174 c 0,13,14
 850 204 850 204 822 230 c 1,15,16
 792 254 792 254 742 260 c 0,17,18
 714 264 714 264 656 268 c 128,-1,19
 598 272 598 272 578 274 c 0,20,21
 474 284 474 284 420 328 c 0,22,23
 368 370 368 370 368 428 c 0,24,25
 368 494 368 494 424 542 c 128,-1,26
 480 590 480 590 562 590 c 0,27,28
 594 590 594 590 662 580 c 128,-1,29
 730 570 730 570 764 570 c 128,-1,30
 798 570 798 570 826 594 c 1,31,32
 852 618 852 618 852 652 c 0,33,34
 852 714 852 714 782 766 c 1,35,36
 712 820 712 820 588 820 c 0,37,38
 442 820 442 820 338 708 c 128,-1,39
 234 596 234 596 234 356 c 0,40,41
 234 224 234 224 296 -2 c 1,42,-1
 210 -20 l 1,43,44
 158 238 158 238 158 370 c 0,45,46
 158 650 158 650 292 786 c 1,47,48
 428 922 428 922 620 922 c 0,49,50
 804 922 804 922 914 832 c 1,51,52
 1022 742 1022 742 1022 634 c 0,53,54
 1022 570 1022 570 974 524 c 0,55,56
 928 480 928 480 852 480 c 0,57,58
 822 480 822 480 762 494 c 1,59,60
 702 510 702 510 672 510 c 0,61,62
 616 510 616 510 578 486 c 1,63,64
 540 460 540 460 540 426 c 128,-1,65
 540 392 540 392 580 368 c 0,66,67
 618 346 618 346 698 346 c 0,68,69
 720 346 720 346 760 350 c 1,70,71
 798 352 798 352 820 352 c 0,72,73
 908 352 908 352 964 302 c 0,74,75
 1022 250 1022 250 1022 180 c 0,0,1
EndSplineSet
EndChar

StartChar: m1
Encoding: 3374 3374 145
Width: 1046
GlyphClass: 2
Flags: W
LayerCount: 2
Fore
SplineSet
1046 0 m 1,0,-1
 158 0 l 1,1,-1
 158 320 l 2,2,3
 158 634 158 634 266 778 c 1,4,5
 372 922 372 922 592 922 c 0,6,7
 804 922 804 922 926 780 c 1,8,9
 1046 638 1046 638 1046 372 c 2,10,-1
 1046 0 l 1,0,-1
910 70 m 1,11,-1
 910 398 l 2,12,13
 910 492 910 492 898 562 c 0,14,15
 886 630 886 630 858 698 c 1,16,17
 828 766 828 766 762 802 c 0,18,19
 698 838 698 838 600 836 c 1,20,21
 742 738 742 738 742 590 c 0,22,23
 742 510 742 510 708 434 c 0,24,25
 674 356 674 356 622 298 c 128,-1,26
 570 240 570 240 506 178 c 128,-1,27
 442 116 442 116 386 70 c 1,28,-1
 910 70 l 1,11,-1
594 622 m 0,29,30
 594 696 594 696 558 746 c 1,31,32
 520 794 520 794 450 794 c 0,33,34
 244 794 244 794 244 342 c 2,35,-1
 244 70 l 1,36,37
 594 320 594 320 594 622 c 0,29,30
EndSplineSet
EndChar

StartChar: y1
Encoding: 3375 3375 146
Width: 1624
GlyphClass: 2
Flags: W
LayerCount: 2
Fore
SplineSet
1618 506 m 0,0,1
 1618 292 1618 292 1480 136 c 128,-1,2
 1342 -20 1342 -20 1110 -20 c 0,3,4
 996 -20 996 -20 942 6 c 1,5,6
 848 -20 848 -20 742 -20 c 0,7,8
 460 -20 460 -20 312 144 c 1,9,10
 162 308 162 308 162 520 c 0,11,12
 162 684 162 684 248 800 c 1,13,14
 334 918 334 918 480 918 c 0,15,16
 630 918 630 918 722 742 c 1,17,18
 856 918 856 918 1026 918 c 0,19,20
 1158 918 1158 918 1244 806 c 1,21,22
 1332 694 1332 694 1332 562 c 0,23,24
 1332 238 1332 238 1046 82 c 1,25,26
 1082 70 1082 70 1116 70 c 0,27,28
 1302 70 1302 70 1410 198 c 1,29,30
 1516 328 1516 328 1516 506 c 0,31,32
 1516 732 1516 732 1362 866 c 1,33,-1
 1438 918 l 1,34,35
 1618 758 1618 758 1618 506 c 0,0,1
1164 500 m 0,36,37
 1164 614 1164 614 1114 710 c 0,38,39
 1064 804 1064 804 960 804 c 128,-1,40
 856 804 856 804 796 712 c 1,41,42
 738 620 738 620 738 510 c 0,43,44
 738 392 738 392 794 282 c 1,45,46
 852 174 852 174 954 118 c 1,47,48
 1056 168 1056 168 1110 272 c 128,-1,49
 1164 376 1164 376 1164 500 c 0,36,37
844 82 m 1,50,51
 742 138 742 138 672 268 c 1,52,53
 604 398 604 398 604 518 c 0,54,55
 604 616 604 616 562 704 c 1,56,57
 518 792 518 792 432 792 c 0,58,59
 352 792 352 792 304 710 c 0,60,61
 254 626 254 626 254 512 c 0,62,63
 254 336 254 336 372 202 c 1,64,65
 490 70 490 70 724 70 c 0,66,67
 804 70 804 70 844 82 c 1,50,51
EndSplineSet
EndChar

StartChar: r3
Encoding: 3376 3376 147
Width: 1080
GlyphClass: 2
Flags: W
LayerCount: 2
Fore
SplineSet
1086 402 m 0,0,1
 1086 196 1086 196 1000 88 c 1,2,3
 916 -20 916 -20 796 -20 c 0,4,5
 684 -20 684 -20 602 68 c 0,6,7
 518 158 518 158 518 304 c 0,8,9
 518 570 518 570 746 760 c 1,10,11
 676 816 676 816 594 816 c 0,12,13
 440 816 440 816 350 686 c 1,14,15
 258 556 258 556 258 378 c 0,16,17
 258 152 258 152 436 20 c 1,18,-1
 390 -24 l 1,19,20
 158 124 158 124 158 430 c 0,21,22
 158 632 158 632 278 780 c 1,23,24
 400 926 400 926 614 926 c 0,25,26
 804 926 804 926 946 786 c 0,27,28
 1086 648 1086 648 1086 402 c 0,0,1
928 380 m 0,29,30
 928 486 928 486 896 578 c 0,31,32
 864 672 864 672 806 714 c 1,33,34
 598 542 598 542 598 340 c 0,35,36
 598 242 598 242 654 174 c 1,37,38
 708 106 708 106 776 106 c 0,39,40
 840 106 840 106 884 176 c 1,41,42
 928 244 928 244 928 380 c 0,29,30
EndSplineSet
EndChar

StartChar: rh
Encoding: 3377 3377 148
Width: 1048
GlyphClass: 2
Flags: W
LayerCount: 2
Fore
SplineSet
1048 450 m 0,0,1
 1048 300 1048 300 966 166 c 1,2,3
 884 34 884 34 738 -20 c 1,4,-1
 680 62 l 1,5,6
 780 110 780 110 830 204 c 0,7,8
 880 300 880 300 880 406 c 0,9,10
 880 570 880 570 788 660 c 1,11,12
 694 750 694 750 566 750 c 0,13,14
 436 750 436 750 340 658 c 1,15,16
 246 566 246 566 246 402 c 0,17,18
 246 282 246 282 304 182 c 1,19,20
 360 82 360 82 472 34 c 1,21,-1
 436 -20 l 1,22,23
 302 46 302 46 228 168 c 1,24,25
 156 292 156 292 156 434 c 0,26,27
 156 658 156 658 294 788 c 1,28,29
 434 918 434 918 620 918 c 0,30,31
 796 918 796 918 922 796 c 128,-1,32
 1048 674 1048 674 1048 450 c 0,0,1
EndSplineSet
EndChar

StartChar: l3
Encoding: 3378 3378 149
Width: 1462
GlyphClass: 2
Flags: W
LayerCount: 2
Fore
SplineSet
1458 0 m 1,0,-1
 158 0 l 1,1,-1
 158 426 l 2,2,3
 158 662 158 662 282 790 c 1,4,5
 408 918 408 918 582 918 c 128,-1,6
 756 918 756 918 884 788 c 1,7,8
 1014 658 1014 658 1014 426 c 2,9,-1
 1014 330 l 1,10,-1
 330 330 l 1,11,-1
 330 70 l 1,12,-1
 1288 70 l 1,13,-1
 1288 902 l 1,14,-1
 1458 902 l 1,15,-1
 1458 0 l 1,0,-1
936 398 m 1,16,-1
 936 402 l 1,17,-1
 936 476 l 2,18,19
 936 644 936 644 848 732 c 128,-1,20
 760 820 760 820 634 820 c 0,21,22
 512 820 512 820 420 736 c 0,23,24
 330 654 330 654 330 510 c 2,25,-1
 330 398 l 1,26,-1
 936 398 l 1,16,-1
EndSplineSet
EndChar

StartChar: lh
Encoding: 3379 3379 150
Width: 1134
GlyphClass: 2
Flags: W
LayerCount: 2
Fore
SplineSet
1142 -368 m 1,0,-1
 374 -368 l 2,1,2
 278 -368 278 -368 216 -316 c 0,3,4
 152 -262 152 -262 152 -168 c 0,5,6
 152 -76 152 -76 216 -14 c 1,7,8
 280 50 280 50 374 50 c 2,9,-1
 738 50 l 2,10,11
 820 50 820 50 890 94 c 128,-1,12
 960 138 960 138 960 212 c 0,13,14
 960 282 960 282 900 316 c 1,15,16
 838 348 838 348 762 348 c 1,17,-1
 762 456 l 1,18,19
 840 456 840 456 900 504 c 0,20,21
 958 550 958 550 958 626 c 0,22,23
 958 728 958 728 864 774 c 128,-1,24
 770 820 770 820 656 820 c 0,25,26
 512 820 512 820 392 748 c 1,27,28
 272 678 272 678 238 546 c 1,29,-1
 250 540 l 1,30,31
 322 656 322 656 442 656 c 0,32,33
 544 656 544 656 608 578 c 1,34,35
 670 500 670 500 670 394 c 0,36,37
 670 280 670 280 602 204 c 0,38,39
 532 126 532 126 422 126 c 0,40,41
 300 126 300 126 226 226 c 128,-1,42
 152 326 152 326 152 452 c 0,43,44
 152 672 152 672 304 794 c 1,45,46
 456 918 456 918 682 918 c 0,47,48
 750 918 750 918 826 900 c 1,49,50
 904 880 904 880 974 844 c 0,51,52
 1046 808 1046 808 1092 748 c 128,-1,53
 1138 688 1138 688 1138 614 c 0,54,55
 1138 488 1138 488 988 402 c 1,56,57
 1138 344 1138 344 1138 208 c 0,58,59
 1138 98 1138 98 1046 28 c 1,60,61
 954 -40 954 -40 840 -40 c 2,62,-1
 374 -40 l 2,63,64
 328 -40 328 -40 292 -64 c 128,-1,65
 256 -88 256 -88 256 -134 c 0,66,67
 256 -176 256 -176 292 -196 c 1,68,69
 328 -218 328 -218 374 -218 c 2,70,-1
 1142 -218 l 1,71,-1
 1142 -368 l 1,0,-1
534 398 m 0,72,73
 534 460 534 460 500 514 c 1,74,75
 466 566 466 566 406 566 c 0,76,77
 350 566 350 566 320 514 c 1,78,79
 288 462 288 462 288 402 c 0,80,81
 288 336 288 336 320 280 c 0,82,83
 350 226 350 226 410 226 c 0,84,85
 472 226 472 226 502 278 c 0,86,87
 534 332 534 332 534 398 c 0,72,73
EndSplineSet
EndChar

StartChar: zh
Encoding: 3380 3380 151
Width: 1058
GlyphClass: 2
Flags: W
LayerCount: 2
Fore
SplineSet
1062 614 m 0,0,1
 1062 502 1062 502 984 408 c 1,2,3
 906 316 906 316 746 272 c 1,4,5
 766 216 766 216 766 176 c 0,6,7
 766 90 766 90 702 36 c 1,8,9
 636 -16 636 -16 530 -16 c 0,10,11
 330 -16 330 -16 252 126 c 1,12,-1
 304 180 l 1,13,14
 318 124 318 124 368 98 c 1,15,16
 418 70 418 70 480 70 c 0,17,18
 540 70 540 70 574 104 c 1,19,20
 606 140 606 140 606 192 c 0,21,22
 606 226 606 226 594 260 c 1,23,24
 400 260 400 260 278 374 c 1,25,26
 158 488 158 488 158 638 c 0,27,28
 158 814 158 814 312 922 c 1,29,-1
 386 852 l 1,30,31
 316 764 316 764 316 638 c 0,32,33
 316 514 316 514 386 422 c 1,34,35
 454 330 454 330 578 330 c 1,36,37
 488 460 488 460 488 622 c 0,38,39
 488 766 488 766 564 842 c 1,40,41
 642 918 642 918 750 918 c 0,42,43
 886 918 886 918 974 828 c 128,-1,44
 1062 738 1062 738 1062 614 c 0,0,1
970 610 m 0,45,46
 970 692 970 692 924 750 c 1,47,48
 876 806 876 806 798 806 c 0,49,50
 734 806 734 806 686 756 c 1,51,52
 638 704 638 704 638 610 c 0,53,54
 638 454 638 454 720 334 c 1,55,56
 846 360 846 360 908 438 c 128,-1,57
 970 516 970 516 970 610 c 0,45,46
EndSplineSet
EndChar

StartChar: v1
Encoding: 3381 3381 152
Width: 1466
GlyphClass: 2
Flags: W
LayerCount: 2
Fore
SplineSet
1466 0 m 1,0,-1
 660 0 l 1,1,-1
 660 40 l 1,2,3
 878 198 878 198 878 402 c 0,4,5
 878 566 878 566 784 660 c 1,6,7
 688 754 688 754 558 754 c 0,8,9
 412 754 412 754 328 650 c 128,-1,10
 244 546 244 546 244 402 c 0,11,12
 244 290 244 290 296 194 c 0,13,14
 350 96 350 96 450 46 c 1,15,-1
 416 -20 l 1,16,17
 286 52 286 52 222 176 c 1,18,19
 156 300 156 300 156 440 c 0,20,21
 156 636 156 636 276 778 c 1,22,23
 398 918 398 918 608 918 c 0,24,25
 786 918 786 918 918 798 c 1,26,27
 1048 678 1048 678 1048 464 c 0,28,29
 1048 254 1048 254 878 70 c 1,30,-1
 1296 70 l 1,31,-1
 1296 902 l 1,32,-1
 1466 902 l 1,33,-1
 1466 0 l 1,0,-1
EndSplineSet
EndChar

StartChar: z1
Encoding: 3382 3382 153
Width: 1608
GlyphClass: 2
Flags: W
LayerCount: 2
Fore
SplineSet
1610 382 m 0,0,1
 1610 216 1610 216 1530 98 c 128,-1,2
 1450 -20 1450 -20 1312 -20 c 0,3,4
 1200 -20 1200 -20 1118 68 c 0,5,6
 1034 158 1034 158 1034 304 c 0,7,8
 1034 578 1034 578 1280 772 c 1,9,10
 1196 842 1196 842 1112 842 c 0,11,12
 1006 842 1006 842 932 742 c 0,13,14
 860 644 860 644 860 500 c 2,15,-1
 860 350 l 2,16,17
 860 178 860 178 762 78 c 1,18,19
 664 -20 664 -20 526 -20 c 0,20,21
 378 -20 378 -20 268 98 c 1,22,23
 158 218 158 218 158 434 c 0,24,25
 158 590 158 590 232 720 c 0,26,27
 308 852 308 852 450 918 c 1,28,-1
 496 866 l 1,29,30
 372 814 372 814 310 700 c 0,31,32
 248 588 248 588 248 452 c 0,33,34
 248 296 248 296 330 198 c 1,35,36
 414 100 414 100 518 100 c 0,37,38
 600 100 600 100 656 172 c 1,39,40
 710 244 710 244 710 386 c 2,41,-1
 710 390 l 1,42,-1
 710 524 l 2,43,44
 710 714 710 714 824 818 c 128,-1,45
 938 922 938 922 1102 922 c 0,46,47
 1300 922 1300 922 1456 778 c 1,48,49
 1610 632 1610 632 1610 382 c 0,0,1
1450 358 m 0,50,51
 1450 464 1450 464 1418 570 c 1,52,53
 1384 674 1384 674 1332 724 c 1,54,55
 1112 548 1112 548 1112 340 c 0,56,57
 1112 242 1112 242 1168 174 c 1,58,59
 1222 106 1222 106 1292 106 c 0,60,61
 1372 106 1372 106 1412 178 c 0,62,63
 1450 248 1450 248 1450 358 c 0,50,51
EndSplineSet
EndChar

StartChar: sh
Encoding: 3383 3383 154
Width: 1886
GlyphClass: 2
Flags: W
LayerCount: 2
Fore
SplineSet
1886 0 m 1,0,-1
 542 0 l 1,1,-1
 542 14 l 1,2,3
 690 108 690 108 690 268 c 0,4,5
 690 368 690 368 628 424 c 1,6,7
 568 480 568 480 480 480 c 0,8,9
 388 480 388 480 318 414 c 1,10,11
 248 350 248 350 248 238 c 0,12,13
 248 104 248 104 354 30 c 1,14,-1
 292 -20 l 1,15,16
 152 86 152 86 152 266 c 0,17,18
 152 426 152 426 258 516 c 128,-1,19
 364 606 364 606 508 606 c 128,-1,20
 652 606 652 606 756 518 c 0,21,22
 862 428 862 428 862 270 c 0,23,24
 862 158 862 158 786 70 c 1,25,-1
 1180 70 l 1,26,-1
 1180 364 l 1,27,28
 1050 364 1050 364 952 454 c 128,-1,29
 854 544 854 544 854 672 c 0,30,31
 854 774 854 774 932 846 c 128,-1,32
 1010 918 1010 918 1114 918 c 0,33,34
 1190 918 1190 918 1240 888 c 1,35,36
 1290 860 1290 860 1312 806 c 1,37,38
 1336 754 1336 754 1344 702 c 128,-1,39
 1352 650 1352 650 1352 578 c 0,40,41
 1352 552 1352 552 1350 506 c 128,-1,42
 1348 460 1348 460 1348 440 c 1,43,44
 1486 480 1486 480 1638 622 c 1,45,46
 1788 764 1788 764 1832 902 c 1,47,-1
 1886 902 l 1,48,-1
 1886 0 l 1,0,-1
1724 70 m 1,49,-1
 1724 638 l 1,50,51
 1652 550 1652 550 1548 474 c 128,-1,52
 1444 398 1444 398 1348 376 c 1,53,-1
 1348 70 l 1,54,-1
 1724 70 l 1,49,-1
1180 434 m 1,55,-1
 1180 678 l 2,56,57
 1180 804 1180 804 1068 804 c 0,58,59
 1016 804 1016 804 988 758 c 128,-1,60
 960 712 960 712 960 656 c 0,61,62
 960 566 960 566 1024 504 c 128,-1,63
 1088 442 1088 442 1180 434 c 1,55,-1
EndSplineSet
EndChar

StartChar: s1
Encoding: 3384 3384 155
Width: 2002
GlyphClass: 2
Flags: W
LayerCount: 2
Fore
SplineSet
2000 424 m 0,0,1
 2000 242 2000 242 1908 114 c 1,2,3
 1814 -12 1814 -12 1644 -12 c 0,4,5
 1506 -12 1506 -12 1402 84 c 1,6,7
 1298 182 1298 182 1298 344 c 2,8,-1
 1298 496 l 2,9,10
 1298 666 1298 666 1230 746 c 1,11,12
 1162 828 1162 828 1068 828 c 0,13,14
 990 828 990 828 928 778 c 1,15,16
 866 730 866 730 866 660 c 2,17,-1
 866 8 l 1,18,-1
 694 8 l 1,19,-1
 694 574 l 2,20,21
 694 684 694 684 642 744 c 1,22,23
 588 804 588 804 510 804 c 0,24,25
 406 804 406 804 320 710 c 1,26,27
 236 616 236 616 236 462 c 0,28,29
 236 322 236 322 292 208 c 1,30,31
 350 96 350 96 472 40 c 1,32,-1
 416 -12 l 1,33,34
 148 132 148 132 148 488 c 0,35,36
 148 686 148 686 264 808 c 1,37,38
 378 930 378 930 536 930 c 0,39,40
 712 930 712 930 826 778 c 1,41,42
 926 926 926 926 1100 926 c 0,43,44
 1236 926 1236 926 1340 828 c 1,45,46
 1444 732 1444 732 1444 578 c 2,47,-1
 1444 402 l 2,48,49
 1444 266 1444 266 1510 190 c 1,50,51
 1574 112 1574 112 1662 112 c 0,52,53
 1776 112 1776 112 1842 212 c 1,54,55
 1906 314 1906 314 1906 456 c 0,56,57
 1906 592 1906 592 1844 708 c 128,-1,58
 1782 824 1782 824 1658 878 c 1,59,-1
 1714 926 l 1,60,61
 1860 856 1860 856 1930 720 c 0,62,63
 2000 586 2000 586 2000 424 c 0,0,1
EndSplineSet
EndChar

StartChar: h1
Encoding: 3385 3385 156
Width: 2002
GlyphClass: 2
Flags: W
LayerCount: 2
Fore
SplineSet
2002 444 m 0,0,1
 2002 292 2002 292 1924 164 c 0,2,3
 1844 34 1844 34 1692 -20 c 1,4,-1
 1634 62 l 1,5,6
 1730 110 1730 110 1782 202 c 0,7,8
 1832 292 1832 292 1832 398 c 0,9,10
 1832 564 1832 564 1734 656 c 1,11,12
 1636 750 1636 750 1500 750 c 0,13,14
 1366 750 1366 750 1266 658 c 0,15,16
 1168 568 1168 568 1168 406 c 0,17,18
 1168 278 1168 278 1240 174 c 1,19,20
 1312 68 1312 68 1440 34 c 1,21,-1
 1440 0 l 1,22,-1
 522 0 l 1,23,-1
 522 34 l 1,24,25
 592 58 592 58 632 120 c 1,26,27
 672 184 672 184 672 260 c 0,28,29
 672 356 672 356 612 410 c 1,30,31
 550 462 550 462 468 462 c 0,32,33
 378 462 378 462 312 404 c 1,34,35
 246 344 246 344 246 244 c 0,36,37
 246 100 246 100 354 30 c 1,38,-1
 292 -20 l 1,39,40
 228 28 228 28 190 106 c 128,-1,41
 152 184 152 184 152 268 c 0,42,43
 152 420 152 420 254 504 c 128,-1,44
 356 588 356 588 496 588 c 128,-1,45
 636 588 636 588 740 504 c 128,-1,46
 844 420 844 420 844 276 c 0,47,48
 844 160 844 160 766 70 c 1,49,-1
 1236 70 l 1,50,51
 1078 216 1078 216 1078 428 c 0,52,53
 1078 656 1078 656 1218 784 c 0,54,55
 1360 914 1360 914 1550 914 c 0,56,57
 1734 914 1734 914 1868 790 c 1,58,59
 2002 668 2002 668 2002 444 c 0,0,1
EndSplineSet
EndChar

StartChar: uni0D3A
Encoding: 3386 3386 157
Width: 2048
GlyphClass: 2
Flags: W
LayerCount: 2
Fore
SplineSet
1368 452 m 128,-1,1
 1368 200 1368 200 1190 22 c 1,2,3
 1012 -158 1012 -158 760 -158 c 0,4,5
 506 -158 506 -158 326 20 c 1,6,7
 148 198 148 198 148 450 c 0,8,9
 148 704 148 704 326 882 c 1,10,11
 506 1060 506 1060 758 1060 c 128,-1,12
 1010 1060 1010 1060 1188 882 c 1,13,0
 1368 704 1368 704 1368 452 c 128,-1,1
1302 448 m 0,14,15
 1302 678 1302 678 1140 838 c 1,16,17
 978 1000 978 1000 750 1000 c 128,-1,18
 522 1000 522 1000 360 838 c 1,19,20
 198 678 198 678 198 448 c 0,21,22
 198 220 198 220 360 56 c 1,23,24
 522 -106 522 -106 750 -106 c 128,-1,25
 978 -106 978 -106 1140 56 c 1,26,27
 1302 220 1302 220 1302 448 c 0,14,15
1078 140 m 1,28,-1
 932 -6 l 1,29,30
 912 22 912 22 898 98 c 1,31,32
 882 174 882 174 852 206 c 1,33,34
 834 228 834 228 806 270 c 1,35,36
 780 314 780 314 756 338 c 1,37,38
 712 370 712 370 704 374 c 1,39,40
 692 374 692 374 670 376 c 1,41,42
 650 376 650 376 638 376 c 1,43,44
 636 320 636 320 636 212 c 1,45,-1
 484 62 l 1,46,47
 484 290 484 290 508 684 c 1,48,-1
 566 742 l 1,49,50
 528 742 528 742 476 734 c 1,51,-1
 628 888 l 1,52,53
 724 904 724 904 854 884 c 128,-1,54
 984 864 984 864 1038 808 c 0,55,56
 1072 774 1072 774 1072 680 c 128,-1,57
 1072 586 1072 586 1042 558 c 1,58,-1
 932 446 l 1,59,60
 942 434 942 434 954 414 c 128,-1,61
 966 394 966 394 978 376 c 1,62,63
 990 360 990 360 1004 346 c 0,64,65
 1036 314 1036 314 1048 238 c 0,66,67
 1060 164 1060 164 1078 140 c 1,28,-1
918 528 m 1,68,69
 926 624 926 624 892 664 c 1,70,71
 828 730 828 730 656 738 c 1,72,73
 648 634 648 634 638 410 c 1,74,-1
 758 528 l 1,75,76
 794 548 794 548 842 526 c 1,77,78
 894 526 894 526 918 528 c 1,68,69
EndSplineSet
EndChar

StartChar: uni0D3B
Encoding: 3387 3387 158
Width: 2048
GlyphClass: 2
Flags: W
LayerCount: 2
Fore
SplineSet
1368 452 m 128,-1,1
 1368 200 1368 200 1190 22 c 1,2,3
 1012 -158 1012 -158 760 -158 c 0,4,5
 506 -158 506 -158 326 20 c 1,6,7
 148 198 148 198 148 450 c 0,8,9
 148 704 148 704 326 882 c 1,10,11
 506 1060 506 1060 758 1060 c 128,-1,12
 1010 1060 1010 1060 1188 882 c 1,13,0
 1368 704 1368 704 1368 452 c 128,-1,1
1302 448 m 0,14,15
 1302 678 1302 678 1140 838 c 1,16,17
 978 1000 978 1000 750 1000 c 128,-1,18
 522 1000 522 1000 360 838 c 1,19,20
 198 678 198 678 198 448 c 0,21,22
 198 220 198 220 360 56 c 1,23,24
 522 -106 522 -106 750 -106 c 128,-1,25
 978 -106 978 -106 1140 56 c 1,26,27
 1302 220 1302 220 1302 448 c 0,14,15
1078 140 m 1,28,-1
 932 -6 l 1,29,30
 912 22 912 22 898 98 c 1,31,32
 882 174 882 174 852 206 c 1,33,34
 834 228 834 228 806 270 c 1,35,36
 780 314 780 314 756 338 c 1,37,38
 712 370 712 370 704 374 c 1,39,40
 692 374 692 374 670 376 c 1,41,42
 650 376 650 376 638 376 c 1,43,44
 636 320 636 320 636 212 c 1,45,-1
 484 62 l 1,46,47
 484 290 484 290 508 684 c 1,48,-1
 566 742 l 1,49,50
 528 742 528 742 476 734 c 1,51,-1
 628 888 l 1,52,53
 724 904 724 904 854 884 c 128,-1,54
 984 864 984 864 1038 808 c 0,55,56
 1072 774 1072 774 1072 680 c 128,-1,57
 1072 586 1072 586 1042 558 c 1,58,-1
 932 446 l 1,59,60
 942 434 942 434 954 414 c 128,-1,61
 966 394 966 394 978 376 c 1,62,63
 990 360 990 360 1004 346 c 0,64,65
 1036 314 1036 314 1048 238 c 0,66,67
 1060 164 1060 164 1078 140 c 1,28,-1
918 528 m 1,68,69
 926 624 926 624 892 664 c 1,70,71
 828 730 828 730 656 738 c 1,72,73
 648 634 648 634 638 410 c 1,74,-1
 758 528 l 1,75,76
 794 548 794 548 842 526 c 1,77,78
 894 526 894 526 918 528 c 1,68,69
EndSplineSet
EndChar

StartChar: uni0D3C
Encoding: 3388 3388 159
Width: 2048
GlyphClass: 2
Flags: W
LayerCount: 2
Fore
SplineSet
1368 452 m 128,-1,1
 1368 200 1368 200 1190 22 c 1,2,3
 1012 -158 1012 -158 760 -158 c 0,4,5
 506 -158 506 -158 326 20 c 1,6,7
 148 198 148 198 148 450 c 0,8,9
 148 704 148 704 326 882 c 1,10,11
 506 1060 506 1060 758 1060 c 128,-1,12
 1010 1060 1010 1060 1188 882 c 1,13,0
 1368 704 1368 704 1368 452 c 128,-1,1
1302 448 m 0,14,15
 1302 678 1302 678 1140 838 c 1,16,17
 978 1000 978 1000 750 1000 c 128,-1,18
 522 1000 522 1000 360 838 c 1,19,20
 198 678 198 678 198 448 c 0,21,22
 198 220 198 220 360 56 c 1,23,24
 522 -106 522 -106 750 -106 c 128,-1,25
 978 -106 978 -106 1140 56 c 1,26,27
 1302 220 1302 220 1302 448 c 0,14,15
1078 140 m 1,28,-1
 932 -6 l 1,29,30
 912 22 912 22 898 98 c 1,31,32
 882 174 882 174 852 206 c 1,33,34
 834 228 834 228 806 270 c 1,35,36
 780 314 780 314 756 338 c 1,37,38
 712 370 712 370 704 374 c 1,39,40
 692 374 692 374 670 376 c 1,41,42
 650 376 650 376 638 376 c 1,43,44
 636 320 636 320 636 212 c 1,45,-1
 484 62 l 1,46,47
 484 290 484 290 508 684 c 1,48,-1
 566 742 l 1,49,50
 528 742 528 742 476 734 c 1,51,-1
 628 888 l 1,52,53
 724 904 724 904 854 884 c 128,-1,54
 984 864 984 864 1038 808 c 0,55,56
 1072 774 1072 774 1072 680 c 128,-1,57
 1072 586 1072 586 1042 558 c 1,58,-1
 932 446 l 1,59,60
 942 434 942 434 954 414 c 128,-1,61
 966 394 966 394 978 376 c 1,62,63
 990 360 990 360 1004 346 c 0,64,65
 1036 314 1036 314 1048 238 c 0,66,67
 1060 164 1060 164 1078 140 c 1,28,-1
918 528 m 1,68,69
 926 624 926 624 892 664 c 1,70,71
 828 730 828 730 656 738 c 1,72,73
 648 634 648 634 638 410 c 1,74,-1
 758 528 l 1,75,76
 794 548 794 548 842 526 c 1,77,78
 894 526 894 526 918 528 c 1,68,69
EndSplineSet
EndChar

StartChar: uni0D3D
Encoding: 3389 3389 160
Width: 770
GlyphClass: 2
Flags: W
LayerCount: 2
Fore
SplineSet
238 372 m 1,0,-1
 238 486 l 1,1,-1
 734 612 l 1,2,-1
 734 500 l 1,3,-1
 238 372 l 1,0,-1
724 1052 m 0,4,5
 678 1052 678 1052 678 1112 c 0,6,7
 678 1122 678 1122 684 1138 c 0,8,9
 690 1156 690 1156 690 1164 c 0,10,11
 690 1174 690 1174 680 1174 c 0,12,13
 652 1174 652 1174 618 1008 c 1,14,15
 590 884 590 884 584 794 c 1,16,17
 542 508 542 508 514 330 c 1,18,19
 476 74 476 74 432 -66 c 1,20,21
 354 -324 354 -324 234 -324 c 0,22,23
 148 -324 148 -324 148 -226 c 0,24,25
 148 -194 148 -194 162 -166 c 128,-1,26
 176 -138 176 -138 200 -138 c 0,27,28
 254 -138 254 -138 254 -198 c 0,29,30
 254 -204 254 -204 240 -248 c 1,31,32
 244 -252 244 -252 246 -252 c 0,33,34
 272 -252 272 -252 302 -162 c 1,35,36
 330 -72 330 -72 342 -4 c 0,37,38
 354 66 354 66 362 124 c 1,39,-1
 480 838 l 2,40,41
 488 892 488 892 502 950 c 0,42,43
 516 1006 516 1006 540 1076 c 1,44,45
 566 1146 566 1146 602 1190 c 1,46,47
 638 1232 638 1232 684 1232 c 0,48,49
 722 1232 722 1232 750 1206 c 128,-1,50
 778 1180 778 1180 778 1130 c 0,51,52
 778 1052 778 1052 724 1052 c 0,4,5
EndSplineSet
EndChar

StartChar: uni0D3E
Encoding: 3390 3390 161
Width: 826
GlyphClass: 2
Flags: W
LayerCount: 2
Fore
SplineSet
820 444 m 0,0,1
 820 260 820 260 730 118 c 1,2,3
 642 -24 642 -24 468 -24 c 0,4,5
 342 -24 342 -24 252 72 c 1,6,7
 162 170 162 170 158 304 c 1,8,-1
 222 304 l 1,9,10
 234 218 234 218 288 158 c 128,-1,11
 342 98 342 98 418 98 c 0,12,13
 502 98 502 98 560 164 c 1,14,15
 618 232 618 232 638 312 c 1,16,17
 660 394 660 394 660 476 c 0,18,19
 660 550 660 550 642 626 c 1,20,21
 622 700 622 700 570 762 c 128,-1,22
 518 824 518 824 440 824 c 0,23,24
 350 824 350 824 286 752 c 1,25,26
 222 682 222 682 222 588 c 2,27,-1
 222 558 l 1,28,-1
 158 558 l 1,29,-1
 158 578 l 2,30,31
 158 716 158 716 242 820 c 1,32,33
 328 922 328 922 462 922 c 0,34,35
 582 922 582 922 666 844 c 1,36,37
 750 768 750 768 784 664 c 1,38,39
 820 560 820 560 820 444 c 0,0,1
EndSplineSet
EndChar

StartChar: uni0D3F
Encoding: 3391 3391 162
Width: 580
GlyphClass: 2
Flags: W
LayerCount: 2
Fore
SplineSet
522 0 m 1,0,-1
 350 0 l 1,1,-1
 350 914 l 2,2,3
 350 1012 350 1012 296 1064 c 1,4,5
 244 1116 244 1116 170 1116 c 128,-1,6
 96 1116 96 1116 42 1068 c 128,-1,7
 -12 1020 -12 1020 -10 938 c 1,8,-1
 -80 938 l 1,9,10
 -78 1076 -78 1076 14 1154 c 1,11,12
 106 1230 106 1230 230 1230 c 0,13,14
 348 1230 348 1230 436 1158 c 1,15,16
 522 1086 522 1086 522 956 c 2,17,-1
 522 0 l 1,0,-1
EndSplineSet
EndChar

StartChar: uni0D40
Encoding: 3392 3392 163
Width: 662
GlyphClass: 2
Flags: W
LayerCount: 2
Fore
SplineSet
610 0 m 1,0,-1
 440 0 l 1,1,-1
 440 914 l 2,2,3
 440 1006 440 1006 390 1078 c 128,-1,4
 340 1150 340 1150 254 1150 c 0,5,6
 212 1150 212 1150 196 1144 c 1,7,8
 266 1134 266 1134 306 1084 c 1,9,10
 344 1034 344 1034 344 970 c 0,11,12
 344 892 344 892 294 848 c 1,13,14
 246 804 246 804 180 804 c 0,15,16
 110 804 110 804 58 852 c 0,17,18
 4 902 4 902 4 988 c 0,19,20
 4 1084 4 1084 82 1158 c 1,21,22
 160 1230 160 1230 304 1230 c 0,23,24
 428 1230 428 1230 520 1160 c 1,25,26
 610 1088 610 1088 610 956 c 2,27,-1
 610 0 l 1,0,-1
278 978 m 0,28,29
 278 1028 278 1028 238 1064 c 1,30,31
 198 1102 198 1102 122 1104 c 1,32,33
 70 1064 70 1064 70 992 c 0,34,35
 70 934 70 934 98 904 c 128,-1,36
 126 874 126 874 170 874 c 0,37,38
 210 874 210 874 244 904 c 1,39,40
 278 932 278 932 278 978 c 0,28,29
EndSplineSet
EndChar

StartChar: u1
Encoding: 3393 3393 164
Width: 564
GlyphClass: 2
Flags: W
LayerCount: 2
Fore
SplineSet
550 -260 m 0,0,1
 550 -360 550 -360 486 -432 c 1,2,3
 420 -504 420 -504 320 -504 c 128,-1,4
 220 -504 220 -504 154 -426 c 1,5,6
 90 -348 90 -348 90 -244 c 0,7,8
 90 -36 90 -36 280 4 c 1,9,10
 390 246 390 246 390 406 c 0,11,12
 390 704 390 704 158 778 c 1,13,-1
 170 918 l 1,14,15
 468 852 468 852 468 496 c 0,16,17
 468 312 468 312 350 4 c 1,18,19
 444 -16 444 -16 498 -90 c 0,20,21
 550 -162 550 -162 550 -260 c 0,0,1
446 -244 m 0,22,23
 446 -180 446 -180 406 -132 c 0,24,25
 364 -82 364 -82 300 -82 c 0,26,27
 234 -82 234 -82 194 -130 c 0,28,29
 156 -176 156 -176 156 -244 c 128,-1,30
 156 -312 156 -312 196 -358 c 128,-1,31
 236 -404 236 -404 300 -404 c 128,-1,32
 364 -404 364 -404 406 -356 c 0,33,34
 446 -310 446 -310 446 -244 c 0,22,23
EndSplineSet
EndChar

StartChar: u2
Encoding: 3394 3394 165
Width: 530
GlyphClass: 2
Flags: W
LayerCount: 2
Fore
SplineSet
516 -244 m 0,0,1
 516 -336 516 -336 454 -404 c 1,2,3
 392 -474 392 -474 300 -474 c 0,4,5
 204 -474 204 -474 144 -400 c 1,6,7
 82 -328 82 -328 82 -230 c 0,8,9
 82 -36 82 -36 264 4 c 1,10,11
 366 234 366 234 366 378 c 0,12,13
 366 660 366 660 148 730 c 1,14,-1
 160 862 l 1,15,16
 440 796 440 796 440 466 c 0,17,18
 440 290 440 290 330 4 c 1,19,20
 516 -30 516 -30 516 -244 c 0,0,1
406 -166 m 1,21,22
 362 -78 362 -78 280 -78 c 0,23,24
 192 -78 192 -78 156 -170 c 1,25,26
 212 -236 212 -236 276 -236 c 0,27,28
 356 -236 356 -236 406 -166 c 1,21,22
418 -226 m 1,29,30
 340 -290 340 -290 278 -290 c 0,31,32
 230 -290 230 -290 144 -224 c 1,33,34
 144 -286 144 -286 182 -334 c 1,35,36
 220 -380 220 -380 280 -380 c 0,37,38
 346 -380 346 -380 382 -336 c 1,39,40
 418 -290 418 -290 418 -226 c 1,29,30
EndSplineSet
EndChar

StartChar: r1
Encoding: 3395 3395 166
Width: 776
GlyphClass: 2
Flags: W
LayerCount: 2
Fore
SplineSet
780 -188 m 0,0,1
 780 -326 780 -326 678 -414 c 1,2,3
 576 -504 576 -504 436 -504 c 0,4,5
 316 -504 316 -504 234 -444 c 1,6,7
 152 -386 152 -386 152 -268 c 0,8,9
 152 -156 152 -156 216 -84 c 1,10,11
 278 -12 278 -12 390 -12 c 0,12,13
 484 -12 484 -12 548 -88 c 1,14,15
 614 -162 614 -162 614 -256 c 0,16,17
 614 -362 614 -362 532 -426 c 1,18,-1
 534 -434 l 1,19,20
 614 -410 614 -410 664 -338 c 1,21,22
 714 -268 714 -268 714 -182 c 0,23,24
 714 -146 714 -146 702 -108 c 1,25,26
 688 -72 688 -72 668 -40 c 1,27,28
 648 -10 648 -10 620 20 c 1,29,30
 594 52 594 52 566 76 c 128,-1,31
 538 100 538 100 512 126 c 0,32,33
 320 318 320 318 320 762 c 0,34,35
 320 836 320 836 336 892 c 1,36,-1
 502 892 l 1,37,38
 492 832 492 832 492 708 c 2,39,-1
 492 702 l 2,40,41
 492 506 492 506 514 410 c 0,42,43
 534 326 534 326 658 120 c 1,44,45
 780 -86 780 -86 780 -188 c 0,0,1
548 -274 m 0,46,47
 548 -210 548 -210 508 -162 c 1,48,49
 466 -114 466 -114 402 -114 c 0,50,51
 336 -114 336 -114 296 -160 c 128,-1,52
 256 -206 256 -206 256 -274 c 0,53,54
 256 -338 256 -338 296 -386 c 1,55,56
 338 -434 338 -434 402 -434 c 128,-1,57
 466 -434 466 -434 508 -388 c 1,58,59
 548 -342 548 -342 548 -274 c 0,46,47
EndSplineSet
EndChar

StartChar: r2
Encoding: 3396 3396 167
Width: 2048
GlyphClass: 2
Flags: W
LayerCount: 2
Fore
SplineSet
1368 452 m 128,-1,1
 1368 200 1368 200 1190 22 c 1,2,3
 1012 -158 1012 -158 760 -158 c 0,4,5
 506 -158 506 -158 326 20 c 1,6,7
 148 198 148 198 148 450 c 0,8,9
 148 704 148 704 326 882 c 1,10,11
 506 1060 506 1060 758 1060 c 128,-1,12
 1010 1060 1010 1060 1188 882 c 1,13,0
 1368 704 1368 704 1368 452 c 128,-1,1
1302 448 m 0,14,15
 1302 678 1302 678 1140 838 c 1,16,17
 978 1000 978 1000 750 1000 c 128,-1,18
 522 1000 522 1000 360 838 c 1,19,20
 198 678 198 678 198 448 c 0,21,22
 198 220 198 220 360 56 c 1,23,24
 522 -106 522 -106 750 -106 c 128,-1,25
 978 -106 978 -106 1140 56 c 1,26,27
 1302 220 1302 220 1302 448 c 0,14,15
1078 140 m 1,28,-1
 932 -6 l 1,29,30
 912 22 912 22 898 98 c 1,31,32
 882 174 882 174 852 206 c 1,33,34
 834 228 834 228 806 270 c 1,35,36
 780 314 780 314 756 338 c 1,37,38
 712 370 712 370 704 374 c 1,39,40
 692 374 692 374 670 376 c 1,41,42
 650 376 650 376 638 376 c 1,43,44
 636 320 636 320 636 212 c 1,45,-1
 484 62 l 1,46,47
 484 290 484 290 508 684 c 1,48,-1
 566 742 l 1,49,50
 528 742 528 742 476 734 c 1,51,-1
 628 888 l 1,52,53
 724 904 724 904 854 884 c 128,-1,54
 984 864 984 864 1038 808 c 0,55,56
 1072 774 1072 774 1072 680 c 128,-1,57
 1072 586 1072 586 1042 558 c 1,58,-1
 932 446 l 1,59,60
 942 434 942 434 954 414 c 128,-1,61
 966 394 966 394 978 376 c 1,62,63
 990 360 990 360 1004 346 c 0,64,65
 1036 314 1036 314 1048 238 c 0,66,67
 1060 164 1060 164 1078 140 c 1,28,-1
918 528 m 1,68,69
 926 624 926 624 892 664 c 1,70,71
 828 730 828 730 656 738 c 1,72,73
 648 634 648 634 638 410 c 1,74,-1
 758 528 l 1,75,76
 794 548 794 548 842 526 c 1,77,78
 894 526 894 526 918 528 c 1,68,69
EndSplineSet
EndChar

StartChar: uni0D45
Encoding: 3397 3397 168
Width: 2048
GlyphClass: 2
Flags: W
LayerCount: 2
Fore
SplineSet
1368 452 m 128,-1,1
 1368 200 1368 200 1190 22 c 1,2,3
 1012 -158 1012 -158 760 -158 c 0,4,5
 506 -158 506 -158 326 20 c 1,6,7
 148 198 148 198 148 450 c 0,8,9
 148 704 148 704 326 882 c 1,10,11
 506 1060 506 1060 758 1060 c 128,-1,12
 1010 1060 1010 1060 1188 882 c 1,13,0
 1368 704 1368 704 1368 452 c 128,-1,1
1302 448 m 0,14,15
 1302 678 1302 678 1140 838 c 1,16,17
 978 1000 978 1000 750 1000 c 128,-1,18
 522 1000 522 1000 360 838 c 1,19,20
 198 678 198 678 198 448 c 0,21,22
 198 220 198 220 360 56 c 1,23,24
 522 -106 522 -106 750 -106 c 128,-1,25
 978 -106 978 -106 1140 56 c 1,26,27
 1302 220 1302 220 1302 448 c 0,14,15
1078 140 m 1,28,-1
 932 -6 l 1,29,30
 912 22 912 22 898 98 c 1,31,32
 882 174 882 174 852 206 c 1,33,34
 834 228 834 228 806 270 c 1,35,36
 780 314 780 314 756 338 c 1,37,38
 712 370 712 370 704 374 c 1,39,40
 692 374 692 374 670 376 c 1,41,42
 650 376 650 376 638 376 c 1,43,44
 636 320 636 320 636 212 c 1,45,-1
 484 62 l 1,46,47
 484 290 484 290 508 684 c 1,48,-1
 566 742 l 1,49,50
 528 742 528 742 476 734 c 1,51,-1
 628 888 l 1,52,53
 724 904 724 904 854 884 c 128,-1,54
 984 864 984 864 1038 808 c 0,55,56
 1072 774 1072 774 1072 680 c 128,-1,57
 1072 586 1072 586 1042 558 c 1,58,-1
 932 446 l 1,59,60
 942 434 942 434 954 414 c 128,-1,61
 966 394 966 394 978 376 c 1,62,63
 990 360 990 360 1004 346 c 0,64,65
 1036 314 1036 314 1048 238 c 0,66,67
 1060 164 1060 164 1078 140 c 1,28,-1
918 528 m 1,68,69
 926 624 926 624 892 664 c 1,70,71
 828 730 828 730 656 738 c 1,72,73
 648 634 648 634 638 410 c 1,74,-1
 758 528 l 1,75,76
 794 548 794 548 842 526 c 1,77,78
 894 526 894 526 918 528 c 1,68,69
EndSplineSet
EndChar

StartChar: uni0D46
Encoding: 3398 3398 169
Width: 1112
GlyphClass: 2
Flags: W
LayerCount: 2
Fore
SplineSet
1106 426 m 0,0,1
 1106 290 1106 290 1044 172 c 0,2,3
 980 52 980 52 858 -24 c 1,4,-1
 758 22 l 1,5,6
 936 156 936 156 936 402 c 0,7,8
 936 592 936 592 834 702 c 128,-1,9
 732 812 732 812 592 812 c 0,10,11
 456 812 456 812 350 704 c 128,-1,12
 244 596 244 596 222 394 c 1,13,-1
 230 390 l 1,14,15
 322 536 322 536 444 536 c 0,16,17
 552 536 552 536 618 446 c 128,-1,18
 684 356 684 356 684 238 c 0,19,20
 684 130 684 130 624 52 c 1,21,22
 564 -24 564 -24 448 -24 c 0,23,24
 312 -24 312 -24 234 92 c 1,25,26
 156 206 156 206 156 372 c 0,27,28
 156 632 156 632 300 778 c 0,29,30
 442 922 442 922 638 922 c 0,31,32
 830 922 830 922 968 790 c 1,33,34
 1106 660 1106 660 1106 426 c 0,0,1
550 262 m 0,35,36
 550 332 550 332 512 384 c 128,-1,37
 474 436 474 436 406 436 c 0,38,39
 336 436 336 436 296 386 c 1,40,41
 258 336 258 336 258 268 c 0,42,43
 258 198 258 198 298 148 c 1,44,45
 338 96 338 96 410 96 c 0,46,47
 478 96 478 96 514 146 c 1,48,49
 550 194 550 194 550 262 c 0,35,36
EndSplineSet
EndChar

StartChar: uni0D47
Encoding: 3399 3399 170
Width: 980
GlyphClass: 2
Flags: W
LayerCount: 2
Fore
SplineSet
978 670 m 0,0,1
 978 584 978 584 924 538 c 1,2,3
 868 492 868 492 790 492 c 128,-1,4
 712 492 712 492 654 536 c 1,5,6
 596 582 596 582 596 660 c 0,7,8
 596 758 596 758 682 832 c 1,9,10
 652 848 652 848 614 848 c 0,11,12
 468 848 468 848 388 732 c 1,13,14
 308 614 308 614 308 452 c 0,15,16
 308 288 308 288 388 168 c 1,17,18
 468 50 468 50 614 50 c 0,19,20
 652 50 652 50 682 66 c 1,21,22
 594 120 594 120 594 212 c 0,23,24
 594 296 594 296 656 346 c 0,25,26
 716 394 716 394 796 394 c 0,27,28
 872 394 872 394 926 350 c 0,29,30
 978 308 978 308 978 226 c 0,31,32
 978 112 978 112 878 46 c 1,33,34
 776 -20 776 -20 634 -20 c 0,35,36
 408 -20 408 -20 282 118 c 1,37,38
 156 258 156 258 156 450 c 128,-1,39
 156 642 156 642 280 780 c 1,40,41
 406 918 406 918 630 918 c 0,42,43
 774 918 774 918 876 850 c 128,-1,44
 978 782 978 782 978 670 c 0,0,1
910 674 m 0,45,46
 910 722 910 722 878 762 c 1,47,48
 848 802 848 802 786 816 c 1,49,50
 748 796 748 796 724 752 c 0,51,52
 700 706 700 706 700 660 c 0,53,54
 700 612 700 612 730 584 c 1,55,56
 760 558 760 558 798 558 c 0,57,58
 844 558 844 558 876 588 c 0,59,60
 910 620 910 620 910 674 c 0,45,46
910 226 m 0,61,62
 910 272 910 272 878 300 c 128,-1,63
 846 328 846 328 802 328 c 0,64,65
 760 328 760 328 730 302 c 1,66,67
 700 274 700 274 700 226 c 0,68,69
 700 130 700 130 786 80 c 1,70,71
 844 94 844 94 876 136 c 1,72,73
 910 178 910 178 910 226 c 0,61,62
EndSplineSet
EndChar

StartChar: uni0D48
Encoding: 3400 3400 171
Width: 2190
GlyphClass: 2
Flags: W
LayerCount: 2
Fore
SplineSet
1106 426 m 0,0,1
 1106 290 1106 290 1044 172 c 0,2,3
 980 52 980 52 858 -24 c 1,4,-1
 758 22 l 1,5,6
 936 156 936 156 936 402 c 0,7,8
 936 592 936 592 834 702 c 128,-1,9
 732 812 732 812 592 812 c 0,10,11
 456 812 456 812 350 704 c 128,-1,12
 244 596 244 596 222 394 c 1,13,-1
 230 390 l 1,14,15
 322 536 322 536 444 536 c 0,16,17
 552 536 552 536 618 446 c 128,-1,18
 684 356 684 356 684 238 c 0,19,20
 684 130 684 130 624 52 c 1,21,22
 564 -24 564 -24 448 -24 c 0,23,24
 312 -24 312 -24 234 92 c 1,25,26
 156 206 156 206 156 372 c 0,27,28
 156 632 156 632 300 778 c 0,29,30
 442 922 442 922 638 922 c 0,31,32
 830 922 830 922 968 790 c 1,33,34
 1106 660 1106 660 1106 426 c 0,0,1
550 262 m 0,35,36
 550 332 550 332 512 384 c 128,-1,37
 474 436 474 436 406 436 c 0,38,39
 336 436 336 436 296 386 c 1,40,41
 258 336 258 336 258 268 c 0,42,43
 258 198 258 198 298 148 c 1,44,45
 338 96 338 96 410 96 c 0,46,47
 478 96 478 96 514 146 c 1,48,49
 550 194 550 194 550 262 c 0,35,36
2192 426 m 0,50,51
 2192 290 2192 290 2128 172 c 1,52,53
 2066 52 2066 52 1942 -24 c 1,54,-1
 1844 22 l 1,55,56
 2020 156 2020 156 2020 402 c 0,57,58
 2020 592 2020 592 1918 702 c 128,-1,59
 1816 812 1816 812 1676 812 c 0,60,61
 1540 812 1540 812 1436 704 c 128,-1,62
 1332 596 1332 596 1308 394 c 1,63,-1
 1314 390 l 1,64,65
 1406 536 1406 536 1530 536 c 0,66,67
 1638 536 1638 536 1704 446 c 128,-1,68
 1770 356 1770 356 1770 238 c 0,69,70
 1770 130 1770 130 1710 52 c 1,71,72
 1648 -24 1648 -24 1534 -24 c 0,73,74
 1394 -24 1394 -24 1318 90 c 128,-1,75
 1242 204 1242 204 1242 372 c 0,76,77
 1242 632 1242 632 1386 778 c 1,78,79
 1530 922 1530 922 1726 922 c 0,80,81
 1914 922 1914 922 2054 790 c 0,82,83
 2192 660 2192 660 2192 426 c 0,50,51
1636 262 m 0,84,85
 1636 332 1636 332 1598 384 c 1,86,87
 1558 436 1558 436 1490 436 c 128,-1,88
 1422 436 1422 436 1382 386 c 1,89,90
 1344 336 1344 336 1344 268 c 128,-1,91
 1344 200 1344 200 1384 148 c 128,-1,92
 1424 96 1424 96 1496 96 c 0,93,94
 1562 96 1562 96 1600 146 c 0,95,96
 1636 194 1636 194 1636 262 c 0,84,85
EndSplineSet
EndChar

StartChar: uni0D49
Encoding: 3401 3401 172
Width: 2048
GlyphClass: 2
Flags: W
LayerCount: 2
Fore
SplineSet
1368 452 m 128,-1,1
 1368 200 1368 200 1190 22 c 1,2,3
 1012 -158 1012 -158 760 -158 c 0,4,5
 506 -158 506 -158 326 20 c 1,6,7
 148 198 148 198 148 450 c 0,8,9
 148 704 148 704 326 882 c 1,10,11
 506 1060 506 1060 758 1060 c 128,-1,12
 1010 1060 1010 1060 1188 882 c 1,13,0
 1368 704 1368 704 1368 452 c 128,-1,1
1302 448 m 0,14,15
 1302 678 1302 678 1140 838 c 1,16,17
 978 1000 978 1000 750 1000 c 128,-1,18
 522 1000 522 1000 360 838 c 1,19,20
 198 678 198 678 198 448 c 0,21,22
 198 220 198 220 360 56 c 1,23,24
 522 -106 522 -106 750 -106 c 128,-1,25
 978 -106 978 -106 1140 56 c 1,26,27
 1302 220 1302 220 1302 448 c 0,14,15
1078 140 m 1,28,-1
 932 -6 l 1,29,30
 912 22 912 22 898 98 c 1,31,32
 882 174 882 174 852 206 c 1,33,34
 834 228 834 228 806 270 c 1,35,36
 780 314 780 314 756 338 c 1,37,38
 712 370 712 370 704 374 c 1,39,40
 692 374 692 374 670 376 c 1,41,42
 650 376 650 376 638 376 c 1,43,44
 636 320 636 320 636 212 c 1,45,-1
 484 62 l 1,46,47
 484 290 484 290 508 684 c 1,48,-1
 566 742 l 1,49,50
 528 742 528 742 476 734 c 1,51,-1
 628 888 l 1,52,53
 724 904 724 904 854 884 c 128,-1,54
 984 864 984 864 1038 808 c 0,55,56
 1072 774 1072 774 1072 680 c 128,-1,57
 1072 586 1072 586 1042 558 c 1,58,-1
 932 446 l 1,59,60
 942 434 942 434 954 414 c 128,-1,61
 966 394 966 394 978 376 c 1,62,63
 990 360 990 360 1004 346 c 0,64,65
 1036 314 1036 314 1048 238 c 0,66,67
 1060 164 1060 164 1078 140 c 1,28,-1
918 528 m 1,68,69
 926 624 926 624 892 664 c 1,70,71
 828 730 828 730 656 738 c 1,72,73
 648 634 648 634 638 410 c 1,74,-1
 758 528 l 1,75,76
 794 548 794 548 842 526 c 1,77,78
 894 526 894 526 918 528 c 1,68,69
EndSplineSet
EndChar

StartChar: uni0D4A
Encoding: 3402 3402 173
Width: 2310
GlyphClass: 2
Flags: W
LayerCount: 2
Fore
SplineSet
2310 190 m 2,0,1
 2310 68 2310 68 2222 -22 c 1,2,3
 2132 -110 2132 -110 2008 -110 c 2,4,-1
 464 -110 l 2,5,6
 340 -110 340 -110 252 -22 c 1,7,8
 164 68 164 68 164 190 c 2,9,-1
 164 876 l 2,10,11
 164 1000 164 1000 252 1088 c 128,-1,12
 340 1176 340 1176 464 1176 c 2,13,-1
 2008 1176 l 2,14,15
 2132 1176 2132 1176 2222 1088 c 1,16,17
 2310 1000 2310 1000 2310 876 c 2,18,-1
 2310 190 l 2,0,1
2222 282 m 2,19,-1
 2222 788 l 2,20,21
 2222 914 2222 914 2134 1002 c 128,-1,22
 2046 1090 2046 1090 1922 1090 c 2,23,-1
 550 1090 l 2,24,25
 426 1090 426 1090 338 1002 c 1,26,27
 252 914 252 914 252 788 c 2,28,-1
 252 282 l 2,29,30
 252 160 252 160 338 72 c 1,31,32
 426 -16 426 -16 550 -16 c 2,33,-1
 1922 -16 l 2,34,35
 2046 -16 2046 -16 2134 72 c 128,-1,36
 2222 160 2222 160 2222 282 c 2,19,-1
2092 524 m 0,37,38
 2092 136 2092 136 1818 136 c 0,39,40
 1688 136 1688 136 1628 196 c 1,41,42
 1566 256 1566 256 1568 386 c 1,43,-1
 1568 390 l 1,44,-1
 1630 390 l 1,45,46
 1640 332 1640 332 1650 306 c 0,47,48
 1660 278 1660 278 1690 258 c 128,-1,49
 1720 238 1720 238 1774 238 c 0,50,51
 1830 238 1830 238 1868 264 c 1,52,53
 1906 288 1906 288 1922 338 c 0,54,55
 1938 390 1938 390 1942 430 c 0,56,57
 1946 468 1946 468 1946 526 c 0,58,59
 1946 812 1946 812 1796 812 c 0,60,61
 1746 812 1746 812 1716 798 c 0,62,63
 1684 784 1684 784 1668 752 c 0,64,65
 1650 718 1650 718 1644 692 c 1,66,67
 1636 664 1636 664 1630 610 c 1,68,-1
 1568 610 l 1,69,-1
 1568 614 l 1,70,71
 1566 752 1566 752 1618 822 c 1,72,73
 1672 890 1672 890 1804 890 c 0,74,75
 2092 890 2092 890 2092 524 c 0,37,38
1492 446 m 1,76,-1
 1316 446 l 1,77,-1
 1316 530 l 1,78,-1
 1492 530 l 1,79,-1
 1492 446 l 1,76,-1
1246 510 m 0,80,81
 1246 302 1246 302 1008 124 c 1,82,-1
 914 162 l 1,83,84
 1090 286 1090 286 1090 484 c 0,85,86
 1090 614 1090 614 996 708 c 0,87,88
 904 800 904 800 770 800 c 0,89,90
 630 800 630 800 538 706 c 1,91,92
 444 612 444 612 426 472 c 1,93,-1
 432 464 l 1,94,95
 516 582 516 582 632 582 c 0,96,97
 722 582 722 582 790 510 c 128,-1,98
 858 438 858 438 858 348 c 0,99,100
 858 248 858 248 798 192 c 128,-1,101
 738 136 738 136 636 136 c 0,102,103
 508 136 508 136 438 222 c 0,104,105
 366 310 366 310 366 442 c 0,106,107
 366 626 366 626 492 758 c 1,108,109
 616 890 616 890 800 890 c 0,110,111
 972 890 972 890 1108 784 c 1,112,113
 1246 678 1246 678 1246 510 c 0,80,81
734 360 m 0,114,115
 734 420 734 420 696 462 c 128,-1,116
 658 504 658 504 600 504 c 0,117,118
 540 504 540 504 500 466 c 1,119,120
 458 430 458 430 458 370 c 0,121,122
 458 316 458 316 500 272 c 1,123,124
 542 230 542 230 598 230 c 0,125,126
 652 230 652 230 692 268 c 0,127,128
 734 308 734 308 734 360 c 0,114,115
EndSplineSet
EndChar

StartChar: uni0D4B
Encoding: 3403 3403 174
Width: 2126
GlyphClass: 2
Flags: W
LayerCount: 2
Fore
SplineSet
2128 190 m 2,0,1
 2128 68 2128 68 2040 -22 c 1,2,3
 1952 -110 1952 -110 1828 -110 c 2,4,-1
 464 -110 l 2,5,6
 340 -110 340 -110 252 -22 c 1,7,8
 164 68 164 68 164 190 c 2,9,-1
 164 876 l 2,10,11
 164 1000 164 1000 252 1088 c 128,-1,12
 340 1176 340 1176 464 1176 c 2,13,-1
 1828 1176 l 2,14,15
 1952 1176 1952 1176 2040 1088 c 128,-1,16
 2128 1000 2128 1000 2128 876 c 2,17,-1
 2128 190 l 2,0,1
2056 258 m 2,18,-1
 2056 788 l 2,19,20
 2056 914 2056 914 1968 1002 c 1,21,22
 1878 1090 1878 1090 1754 1090 c 2,23,-1
 558 1090 l 2,24,25
 434 1090 434 1090 346 1002 c 128,-1,26
 258 914 258 914 258 788 c 2,27,-1
 258 258 l 2,28,29
 258 136 258 136 346 48 c 128,-1,30
 434 -40 434 -40 558 -40 c 2,31,-1
 1754 -40 l 2,32,33
 1878 -40 1878 -40 1968 48 c 1,34,35
 2056 136 2056 136 2056 258 c 2,18,-1
1888 522 m 0,36,37
 1888 132 1888 132 1616 132 c 0,38,39
 1484 132 1484 132 1426 192 c 0,40,41
 1366 254 1366 254 1366 386 c 2,42,-1
 1366 390 l 1,43,-1
 1426 390 l 1,44,45
 1434 346 1434 346 1442 324 c 128,-1,46
 1450 302 1450 302 1466 278 c 0,47,48
 1480 256 1480 256 1506 246 c 1,49,50
 1532 238 1532 238 1572 238 c 0,51,52
 1618 238 1618 238 1652 258 c 1,53,54
 1686 276 1686 276 1702 304 c 0,55,56
 1718 330 1718 330 1728 372 c 0,57,58
 1738 416 1738 416 1740 448 c 0,59,60
 1742 482 1742 482 1742 524 c 0,61,62
 1742 808 1742 808 1590 808 c 0,63,64
 1540 808 1540 808 1510 796 c 1,65,66
 1478 782 1478 782 1462 748 c 128,-1,67
 1446 714 1446 714 1440 690 c 0,68,69
 1434 664 1434 664 1426 608 c 1,70,-1
 1366 608 l 1,71,-1
 1366 614 l 2,72,73
 1366 752 1366 752 1416 822 c 1,74,75
 1466 890 1466 890 1602 890 c 0,76,77
 1888 890 1888 890 1888 522 c 0,36,37
1290 446 m 1,78,-1
 1112 446 l 1,79,-1
 1112 528 l 1,80,-1
 1290 528 l 1,81,-1
 1290 446 l 1,78,-1
1038 336 m 0,82,83
 1038 236 1038 236 942 188 c 128,-1,84
 846 140 846 140 734 140 c 0,85,86
 560 140 560 140 466 242 c 1,87,88
 372 346 372 346 372 522 c 0,89,90
 372 692 372 692 468 792 c 1,91,92
 566 892 566 892 734 892 c 0,93,94
 800 892 800 892 866 876 c 128,-1,95
 932 860 932 860 986 814 c 1,96,97
 1038 766 1038 766 1038 698 c 0,98,99
 1038 550 1038 550 898 550 c 0,100,101
 828 550 828 550 778 586 c 1,102,103
 730 622 730 622 730 690 c 0,104,105
 730 782 730 782 786 824 c 1,106,107
 768 836 768 836 724 836 c 0,108,109
 510 836 510 836 510 522 c 0,110,111
 510 194 510 194 724 194 c 0,112,113
 758 194 758 194 786 206 c 1,114,115
 730 242 730 242 730 336 c 0,116,117
 730 400 730 400 780 436 c 128,-1,118
 830 472 830 472 898 472 c 0,119,120
 958 472 958 472 998 434 c 1,121,122
 1038 398 1038 398 1038 336 c 0,82,83
978 694 m 0,123,124
 978 796 978 796 884 812 c 1,125,126
 860 800 860 800 844 766 c 128,-1,127
 828 732 828 732 828 702 c 0,128,129
 828 606 828 606 898 606 c 0,130,131
 978 606 978 606 978 694 c 0,123,124
978 340 m 0,132,133
 978 372 978 372 954 396 c 1,134,135
 930 418 930 418 898 418 c 0,136,137
 828 418 828 418 828 330 c 0,138,139
 828 250 828 250 884 218 c 1,140,141
 978 242 978 242 978 340 c 0,132,133
EndSplineSet
EndChar

StartChar: uni0D4C
Encoding: 3404 3404 175
Width: 1386
GlyphClass: 2
Flags: W
LayerCount: 2
Fore
SplineSet
1386 446 m 0,0,1
 1386 322 1386 322 1340 220 c 0,2,3
 1292 116 1292 116 1178 46 c 128,-1,4
 1064 -24 1064 -24 902 -24 c 0,5,6
 744 -24 744 -24 626 42 c 128,-1,7
 508 108 508 108 508 208 c 2,8,-1
 508 234 l 1,9,-1
 574 234 l 1,10,-1
 574 210 l 2,11,12
 574 152 574 152 662 104 c 1,13,14
 750 58 750 58 860 58 c 0,15,16
 1034 58 1034 58 1126 174 c 128,-1,17
 1218 290 1218 290 1218 450 c 0,18,19
 1218 626 1218 626 1136 720 c 0,20,21
 1052 816 1052 816 950 816 c 0,22,23
 882 816 882 816 836 776 c 128,-1,24
 790 736 790 736 790 668 c 2,25,-1
 790 382 l 1,26,-1
 618 382 l 1,27,-1
 618 596 l 2,28,29
 618 708 618 708 572 766 c 1,30,31
 524 824 524 824 452 824 c 0,32,33
 364 824 364 824 292 740 c 1,34,35
 222 656 222 656 222 520 c 2,36,-1
 222 456 l 2,37,38
 222 416 222 416 230 390 c 1,39,-1
 164 390 l 1,40,41
 156 428 156 428 156 462 c 0,42,43
 156 472 156 472 156 496 c 1,44,45
 158 520 158 520 158 536 c 0,46,47
 158 708 158 708 258 814 c 0,48,49
 356 918 356 918 488 918 c 0,50,51
 656 918 656 918 746 768 c 1,52,53
 858 922 858 922 1014 922 c 0,54,55
 1162 922 1162 922 1274 786 c 128,-1,56
 1386 650 1386 650 1386 446 c 0,0,1
EndSplineSet
EndChar

